%TF.GenerationSoftware,KiCad,Pcbnew,9.0.5*%
%TF.CreationDate,2026-02-14T18:46:13+01:00*%
%TF.ProjectId,DriveAssist_Kicad,44726976-6541-4737-9369-73745f4b6963,1.0*%
%TF.SameCoordinates,Original*%
%TF.FileFunction,Copper,L2,Bot*%
%TF.FilePolarity,Positive*%
%FSLAX46Y46*%
G04 Gerber Fmt 4.6, Leading zero omitted, Abs format (unit mm)*
G04 Created by KiCad (PCBNEW 9.0.5) date 2026-02-14 18:46:13*
%MOMM*%
%LPD*%
G01*
G04 APERTURE LIST*
%TA.AperFunction,ComponentPad*%
%ADD10R,1.700000X1.700000*%
%TD*%
%TA.AperFunction,ComponentPad*%
%ADD11C,1.700000*%
%TD*%
%TA.AperFunction,ComponentPad*%
%ADD12R,1.600000X1.600000*%
%TD*%
%TA.AperFunction,ComponentPad*%
%ADD13O,1.600000X1.600000*%
%TD*%
%TA.AperFunction,ComponentPad*%
%ADD14R,1.308000X1.308000*%
%TD*%
%TA.AperFunction,ComponentPad*%
%ADD15C,1.308000*%
%TD*%
%TA.AperFunction,ComponentPad*%
%ADD16C,1.600000*%
%TD*%
%TA.AperFunction,Conductor*%
%ADD17C,0.200000*%
%TD*%
G04 APERTURE END LIST*
D10*
%TO.P,J2,1,Pin_1*%
%TO.N,+5V*%
X147000000Y-80920000D03*
D11*
%TO.P,J2,2,Pin_2*%
%TO.N,Net-(A1-D1{slash}TX)*%
X147000000Y-83460000D03*
%TO.P,J2,3,Pin_3*%
%TO.N,Net-(A1-D0{slash}RX)*%
X147000000Y-86000000D03*
%TO.P,J2,4,Pin_4*%
%TO.N,GND 2*%
X147000000Y-88540000D03*
%TD*%
D12*
%TO.P,A1,1,D1/TX*%
%TO.N,Net-(A1-D1{slash}TX)*%
X159400000Y-83770000D03*
D13*
%TO.P,A1,2,D0/RX*%
%TO.N,Net-(A1-D0{slash}RX)*%
X159400000Y-86310000D03*
%TO.P,A1,3,~{RESET}*%
%TO.N,unconnected-(A1-~{RESET}-Pad3)*%
X159400000Y-88850000D03*
%TO.P,A1,4,GND*%
%TO.N,GND 2*%
X159400000Y-91390000D03*
%TO.P,A1,5,D2*%
%TO.N,Net-(A1-D2)*%
X159400000Y-93930000D03*
%TO.P,A1,6,D3*%
%TO.N,Net-(A1-D3)*%
X159400000Y-96470000D03*
%TO.P,A1,7,D4*%
%TO.N,Net-(A1-D4)*%
X159400000Y-99010000D03*
%TO.P,A1,8,D5*%
%TO.N,Net-(A1-D5)*%
X159400000Y-101550000D03*
%TO.P,A1,9,D6*%
%TO.N,Net-(A1-D6)*%
X159400000Y-104090000D03*
%TO.P,A1,10,D7*%
%TO.N,Net-(A1-D7)*%
X159400000Y-106630000D03*
%TO.P,A1,11,D8*%
%TO.N,Net-(A1-D8)*%
X159400000Y-109170000D03*
%TO.P,A1,12,D9*%
%TO.N,Net-(A1-D9)*%
X159400000Y-111710000D03*
%TO.P,A1,13,D10*%
%TO.N,Net-(A1-D10)*%
X159400000Y-114250000D03*
%TO.P,A1,14,D11*%
%TO.N,Net-(A1-D11)*%
X159400000Y-116790000D03*
%TO.P,A1,15,D12*%
%TO.N,unconnected-(A1-D12-Pad15)*%
X159400000Y-119330000D03*
%TO.P,A1,16,D13*%
%TO.N,unconnected-(A1-D13-Pad16)*%
X174640000Y-119330000D03*
%TO.P,A1,17,3V3*%
%TO.N,+3.3V*%
X174640000Y-116790000D03*
%TO.P,A1,18,AREF*%
%TO.N,unconnected-(A1-AREF-Pad18)*%
X174640000Y-114250000D03*
%TO.P,A1,19,A0*%
%TO.N,unconnected-(A1-A0-Pad19)*%
X174640000Y-111710000D03*
%TO.P,A1,20,A1*%
%TO.N,unconnected-(A1-A1-Pad20)*%
X174640000Y-109170000D03*
%TO.P,A1,21,A2*%
%TO.N,unconnected-(A1-A2-Pad21)*%
X174640000Y-106630000D03*
%TO.P,A1,22,A3*%
%TO.N,unconnected-(A1-A3-Pad22)*%
X174640000Y-104090000D03*
%TO.P,A1,23,A4*%
%TO.N,Net-(A1-A4)*%
X174640000Y-101550000D03*
%TO.P,A1,24,A5*%
%TO.N,Net-(A1-A5)*%
X174640000Y-99010000D03*
%TO.P,A1,25,A6*%
%TO.N,unconnected-(A1-A6-Pad25)*%
X174640000Y-96470000D03*
%TO.P,A1,26,A7*%
%TO.N,unconnected-(A1-A7-Pad26)*%
X174640000Y-93930000D03*
%TO.P,A1,27,+5V*%
%TO.N,+5V*%
X174640000Y-91390000D03*
%TO.P,A1,28,~{RESET}*%
%TO.N,unconnected-(A1-~{RESET}-Pad28)*%
X174640000Y-88850000D03*
%TO.P,A1,29,GND*%
%TO.N,GND 1*%
X174640000Y-86310000D03*
%TO.P,A1,30,VIN*%
%TO.N,unconnected-(A1-VIN-Pad30)*%
X174640000Y-83770000D03*
%TD*%
D10*
%TO.P,J9,1,Pin_1*%
%TO.N,GND 2*%
X184500000Y-80500000D03*
%TD*%
%TO.P,J1,1,Pin_1*%
%TO.N,+3.3V*%
X185000000Y-92460000D03*
D11*
%TO.P,J1,2,Pin_2*%
%TO.N,GND 1*%
X185000000Y-95000000D03*
%TO.P,J1,3,Pin_3*%
%TO.N,+5V*%
X185000000Y-97540000D03*
%TO.P,J1,4,Pin_4*%
%TO.N,Net-(A1-A4)*%
X185000000Y-100080000D03*
%TO.P,J1,5,Pin_5*%
%TO.N,Net-(A1-A5)*%
X185000000Y-102620000D03*
%TO.P,J1,6,Pin_6*%
%TO.N,Net-(A1-D2)*%
X185000000Y-105160000D03*
%TD*%
D10*
%TO.P,J8,1,Pin_1*%
%TO.N,+5V*%
X184500000Y-73000000D03*
%TD*%
%TO.P,J3,1,Pin_1*%
%TO.N,Net-(J3-Pin_1)*%
X115460000Y-74000000D03*
D11*
%TO.P,J3,2,Pin_2*%
%TO.N,Net-(J3-Pin_2)*%
X118000000Y-74000000D03*
%TD*%
D14*
%TO.P,U1,1,VCC*%
%TO.N,+5V*%
X132048000Y-80503000D03*
D15*
%TO.P,U1,2,RX*%
%TO.N,Net-(U1-RX)*%
X129508000Y-80503000D03*
%TO.P,U1,3,TX*%
%TO.N,Net-(A1-D10)*%
X126968000Y-80503000D03*
%TO.P,U1,4,DAC_R*%
%TO.N,unconnected-(U1-DAC_R-Pad4)*%
X124428000Y-80503000D03*
%TO.P,U1,5,DAC_L*%
%TO.N,unconnected-(U1-DAC_L-Pad5)*%
X121888000Y-80503000D03*
%TO.P,U1,6,SPK1*%
%TO.N,Net-(J3-Pin_2)*%
X119348000Y-80503000D03*
%TO.P,U1,7,GND*%
%TO.N,GND 2*%
X116808000Y-80503000D03*
%TO.P,U1,8,SPK2*%
%TO.N,Net-(J3-Pin_1)*%
X114268000Y-80503000D03*
%TO.P,U1,9,IO1*%
%TO.N,Net-(J4-Pin_1)*%
X114268000Y-98537000D03*
%TO.P,U1,10,GND*%
%TO.N,GND 2*%
X116808000Y-98537000D03*
%TO.P,U1,11,IO2*%
%TO.N,Net-(J4-Pin_2)*%
X119348000Y-98537000D03*
%TO.P,U1,12,ADKEY1*%
%TO.N,unconnected-(U1-ADKEY1-Pad12)*%
X121888000Y-98537000D03*
%TO.P,U1,13,ADKEY2*%
%TO.N,unconnected-(U1-ADKEY2-Pad13)*%
X124428000Y-98537000D03*
%TO.P,U1,14,USB+*%
%TO.N,Net-(J5-Pin_2)*%
X126968000Y-98537000D03*
%TO.P,U1,15,USB-*%
%TO.N,Net-(J5-Pin_1)*%
X129508000Y-98537000D03*
%TO.P,U1,16,BUSY*%
%TO.N,Net-(A1-D9)*%
X132048000Y-98537000D03*
%TD*%
D16*
%TO.P,R1,1*%
%TO.N,Net-(A1-D11)*%
X136810000Y-74000000D03*
%TO.P,R1,2*%
%TO.N,Net-(U1-RX)*%
X129190000Y-74000000D03*
%TD*%
D10*
%TO.P,J6,1,Pin_1*%
%TO.N,Net-(A1-D6)*%
X147000000Y-95960000D03*
D11*
%TO.P,J6,2,Pin_2*%
%TO.N,Net-(A1-D5)*%
X147000000Y-98500000D03*
%TO.P,J6,3,Pin_3*%
%TO.N,Net-(A1-D4)*%
X147000000Y-101040000D03*
%TO.P,J6,4,Pin_4*%
%TO.N,Net-(A1-D3)*%
X147000000Y-103580000D03*
%TD*%
D10*
%TO.P,J7,1,Pin_1*%
%TO.N,Net-(A1-D8)*%
X147000000Y-124000000D03*
D11*
%TO.P,J7,2,Pin_2*%
%TO.N,Net-(A1-D7)*%
X147000000Y-121460000D03*
%TD*%
D10*
%TO.P,J5,1,Pin_1*%
%TO.N,Net-(J5-Pin_1)*%
X129540000Y-105000000D03*
D11*
%TO.P,J5,2,Pin_2*%
%TO.N,Net-(J5-Pin_2)*%
X127000000Y-105000000D03*
%TD*%
D10*
%TO.P,J4,1,Pin_1*%
%TO.N,Net-(J4-Pin_1)*%
X115460000Y-105000000D03*
D11*
%TO.P,J4,2,Pin_2*%
%TO.N,Net-(J4-Pin_2)*%
X118000000Y-105000000D03*
%TD*%
D17*
%TO.N,GND 2*%
X154500000Y-78500000D02*
X154500000Y-88500000D01*
X179000000Y-69500000D02*
X175500000Y-73000000D01*
X175500000Y-73000000D02*
X175500000Y-76500000D01*
X188500000Y-69500000D02*
X179000000Y-69500000D01*
X189000000Y-70000000D02*
X188500000Y-69500000D01*
X156500000Y-76500000D02*
X154500000Y-78500000D01*
X184500000Y-80500000D02*
X189000000Y-80500000D01*
X189000000Y-80500000D02*
X189000000Y-70000000D01*
X175500000Y-76500000D02*
X156500000Y-76500000D01*
%TO.N,Net-(A1-D3)*%
X154110000Y-96470000D02*
X159400000Y-96470000D01*
X147000000Y-103580000D02*
X154110000Y-96470000D01*
%TO.N,Net-(A1-D2)*%
X191500000Y-90000000D02*
X190000000Y-91500000D01*
X152930000Y-93930000D02*
X151500000Y-92500000D01*
X151500000Y-92500000D02*
X151500000Y-78500000D01*
X171000000Y-74500000D02*
X178500000Y-67000000D01*
X155500000Y-74500000D02*
X171000000Y-74500000D01*
X151500000Y-78500000D02*
X155500000Y-74500000D01*
X178500000Y-67000000D02*
X188500000Y-67000000D01*
X190000000Y-103500000D02*
X188340000Y-105160000D01*
X188340000Y-105160000D02*
X185000000Y-105160000D01*
X188500000Y-67000000D02*
X191500000Y-70000000D01*
X159400000Y-93930000D02*
X152930000Y-93930000D01*
X190000000Y-91500000D02*
X190000000Y-103500000D01*
X191500000Y-70000000D02*
X191500000Y-90000000D01*
%TO.N,Net-(A1-A4)*%
X179000000Y-100000000D02*
X179080000Y-100080000D01*
X174640000Y-101550000D02*
X178950000Y-101550000D01*
X179000000Y-101500000D02*
X179000000Y-100000000D01*
X178950000Y-101550000D02*
X179000000Y-101500000D01*
X179080000Y-100080000D02*
X185000000Y-100080000D01*
%TO.N,Net-(A1-D11)*%
X136810000Y-113810000D02*
X139790000Y-116790000D01*
X139790000Y-116790000D02*
X159400000Y-116790000D01*
X136810000Y-74000000D02*
X136810000Y-113810000D01*
%TO.N,Net-(A1-D10)*%
X126968000Y-80503000D02*
X126968000Y-71532000D01*
X139500000Y-71500000D02*
X139500000Y-111000000D01*
X142750000Y-114250000D02*
X159400000Y-114250000D01*
X139500000Y-111000000D02*
X142750000Y-114250000D01*
X127000000Y-71500000D02*
X139500000Y-71500000D01*
X126968000Y-71532000D02*
X127000000Y-71500000D01*
%TO.N,+5V*%
X180500000Y-73000000D02*
X179000000Y-74500000D01*
X179000000Y-74500000D02*
X179000000Y-87030000D01*
X184500000Y-73000000D02*
X180500000Y-73000000D01*
X179000000Y-87030000D02*
X174640000Y-91390000D01*
%TO.N,GND 2*%
X154500000Y-88500000D02*
X154500000Y-91500000D01*
X142500000Y-88000000D02*
X143040000Y-88540000D01*
X116808000Y-80503000D02*
X116808000Y-80192000D01*
X125500000Y-71500000D02*
X125500000Y-69500000D01*
X116808000Y-98537000D02*
X116808000Y-80503000D01*
X154500000Y-91500000D02*
X154610000Y-91390000D01*
X143040000Y-88540000D02*
X147000000Y-88540000D01*
X125500000Y-69500000D02*
X142500000Y-69500000D01*
X154610000Y-91390000D02*
X159400000Y-91390000D01*
X142500000Y-69500000D02*
X142500000Y-88000000D01*
X116808000Y-80192000D02*
X125500000Y-71500000D01*
%TO.N,Net-(U1-RX)*%
X129190000Y-74000000D02*
X129190000Y-80185000D01*
X129190000Y-80185000D02*
X129508000Y-80503000D01*
%TD*%
%TA.AperFunction,Conductor*%
%TO.N,GND 1*%
G36*
X194617539Y-65190185D02*
G01*
X194663294Y-65242989D01*
X194674500Y-65294500D01*
X194674500Y-130045500D01*
X194654815Y-130112539D01*
X194602011Y-130158294D01*
X194550500Y-130169500D01*
X109299500Y-130169500D01*
X109232461Y-130149815D01*
X109186706Y-130097011D01*
X109175500Y-130045500D01*
X109175500Y-121353713D01*
X145649500Y-121353713D01*
X145649500Y-121566286D01*
X145682753Y-121776239D01*
X145748444Y-121978414D01*
X145844951Y-122167820D01*
X145969890Y-122339786D01*
X146083430Y-122453326D01*
X146116915Y-122514649D01*
X146111931Y-122584341D01*
X146070059Y-122640274D01*
X146039083Y-122657189D01*
X145907669Y-122706203D01*
X145907664Y-122706206D01*
X145792455Y-122792452D01*
X145792452Y-122792455D01*
X145706206Y-122907664D01*
X145706202Y-122907671D01*
X145655908Y-123042517D01*
X145649501Y-123102116D01*
X145649501Y-123102123D01*
X145649500Y-123102135D01*
X145649500Y-124897870D01*
X145649501Y-124897876D01*
X145655908Y-124957483D01*
X145706202Y-125092328D01*
X145706206Y-125092335D01*
X145792452Y-125207544D01*
X145792455Y-125207547D01*
X145907664Y-125293793D01*
X145907671Y-125293797D01*
X146042517Y-125344091D01*
X146042516Y-125344091D01*
X146049444Y-125344835D01*
X146102127Y-125350500D01*
X147897872Y-125350499D01*
X147957483Y-125344091D01*
X148092331Y-125293796D01*
X148207546Y-125207546D01*
X148293796Y-125092331D01*
X148344091Y-124957483D01*
X148350500Y-124897873D01*
X148350499Y-123102128D01*
X148344091Y-123042517D01*
X148293796Y-122907669D01*
X148293795Y-122907668D01*
X148293793Y-122907664D01*
X148207547Y-122792455D01*
X148207544Y-122792452D01*
X148092335Y-122706206D01*
X148092328Y-122706202D01*
X147960917Y-122657189D01*
X147904983Y-122615318D01*
X147880566Y-122549853D01*
X147895418Y-122481580D01*
X147916563Y-122453332D01*
X148030104Y-122339792D01*
X148155051Y-122167816D01*
X148251557Y-121978412D01*
X148317246Y-121776243D01*
X148350500Y-121566287D01*
X148350500Y-121353713D01*
X148317246Y-121143757D01*
X148251557Y-120941588D01*
X148155051Y-120752184D01*
X148155049Y-120752181D01*
X148155048Y-120752179D01*
X148030109Y-120580213D01*
X147879786Y-120429890D01*
X147707820Y-120304951D01*
X147518414Y-120208444D01*
X147518413Y-120208443D01*
X147518412Y-120208443D01*
X147316243Y-120142754D01*
X147316241Y-120142753D01*
X147316240Y-120142753D01*
X147154957Y-120117208D01*
X147106287Y-120109500D01*
X146893713Y-120109500D01*
X146845042Y-120117208D01*
X146683760Y-120142753D01*
X146481585Y-120208444D01*
X146292179Y-120304951D01*
X146120213Y-120429890D01*
X145969890Y-120580213D01*
X145844951Y-120752179D01*
X145748444Y-120941585D01*
X145682753Y-121143760D01*
X145649500Y-121353713D01*
X109175500Y-121353713D01*
X109175500Y-104102135D01*
X114109500Y-104102135D01*
X114109500Y-105897870D01*
X114109501Y-105897876D01*
X114115908Y-105957483D01*
X114166202Y-106092328D01*
X114166206Y-106092335D01*
X114252452Y-106207544D01*
X114252455Y-106207547D01*
X114367664Y-106293793D01*
X114367671Y-106293797D01*
X114502517Y-106344091D01*
X114502516Y-106344091D01*
X114509444Y-106344835D01*
X114562127Y-106350500D01*
X116357872Y-106350499D01*
X116417483Y-106344091D01*
X116552331Y-106293796D01*
X116667546Y-106207546D01*
X116753796Y-106092331D01*
X116802810Y-105960916D01*
X116844681Y-105904984D01*
X116910145Y-105880566D01*
X116978418Y-105895417D01*
X117006673Y-105916569D01*
X117120213Y-106030109D01*
X117292179Y-106155048D01*
X117292181Y-106155049D01*
X117292184Y-106155051D01*
X117481588Y-106251557D01*
X117683757Y-106317246D01*
X117893713Y-106350500D01*
X117893714Y-106350500D01*
X118106286Y-106350500D01*
X118106287Y-106350500D01*
X118316243Y-106317246D01*
X118518412Y-106251557D01*
X118707816Y-106155051D01*
X118794138Y-106092335D01*
X118879786Y-106030109D01*
X118879788Y-106030106D01*
X118879792Y-106030104D01*
X119030104Y-105879792D01*
X119030106Y-105879788D01*
X119030109Y-105879786D01*
X119155048Y-105707820D01*
X119155047Y-105707820D01*
X119155051Y-105707816D01*
X119251557Y-105518412D01*
X119317246Y-105316243D01*
X119350500Y-105106287D01*
X119350500Y-104893713D01*
X125649500Y-104893713D01*
X125649500Y-105106286D01*
X125679783Y-105297490D01*
X125682754Y-105316243D01*
X125734741Y-105476243D01*
X125748444Y-105518414D01*
X125844951Y-105707820D01*
X125969890Y-105879786D01*
X126120213Y-106030109D01*
X126292179Y-106155048D01*
X126292181Y-106155049D01*
X126292184Y-106155051D01*
X126481588Y-106251557D01*
X126683757Y-106317246D01*
X126893713Y-106350500D01*
X126893714Y-106350500D01*
X127106286Y-106350500D01*
X127106287Y-106350500D01*
X127316243Y-106317246D01*
X127518412Y-106251557D01*
X127707816Y-106155051D01*
X127879792Y-106030104D01*
X127993329Y-105916566D01*
X128054648Y-105883084D01*
X128124340Y-105888068D01*
X128180274Y-105929939D01*
X128197189Y-105960917D01*
X128246202Y-106092328D01*
X128246206Y-106092335D01*
X128332452Y-106207544D01*
X128332455Y-106207547D01*
X128447664Y-106293793D01*
X128447671Y-106293797D01*
X128582517Y-106344091D01*
X128582516Y-106344091D01*
X128589444Y-106344835D01*
X128642127Y-106350500D01*
X130437872Y-106350499D01*
X130497483Y-106344091D01*
X130632331Y-106293796D01*
X130747546Y-106207546D01*
X130833796Y-106092331D01*
X130884091Y-105957483D01*
X130890500Y-105897873D01*
X130890499Y-104102128D01*
X130884091Y-104042517D01*
X130882810Y-104039083D01*
X130833797Y-103907671D01*
X130833793Y-103907664D01*
X130747547Y-103792455D01*
X130747544Y-103792452D01*
X130632335Y-103706206D01*
X130632328Y-103706202D01*
X130497482Y-103655908D01*
X130497483Y-103655908D01*
X130437883Y-103649501D01*
X130437881Y-103649500D01*
X130437873Y-103649500D01*
X130437864Y-103649500D01*
X128642129Y-103649500D01*
X128642123Y-103649501D01*
X128582516Y-103655908D01*
X128447671Y-103706202D01*
X128447664Y-103706206D01*
X128332455Y-103792452D01*
X128332452Y-103792455D01*
X128246206Y-103907664D01*
X128246203Y-103907669D01*
X128197189Y-104039083D01*
X128155317Y-104095016D01*
X128089853Y-104119433D01*
X128021580Y-104104581D01*
X127993326Y-104083430D01*
X127879786Y-103969890D01*
X127707820Y-103844951D01*
X127518414Y-103748444D01*
X127518413Y-103748443D01*
X127518412Y-103748443D01*
X127316243Y-103682754D01*
X127316241Y-103682753D01*
X127316240Y-103682753D01*
X127154957Y-103657208D01*
X127106287Y-103649500D01*
X126893713Y-103649500D01*
X126845042Y-103657208D01*
X126683760Y-103682753D01*
X126481585Y-103748444D01*
X126292179Y-103844951D01*
X126120213Y-103969890D01*
X125969890Y-104120213D01*
X125844951Y-104292179D01*
X125748444Y-104481585D01*
X125682753Y-104683760D01*
X125649500Y-104893713D01*
X119350500Y-104893713D01*
X119317246Y-104683757D01*
X119251557Y-104481588D01*
X119155051Y-104292184D01*
X119155049Y-104292181D01*
X119155048Y-104292179D01*
X119030109Y-104120213D01*
X118879786Y-103969890D01*
X118707820Y-103844951D01*
X118518414Y-103748444D01*
X118518413Y-103748443D01*
X118518412Y-103748443D01*
X118316243Y-103682754D01*
X118316241Y-103682753D01*
X118316240Y-103682753D01*
X118154957Y-103657208D01*
X118106287Y-103649500D01*
X117893713Y-103649500D01*
X117845042Y-103657208D01*
X117683760Y-103682753D01*
X117481585Y-103748444D01*
X117292179Y-103844951D01*
X117120215Y-103969889D01*
X117006673Y-104083431D01*
X116945350Y-104116915D01*
X116875658Y-104111931D01*
X116819725Y-104070059D01*
X116802810Y-104039082D01*
X116753797Y-103907671D01*
X116753793Y-103907664D01*
X116667547Y-103792455D01*
X116667544Y-103792452D01*
X116552335Y-103706206D01*
X116552328Y-103706202D01*
X116417482Y-103655908D01*
X116417483Y-103655908D01*
X116357883Y-103649501D01*
X116357881Y-103649500D01*
X116357873Y-103649500D01*
X116357864Y-103649500D01*
X114562129Y-103649500D01*
X114562123Y-103649501D01*
X114502516Y-103655908D01*
X114367671Y-103706202D01*
X114367664Y-103706206D01*
X114252455Y-103792452D01*
X114252452Y-103792455D01*
X114166206Y-103907664D01*
X114166202Y-103907671D01*
X114115908Y-104042517D01*
X114109899Y-104098412D01*
X114109501Y-104102123D01*
X114109500Y-104102135D01*
X109175500Y-104102135D01*
X109175500Y-80412139D01*
X113113500Y-80412139D01*
X113113500Y-80593861D01*
X113120473Y-80637885D01*
X113141928Y-80773347D01*
X113141928Y-80773350D01*
X113198081Y-80946171D01*
X113198083Y-80946174D01*
X113280583Y-81108090D01*
X113387397Y-81255106D01*
X113515894Y-81383603D01*
X113662910Y-81490417D01*
X113824826Y-81572917D01*
X113824828Y-81572918D01*
X113910629Y-81600796D01*
X113997654Y-81629072D01*
X114177139Y-81657500D01*
X114177140Y-81657500D01*
X114358860Y-81657500D01*
X114358861Y-81657500D01*
X114538346Y-81629072D01*
X114538349Y-81629071D01*
X114538350Y-81629071D01*
X114711171Y-81572918D01*
X114711171Y-81572917D01*
X114711174Y-81572917D01*
X114873090Y-81490417D01*
X115020106Y-81383603D01*
X115148603Y-81255106D01*
X115255417Y-81108090D01*
X115337917Y-80946174D01*
X115363087Y-80868709D01*
X115394071Y-80773350D01*
X115394071Y-80773349D01*
X115394072Y-80773346D01*
X115415527Y-80637884D01*
X115445456Y-80574750D01*
X115504768Y-80537819D01*
X115574630Y-80538817D01*
X115632863Y-80577427D01*
X115660472Y-80637884D01*
X115669527Y-80695052D01*
X115681928Y-80773347D01*
X115681928Y-80773350D01*
X115738081Y-80946171D01*
X115738083Y-80946174D01*
X115820583Y-81108090D01*
X115927397Y-81255106D01*
X116055894Y-81383603D01*
X116156385Y-81456614D01*
X116199051Y-81511944D01*
X116207500Y-81556932D01*
X116207500Y-97483067D01*
X116187815Y-97550106D01*
X116156386Y-97583385D01*
X116055892Y-97656398D01*
X115927399Y-97784891D01*
X115927399Y-97784892D01*
X115927397Y-97784894D01*
X115912949Y-97804780D01*
X115820583Y-97931909D01*
X115738083Y-98093825D01*
X115738081Y-98093828D01*
X115681928Y-98266649D01*
X115681928Y-98266652D01*
X115660473Y-98402114D01*
X115630544Y-98465249D01*
X115571232Y-98502180D01*
X115501370Y-98501182D01*
X115443137Y-98462572D01*
X115415527Y-98402114D01*
X115403850Y-98328390D01*
X115394072Y-98266654D01*
X115394071Y-98266650D01*
X115394071Y-98266649D01*
X115337918Y-98093828D01*
X115337916Y-98093825D01*
X115319874Y-98058414D01*
X115255417Y-97931910D01*
X115148603Y-97784894D01*
X115020106Y-97656397D01*
X114873090Y-97549583D01*
X114711174Y-97467083D01*
X114711171Y-97467081D01*
X114538348Y-97410928D01*
X114418689Y-97391976D01*
X114358861Y-97382500D01*
X114177139Y-97382500D01*
X114117310Y-97391976D01*
X113997652Y-97410928D01*
X113997649Y-97410928D01*
X113824828Y-97467081D01*
X113824825Y-97467083D01*
X113662909Y-97549583D01*
X113579030Y-97610525D01*
X113515894Y-97656397D01*
X113515892Y-97656399D01*
X113515891Y-97656399D01*
X113387399Y-97784891D01*
X113387399Y-97784892D01*
X113387397Y-97784894D01*
X113372949Y-97804780D01*
X113280583Y-97931909D01*
X113198083Y-98093825D01*
X113198081Y-98093828D01*
X113141928Y-98266649D01*
X113141928Y-98266652D01*
X113113500Y-98446139D01*
X113113500Y-98627860D01*
X113141928Y-98807347D01*
X113141928Y-98807350D01*
X113198081Y-98980171D01*
X113198083Y-98980174D01*
X113280583Y-99142090D01*
X113387397Y-99289106D01*
X113515894Y-99417603D01*
X113662910Y-99524417D01*
X113824826Y-99606917D01*
X113824828Y-99606918D01*
X113972965Y-99655050D01*
X113997654Y-99663072D01*
X114177139Y-99691500D01*
X114177140Y-99691500D01*
X114358860Y-99691500D01*
X114358861Y-99691500D01*
X114538346Y-99663072D01*
X114538349Y-99663071D01*
X114538350Y-99663071D01*
X114711171Y-99606918D01*
X114711171Y-99606917D01*
X114711174Y-99606917D01*
X114873090Y-99524417D01*
X115020106Y-99417603D01*
X115148603Y-99289106D01*
X115255417Y-99142090D01*
X115337917Y-98980174D01*
X115357311Y-98920486D01*
X115394071Y-98807350D01*
X115394071Y-98807349D01*
X115394072Y-98807346D01*
X115415527Y-98671884D01*
X115445456Y-98608750D01*
X115504768Y-98571819D01*
X115574630Y-98572817D01*
X115632863Y-98611427D01*
X115660472Y-98671884D01*
X115665792Y-98705466D01*
X115681928Y-98807347D01*
X115681928Y-98807350D01*
X115738081Y-98980171D01*
X115738083Y-98980174D01*
X115820583Y-99142090D01*
X115927397Y-99289106D01*
X116055894Y-99417603D01*
X116202910Y-99524417D01*
X116364826Y-99606917D01*
X116364828Y-99606918D01*
X116512965Y-99655050D01*
X116537654Y-99663072D01*
X116717139Y-99691500D01*
X116717140Y-99691500D01*
X116898860Y-99691500D01*
X116898861Y-99691500D01*
X117078346Y-99663072D01*
X117078349Y-99663071D01*
X117078350Y-99663071D01*
X117251171Y-99606918D01*
X117251171Y-99606917D01*
X117251174Y-99606917D01*
X117413090Y-99524417D01*
X117560106Y-99417603D01*
X117688603Y-99289106D01*
X117795417Y-99142090D01*
X117877917Y-98980174D01*
X117897311Y-98920486D01*
X117934071Y-98807350D01*
X117934071Y-98807349D01*
X117934072Y-98807346D01*
X117955527Y-98671884D01*
X117985456Y-98608750D01*
X118044768Y-98571819D01*
X118114630Y-98572817D01*
X118172863Y-98611427D01*
X118200472Y-98671884D01*
X118205792Y-98705466D01*
X118221928Y-98807347D01*
X118221928Y-98807350D01*
X118278081Y-98980171D01*
X118278083Y-98980174D01*
X118360583Y-99142090D01*
X118467397Y-99289106D01*
X118595894Y-99417603D01*
X118742910Y-99524417D01*
X118904826Y-99606917D01*
X118904828Y-99606918D01*
X119052965Y-99655050D01*
X119077654Y-99663072D01*
X119257139Y-99691500D01*
X119257140Y-99691500D01*
X119438860Y-99691500D01*
X119438861Y-99691500D01*
X119618346Y-99663072D01*
X119618349Y-99663071D01*
X119618350Y-99663071D01*
X119791171Y-99606918D01*
X119791171Y-99606917D01*
X119791174Y-99606917D01*
X119953090Y-99524417D01*
X120100106Y-99417603D01*
X120228603Y-99289106D01*
X120335417Y-99142090D01*
X120417917Y-98980174D01*
X120437311Y-98920486D01*
X120474071Y-98807350D01*
X120474071Y-98807349D01*
X120474072Y-98807346D01*
X120495527Y-98671884D01*
X120525456Y-98608750D01*
X120584768Y-98571819D01*
X120654630Y-98572817D01*
X120712863Y-98611427D01*
X120740472Y-98671884D01*
X120745792Y-98705466D01*
X120761928Y-98807347D01*
X120761928Y-98807350D01*
X120818081Y-98980171D01*
X120818083Y-98980174D01*
X120900583Y-99142090D01*
X121007397Y-99289106D01*
X121135894Y-99417603D01*
X121282910Y-99524417D01*
X121444826Y-99606917D01*
X121444828Y-99606918D01*
X121592965Y-99655050D01*
X121617654Y-99663072D01*
X121797139Y-99691500D01*
X121797140Y-99691500D01*
X121978860Y-99691500D01*
X121978861Y-99691500D01*
X122158346Y-99663072D01*
X122158349Y-99663071D01*
X122158350Y-99663071D01*
X122331171Y-99606918D01*
X122331171Y-99606917D01*
X122331174Y-99606917D01*
X122493090Y-99524417D01*
X122640106Y-99417603D01*
X122768603Y-99289106D01*
X122875417Y-99142090D01*
X122957917Y-98980174D01*
X122977311Y-98920486D01*
X123014071Y-98807350D01*
X123014071Y-98807349D01*
X123014072Y-98807346D01*
X123035527Y-98671884D01*
X123065456Y-98608750D01*
X123124768Y-98571819D01*
X123194630Y-98572817D01*
X123252863Y-98611427D01*
X123280472Y-98671884D01*
X123285792Y-98705466D01*
X123301928Y-98807347D01*
X123301928Y-98807350D01*
X123358081Y-98980171D01*
X123358083Y-98980174D01*
X123440583Y-99142090D01*
X123547397Y-99289106D01*
X123675894Y-99417603D01*
X123822910Y-99524417D01*
X123984826Y-99606917D01*
X123984828Y-99606918D01*
X124132965Y-99655050D01*
X124157654Y-99663072D01*
X124337139Y-99691500D01*
X124337140Y-99691500D01*
X124518860Y-99691500D01*
X124518861Y-99691500D01*
X124698346Y-99663072D01*
X124698349Y-99663071D01*
X124698350Y-99663071D01*
X124871171Y-99606918D01*
X124871171Y-99606917D01*
X124871174Y-99606917D01*
X125033090Y-99524417D01*
X125180106Y-99417603D01*
X125308603Y-99289106D01*
X125415417Y-99142090D01*
X125497917Y-98980174D01*
X125517311Y-98920486D01*
X125554071Y-98807350D01*
X125554071Y-98807349D01*
X125554072Y-98807346D01*
X125575527Y-98671884D01*
X125605456Y-98608750D01*
X125664768Y-98571819D01*
X125734630Y-98572817D01*
X125792863Y-98611427D01*
X125820472Y-98671884D01*
X125825792Y-98705466D01*
X125841928Y-98807347D01*
X125841928Y-98807350D01*
X125898081Y-98980171D01*
X125898083Y-98980174D01*
X125980583Y-99142090D01*
X126087397Y-99289106D01*
X126215894Y-99417603D01*
X126362910Y-99524417D01*
X126524826Y-99606917D01*
X126524828Y-99606918D01*
X126672965Y-99655050D01*
X126697654Y-99663072D01*
X126877139Y-99691500D01*
X126877140Y-99691500D01*
X127058860Y-99691500D01*
X127058861Y-99691500D01*
X127238346Y-99663072D01*
X127238349Y-99663071D01*
X127238350Y-99663071D01*
X127411171Y-99606918D01*
X127411171Y-99606917D01*
X127411174Y-99606917D01*
X127573090Y-99524417D01*
X127720106Y-99417603D01*
X127848603Y-99289106D01*
X127955417Y-99142090D01*
X128037917Y-98980174D01*
X128057311Y-98920486D01*
X128094071Y-98807350D01*
X128094071Y-98807349D01*
X128094072Y-98807346D01*
X128115527Y-98671884D01*
X128145456Y-98608750D01*
X128204768Y-98571819D01*
X128274630Y-98572817D01*
X128332863Y-98611427D01*
X128360472Y-98671884D01*
X128365792Y-98705466D01*
X128381928Y-98807347D01*
X128381928Y-98807350D01*
X128438081Y-98980171D01*
X128438083Y-98980174D01*
X128520583Y-99142090D01*
X128627397Y-99289106D01*
X128755894Y-99417603D01*
X128902910Y-99524417D01*
X129064826Y-99606917D01*
X129064828Y-99606918D01*
X129212965Y-99655050D01*
X129237654Y-99663072D01*
X129417139Y-99691500D01*
X129417140Y-99691500D01*
X129598860Y-99691500D01*
X129598861Y-99691500D01*
X129778346Y-99663072D01*
X129778349Y-99663071D01*
X129778350Y-99663071D01*
X129951171Y-99606918D01*
X129951171Y-99606917D01*
X129951174Y-99606917D01*
X130113090Y-99524417D01*
X130260106Y-99417603D01*
X130388603Y-99289106D01*
X130495417Y-99142090D01*
X130577917Y-98980174D01*
X130597311Y-98920486D01*
X130634071Y-98807350D01*
X130634071Y-98807349D01*
X130634072Y-98807346D01*
X130655527Y-98671884D01*
X130685456Y-98608750D01*
X130744768Y-98571819D01*
X130814630Y-98572817D01*
X130872863Y-98611427D01*
X130900472Y-98671884D01*
X130905792Y-98705466D01*
X130921928Y-98807347D01*
X130921928Y-98807350D01*
X130978081Y-98980171D01*
X130978083Y-98980174D01*
X131060583Y-99142090D01*
X131167397Y-99289106D01*
X131295894Y-99417603D01*
X131442910Y-99524417D01*
X131604826Y-99606917D01*
X131604828Y-99606918D01*
X131752965Y-99655050D01*
X131777654Y-99663072D01*
X131957139Y-99691500D01*
X131957140Y-99691500D01*
X132138860Y-99691500D01*
X132138861Y-99691500D01*
X132318346Y-99663072D01*
X132318349Y-99663071D01*
X132318350Y-99663071D01*
X132491171Y-99606918D01*
X132491171Y-99606917D01*
X132491174Y-99606917D01*
X132653090Y-99524417D01*
X132800106Y-99417603D01*
X132928603Y-99289106D01*
X133035417Y-99142090D01*
X133117917Y-98980174D01*
X133137311Y-98920486D01*
X133174071Y-98807350D01*
X133174071Y-98807349D01*
X133174072Y-98807346D01*
X133202500Y-98627861D01*
X133202500Y-98446139D01*
X133174072Y-98266654D01*
X133174071Y-98266650D01*
X133174071Y-98266649D01*
X133117918Y-98093828D01*
X133117916Y-98093825D01*
X133099874Y-98058414D01*
X133035417Y-97931910D01*
X132928603Y-97784894D01*
X132800106Y-97656397D01*
X132653090Y-97549583D01*
X132491174Y-97467083D01*
X132491171Y-97467081D01*
X132318348Y-97410928D01*
X132198689Y-97391976D01*
X132138861Y-97382500D01*
X131957139Y-97382500D01*
X131897310Y-97391976D01*
X131777652Y-97410928D01*
X131777649Y-97410928D01*
X131604828Y-97467081D01*
X131604825Y-97467083D01*
X131442909Y-97549583D01*
X131359030Y-97610525D01*
X131295894Y-97656397D01*
X131295892Y-97656399D01*
X131295891Y-97656399D01*
X131167399Y-97784891D01*
X131167399Y-97784892D01*
X131167397Y-97784894D01*
X131152949Y-97804780D01*
X131060583Y-97931909D01*
X130978083Y-98093825D01*
X130978081Y-98093828D01*
X130921928Y-98266649D01*
X130921928Y-98266652D01*
X130900473Y-98402114D01*
X130870544Y-98465249D01*
X130811232Y-98502180D01*
X130741370Y-98501182D01*
X130683137Y-98462572D01*
X130655527Y-98402114D01*
X130643850Y-98328390D01*
X130634072Y-98266654D01*
X130634071Y-98266650D01*
X130634071Y-98266649D01*
X130577918Y-98093828D01*
X130577916Y-98093825D01*
X130559874Y-98058414D01*
X130495417Y-97931910D01*
X130388603Y-97784894D01*
X130260106Y-97656397D01*
X130113090Y-97549583D01*
X129951174Y-97467083D01*
X129951171Y-97467081D01*
X129778348Y-97410928D01*
X129658689Y-97391976D01*
X129598861Y-97382500D01*
X129417139Y-97382500D01*
X129357310Y-97391976D01*
X129237652Y-97410928D01*
X129237649Y-97410928D01*
X129064828Y-97467081D01*
X129064825Y-97467083D01*
X128902909Y-97549583D01*
X128819030Y-97610525D01*
X128755894Y-97656397D01*
X128755892Y-97656399D01*
X128755891Y-97656399D01*
X128627399Y-97784891D01*
X128627399Y-97784892D01*
X128627397Y-97784894D01*
X128612949Y-97804780D01*
X128520583Y-97931909D01*
X128438083Y-98093825D01*
X128438081Y-98093828D01*
X128381928Y-98266649D01*
X128381928Y-98266652D01*
X128360473Y-98402114D01*
X128330544Y-98465249D01*
X128271232Y-98502180D01*
X128201370Y-98501182D01*
X128143137Y-98462572D01*
X128115527Y-98402114D01*
X128103850Y-98328390D01*
X128094072Y-98266654D01*
X128094071Y-98266650D01*
X128094071Y-98266649D01*
X128037918Y-98093828D01*
X128037916Y-98093825D01*
X128019874Y-98058414D01*
X127955417Y-97931910D01*
X127848603Y-97784894D01*
X127720106Y-97656397D01*
X127573090Y-97549583D01*
X127411174Y-97467083D01*
X127411171Y-97467081D01*
X127238348Y-97410928D01*
X127118689Y-97391976D01*
X127058861Y-97382500D01*
X126877139Y-97382500D01*
X126817310Y-97391976D01*
X126697652Y-97410928D01*
X126697649Y-97410928D01*
X126524828Y-97467081D01*
X126524825Y-97467083D01*
X126362909Y-97549583D01*
X126279030Y-97610525D01*
X126215894Y-97656397D01*
X126215892Y-97656399D01*
X126215891Y-97656399D01*
X126087399Y-97784891D01*
X126087399Y-97784892D01*
X126087397Y-97784894D01*
X126072949Y-97804780D01*
X125980583Y-97931909D01*
X125898083Y-98093825D01*
X125898081Y-98093828D01*
X125841928Y-98266649D01*
X125841928Y-98266652D01*
X125820473Y-98402114D01*
X125790544Y-98465249D01*
X125731232Y-98502180D01*
X125661370Y-98501182D01*
X125603137Y-98462572D01*
X125575527Y-98402114D01*
X125563850Y-98328390D01*
X125554072Y-98266654D01*
X125554071Y-98266650D01*
X125554071Y-98266649D01*
X125497918Y-98093828D01*
X125497916Y-98093825D01*
X125479874Y-98058414D01*
X125415417Y-97931910D01*
X125308603Y-97784894D01*
X125180106Y-97656397D01*
X125033090Y-97549583D01*
X124871174Y-97467083D01*
X124871171Y-97467081D01*
X124698348Y-97410928D01*
X124578689Y-97391976D01*
X124518861Y-97382500D01*
X124337139Y-97382500D01*
X124277310Y-97391976D01*
X124157652Y-97410928D01*
X124157649Y-97410928D01*
X123984828Y-97467081D01*
X123984825Y-97467083D01*
X123822909Y-97549583D01*
X123739030Y-97610525D01*
X123675894Y-97656397D01*
X123675892Y-97656399D01*
X123675891Y-97656399D01*
X123547399Y-97784891D01*
X123547399Y-97784892D01*
X123547397Y-97784894D01*
X123532949Y-97804780D01*
X123440583Y-97931909D01*
X123358083Y-98093825D01*
X123358081Y-98093828D01*
X123301928Y-98266649D01*
X123301928Y-98266652D01*
X123280473Y-98402114D01*
X123250544Y-98465249D01*
X123191232Y-98502180D01*
X123121370Y-98501182D01*
X123063137Y-98462572D01*
X123035527Y-98402114D01*
X123023850Y-98328390D01*
X123014072Y-98266654D01*
X123014071Y-98266650D01*
X123014071Y-98266649D01*
X122957918Y-98093828D01*
X122957916Y-98093825D01*
X122939874Y-98058414D01*
X122875417Y-97931910D01*
X122768603Y-97784894D01*
X122640106Y-97656397D01*
X122493090Y-97549583D01*
X122331174Y-97467083D01*
X122331171Y-97467081D01*
X122158348Y-97410928D01*
X122038689Y-97391976D01*
X121978861Y-97382500D01*
X121797139Y-97382500D01*
X121737310Y-97391976D01*
X121617652Y-97410928D01*
X121617649Y-97410928D01*
X121444828Y-97467081D01*
X121444825Y-97467083D01*
X121282909Y-97549583D01*
X121199030Y-97610525D01*
X121135894Y-97656397D01*
X121135892Y-97656399D01*
X121135891Y-97656399D01*
X121007399Y-97784891D01*
X121007399Y-97784892D01*
X121007397Y-97784894D01*
X120992949Y-97804780D01*
X120900583Y-97931909D01*
X120818083Y-98093825D01*
X120818081Y-98093828D01*
X120761928Y-98266649D01*
X120761928Y-98266652D01*
X120740473Y-98402114D01*
X120710544Y-98465249D01*
X120651232Y-98502180D01*
X120581370Y-98501182D01*
X120523137Y-98462572D01*
X120495527Y-98402114D01*
X120483850Y-98328390D01*
X120474072Y-98266654D01*
X120474071Y-98266650D01*
X120474071Y-98266649D01*
X120417918Y-98093828D01*
X120417916Y-98093825D01*
X120399874Y-98058414D01*
X120335417Y-97931910D01*
X120228603Y-97784894D01*
X120100106Y-97656397D01*
X119953090Y-97549583D01*
X119791174Y-97467083D01*
X119791171Y-97467081D01*
X119618348Y-97410928D01*
X119498689Y-97391976D01*
X119438861Y-97382500D01*
X119257139Y-97382500D01*
X119197310Y-97391976D01*
X119077652Y-97410928D01*
X119077649Y-97410928D01*
X118904828Y-97467081D01*
X118904825Y-97467083D01*
X118742909Y-97549583D01*
X118659030Y-97610525D01*
X118595894Y-97656397D01*
X118595892Y-97656399D01*
X118595891Y-97656399D01*
X118467399Y-97784891D01*
X118467399Y-97784892D01*
X118467397Y-97784894D01*
X118452949Y-97804780D01*
X118360583Y-97931909D01*
X118278083Y-98093825D01*
X118278081Y-98093828D01*
X118221928Y-98266649D01*
X118221928Y-98266652D01*
X118200473Y-98402114D01*
X118170544Y-98465249D01*
X118111232Y-98502180D01*
X118041370Y-98501182D01*
X117983137Y-98462572D01*
X117955527Y-98402114D01*
X117943850Y-98328390D01*
X117934072Y-98266654D01*
X117934071Y-98266650D01*
X117934071Y-98266649D01*
X117877918Y-98093828D01*
X117877916Y-98093825D01*
X117859874Y-98058414D01*
X117795417Y-97931910D01*
X117688603Y-97784894D01*
X117560106Y-97656397D01*
X117459613Y-97583384D01*
X117416949Y-97528054D01*
X117408500Y-97483067D01*
X117408500Y-81556932D01*
X117428185Y-81489893D01*
X117459613Y-81456615D01*
X117560106Y-81383603D01*
X117688603Y-81255106D01*
X117795417Y-81108090D01*
X117877917Y-80946174D01*
X117903087Y-80868709D01*
X117934071Y-80773350D01*
X117934071Y-80773349D01*
X117934072Y-80773346D01*
X117955527Y-80637884D01*
X117985456Y-80574750D01*
X118044768Y-80537819D01*
X118114630Y-80538817D01*
X118172863Y-80577427D01*
X118200472Y-80637884D01*
X118209527Y-80695052D01*
X118221928Y-80773347D01*
X118221928Y-80773350D01*
X118278081Y-80946171D01*
X118278083Y-80946174D01*
X118360583Y-81108090D01*
X118467397Y-81255106D01*
X118595894Y-81383603D01*
X118742910Y-81490417D01*
X118904826Y-81572917D01*
X118904828Y-81572918D01*
X118990629Y-81600796D01*
X119077654Y-81629072D01*
X119257139Y-81657500D01*
X119257140Y-81657500D01*
X119438860Y-81657500D01*
X119438861Y-81657500D01*
X119618346Y-81629072D01*
X119618349Y-81629071D01*
X119618350Y-81629071D01*
X119791171Y-81572918D01*
X119791171Y-81572917D01*
X119791174Y-81572917D01*
X119953090Y-81490417D01*
X120100106Y-81383603D01*
X120228603Y-81255106D01*
X120335417Y-81108090D01*
X120417917Y-80946174D01*
X120443087Y-80868709D01*
X120474071Y-80773350D01*
X120474071Y-80773349D01*
X120474072Y-80773346D01*
X120495527Y-80637884D01*
X120525456Y-80574750D01*
X120584768Y-80537819D01*
X120654630Y-80538817D01*
X120712863Y-80577427D01*
X120740472Y-80637884D01*
X120749527Y-80695052D01*
X120761928Y-80773347D01*
X120761928Y-80773350D01*
X120818081Y-80946171D01*
X120818083Y-80946174D01*
X120900583Y-81108090D01*
X121007397Y-81255106D01*
X121135894Y-81383603D01*
X121282910Y-81490417D01*
X121444826Y-81572917D01*
X121444828Y-81572918D01*
X121530629Y-81600796D01*
X121617654Y-81629072D01*
X121797139Y-81657500D01*
X121797140Y-81657500D01*
X121978860Y-81657500D01*
X121978861Y-81657500D01*
X122158346Y-81629072D01*
X122158349Y-81629071D01*
X122158350Y-81629071D01*
X122331171Y-81572918D01*
X122331171Y-81572917D01*
X122331174Y-81572917D01*
X122493090Y-81490417D01*
X122640106Y-81383603D01*
X122768603Y-81255106D01*
X122875417Y-81108090D01*
X122957917Y-80946174D01*
X122983087Y-80868709D01*
X123014071Y-80773350D01*
X123014071Y-80773349D01*
X123014072Y-80773346D01*
X123035527Y-80637884D01*
X123065456Y-80574750D01*
X123124768Y-80537819D01*
X123194630Y-80538817D01*
X123252863Y-80577427D01*
X123280472Y-80637884D01*
X123289527Y-80695052D01*
X123301928Y-80773347D01*
X123301928Y-80773350D01*
X123358081Y-80946171D01*
X123358083Y-80946174D01*
X123440583Y-81108090D01*
X123547397Y-81255106D01*
X123675894Y-81383603D01*
X123822910Y-81490417D01*
X123984826Y-81572917D01*
X123984828Y-81572918D01*
X124070629Y-81600796D01*
X124157654Y-81629072D01*
X124337139Y-81657500D01*
X124337140Y-81657500D01*
X124518860Y-81657500D01*
X124518861Y-81657500D01*
X124698346Y-81629072D01*
X124698349Y-81629071D01*
X124698350Y-81629071D01*
X124871171Y-81572918D01*
X124871171Y-81572917D01*
X124871174Y-81572917D01*
X125033090Y-81490417D01*
X125180106Y-81383603D01*
X125308603Y-81255106D01*
X125415417Y-81108090D01*
X125497917Y-80946174D01*
X125523087Y-80868709D01*
X125554071Y-80773350D01*
X125554071Y-80773349D01*
X125554072Y-80773346D01*
X125575527Y-80637884D01*
X125605456Y-80574750D01*
X125664768Y-80537819D01*
X125734630Y-80538817D01*
X125792863Y-80577427D01*
X125820472Y-80637884D01*
X125829527Y-80695052D01*
X125841928Y-80773347D01*
X125841928Y-80773350D01*
X125898081Y-80946171D01*
X125898083Y-80946174D01*
X125980583Y-81108090D01*
X126087397Y-81255106D01*
X126215894Y-81383603D01*
X126362910Y-81490417D01*
X126524826Y-81572917D01*
X126524828Y-81572918D01*
X126610629Y-81600796D01*
X126697654Y-81629072D01*
X126877139Y-81657500D01*
X126877140Y-81657500D01*
X127058860Y-81657500D01*
X127058861Y-81657500D01*
X127238346Y-81629072D01*
X127238349Y-81629071D01*
X127238350Y-81629071D01*
X127411171Y-81572918D01*
X127411171Y-81572917D01*
X127411174Y-81572917D01*
X127573090Y-81490417D01*
X127720106Y-81383603D01*
X127848603Y-81255106D01*
X127955417Y-81108090D01*
X128037917Y-80946174D01*
X128063087Y-80868709D01*
X128094071Y-80773350D01*
X128094071Y-80773349D01*
X128094072Y-80773346D01*
X128115527Y-80637884D01*
X128145456Y-80574750D01*
X128204768Y-80537819D01*
X128274630Y-80538817D01*
X128332863Y-80577427D01*
X128360472Y-80637884D01*
X128369527Y-80695052D01*
X128381928Y-80773347D01*
X128381928Y-80773350D01*
X128438081Y-80946171D01*
X128438083Y-80946174D01*
X128520583Y-81108090D01*
X128627397Y-81255106D01*
X128755894Y-81383603D01*
X128902910Y-81490417D01*
X129064826Y-81572917D01*
X129064828Y-81572918D01*
X129150629Y-81600796D01*
X129237654Y-81629072D01*
X129417139Y-81657500D01*
X129417140Y-81657500D01*
X129598860Y-81657500D01*
X129598861Y-81657500D01*
X129778346Y-81629072D01*
X129778349Y-81629071D01*
X129778350Y-81629071D01*
X129951171Y-81572918D01*
X129951171Y-81572917D01*
X129951174Y-81572917D01*
X130113090Y-81490417D01*
X130260106Y-81383603D01*
X130388603Y-81255106D01*
X130495417Y-81108090D01*
X130577917Y-80946174D01*
X130634072Y-80773346D01*
X130647028Y-80691544D01*
X130676956Y-80628414D01*
X130736267Y-80591482D01*
X130806129Y-80592480D01*
X130864362Y-80631089D01*
X130892477Y-80695052D01*
X130893500Y-80710946D01*
X130893500Y-81204870D01*
X130893501Y-81204876D01*
X130899908Y-81264483D01*
X130950202Y-81399328D01*
X130950206Y-81399335D01*
X131036452Y-81514544D01*
X131036455Y-81514547D01*
X131151664Y-81600793D01*
X131151671Y-81600797D01*
X131286517Y-81651091D01*
X131286516Y-81651091D01*
X131293444Y-81651835D01*
X131346127Y-81657500D01*
X132749872Y-81657499D01*
X132809483Y-81651091D01*
X132944331Y-81600796D01*
X133059546Y-81514546D01*
X133145796Y-81399331D01*
X133196091Y-81264483D01*
X133202500Y-81204873D01*
X133202499Y-79801128D01*
X133196091Y-79741517D01*
X133185251Y-79712454D01*
X133145797Y-79606671D01*
X133145793Y-79606664D01*
X133059547Y-79491455D01*
X133059544Y-79491452D01*
X132944335Y-79405206D01*
X132944328Y-79405202D01*
X132809482Y-79354908D01*
X132809483Y-79354908D01*
X132749883Y-79348501D01*
X132749881Y-79348500D01*
X132749873Y-79348500D01*
X132749864Y-79348500D01*
X131346129Y-79348500D01*
X131346123Y-79348501D01*
X131286516Y-79354908D01*
X131151671Y-79405202D01*
X131151664Y-79405206D01*
X131036455Y-79491452D01*
X131036452Y-79491455D01*
X130950206Y-79606664D01*
X130950202Y-79606671D01*
X130899908Y-79741517D01*
X130896255Y-79775500D01*
X130893501Y-79801123D01*
X130893500Y-79801135D01*
X130893500Y-80295051D01*
X130873815Y-80362090D01*
X130821011Y-80407845D01*
X130751853Y-80417789D01*
X130688297Y-80388764D01*
X130650523Y-80329986D01*
X130647027Y-80314449D01*
X130643955Y-80295051D01*
X130634072Y-80232654D01*
X130634071Y-80232650D01*
X130634071Y-80232649D01*
X130577918Y-80059828D01*
X130577916Y-80059825D01*
X130558713Y-80022135D01*
X130495417Y-79897910D01*
X130388603Y-79750894D01*
X130260106Y-79622397D01*
X130113090Y-79515583D01*
X130065730Y-79491452D01*
X129951171Y-79433081D01*
X129876182Y-79408716D01*
X129818506Y-79369279D01*
X129791308Y-79304920D01*
X129790500Y-79290785D01*
X129790500Y-75229601D01*
X129810185Y-75162562D01*
X129858206Y-75119116D01*
X129871610Y-75112287D01*
X130037219Y-74991966D01*
X130181966Y-74847219D01*
X130181968Y-74847215D01*
X130181971Y-74847213D01*
X130283247Y-74707816D01*
X130302287Y-74681610D01*
X130395220Y-74499219D01*
X130458477Y-74304534D01*
X130490500Y-74102352D01*
X130490500Y-73897648D01*
X130458477Y-73695466D01*
X130454673Y-73683760D01*
X130395218Y-73500776D01*
X130361503Y-73434607D01*
X130302287Y-73318390D01*
X130294556Y-73307749D01*
X130181971Y-73152786D01*
X130037213Y-73008028D01*
X129871613Y-72887715D01*
X129871612Y-72887714D01*
X129871610Y-72887713D01*
X129787681Y-72844949D01*
X129689223Y-72794781D01*
X129494534Y-72731522D01*
X129319995Y-72703878D01*
X129292352Y-72699500D01*
X129087648Y-72699500D01*
X129063329Y-72703351D01*
X128885465Y-72731522D01*
X128690776Y-72794781D01*
X128508386Y-72887715D01*
X128342786Y-73008028D01*
X128198028Y-73152786D01*
X128077715Y-73318386D01*
X127984781Y-73500776D01*
X127921522Y-73695465D01*
X127889500Y-73897648D01*
X127889500Y-74102351D01*
X127921522Y-74304534D01*
X127984781Y-74499223D01*
X128077715Y-74681613D01*
X128198028Y-74847213D01*
X128198034Y-74847219D01*
X128342781Y-74991966D01*
X128508390Y-75112287D01*
X128521793Y-75119116D01*
X128572589Y-75167088D01*
X128589500Y-75229601D01*
X128589500Y-79762764D01*
X128569815Y-79829803D01*
X128565824Y-79835640D01*
X128549540Y-79858053D01*
X128520583Y-79897909D01*
X128438083Y-80059825D01*
X128438081Y-80059828D01*
X128381928Y-80232649D01*
X128381928Y-80232652D01*
X128360473Y-80368114D01*
X128330544Y-80431249D01*
X128271232Y-80468180D01*
X128201370Y-80467182D01*
X128143137Y-80428572D01*
X128115527Y-80368114D01*
X128107027Y-80314449D01*
X128094072Y-80232654D01*
X128094071Y-80232650D01*
X128094071Y-80232649D01*
X128037918Y-80059828D01*
X128037916Y-80059825D01*
X128018713Y-80022135D01*
X127955417Y-79897910D01*
X127848603Y-79750894D01*
X127720106Y-79622397D01*
X127619613Y-79549384D01*
X127576949Y-79494054D01*
X127568500Y-79449067D01*
X127568500Y-72224500D01*
X127588185Y-72157461D01*
X127640989Y-72111706D01*
X127692500Y-72100500D01*
X138775500Y-72100500D01*
X138842539Y-72120185D01*
X138888294Y-72172989D01*
X138899500Y-72224500D01*
X138899500Y-110913330D01*
X138899499Y-110913348D01*
X138899499Y-111079054D01*
X138899498Y-111079054D01*
X138940423Y-111231785D01*
X138969358Y-111281900D01*
X138969359Y-111281904D01*
X138969360Y-111281904D01*
X139019479Y-111368714D01*
X139019481Y-111368717D01*
X139138349Y-111487585D01*
X139138355Y-111487590D01*
X142265139Y-114614374D01*
X142265149Y-114614385D01*
X142269479Y-114618715D01*
X142269480Y-114618716D01*
X142381284Y-114730520D01*
X142468095Y-114780639D01*
X142468097Y-114780641D01*
X142506151Y-114802611D01*
X142518215Y-114809577D01*
X142670943Y-114850500D01*
X142829057Y-114850500D01*
X158170398Y-114850500D01*
X158237437Y-114870185D01*
X158280883Y-114918205D01*
X158287715Y-114931614D01*
X158408028Y-115097213D01*
X158552786Y-115241971D01*
X158707749Y-115354556D01*
X158718390Y-115362287D01*
X158809840Y-115408883D01*
X158811080Y-115409515D01*
X158861876Y-115457490D01*
X158878671Y-115525311D01*
X158856134Y-115591446D01*
X158811080Y-115630485D01*
X158718386Y-115677715D01*
X158552786Y-115798028D01*
X158408028Y-115942786D01*
X158287715Y-116108385D01*
X158280883Y-116121795D01*
X158232909Y-116172591D01*
X158170398Y-116189500D01*
X140090097Y-116189500D01*
X140023058Y-116169815D01*
X140002416Y-116153181D01*
X137446819Y-113597584D01*
X137413334Y-113536261D01*
X137410500Y-113509903D01*
X137410500Y-75229601D01*
X137430185Y-75162562D01*
X137478206Y-75119116D01*
X137491610Y-75112287D01*
X137657219Y-74991966D01*
X137801966Y-74847219D01*
X137801968Y-74847215D01*
X137801971Y-74847213D01*
X137903247Y-74707816D01*
X137922287Y-74681610D01*
X138015220Y-74499219D01*
X138078477Y-74304534D01*
X138110500Y-74102352D01*
X138110500Y-73897648D01*
X138078477Y-73695466D01*
X138074673Y-73683760D01*
X138015218Y-73500776D01*
X137981503Y-73434607D01*
X137922287Y-73318390D01*
X137914556Y-73307749D01*
X137801971Y-73152786D01*
X137657213Y-73008028D01*
X137491613Y-72887715D01*
X137491612Y-72887714D01*
X137491610Y-72887713D01*
X137407681Y-72844949D01*
X137309223Y-72794781D01*
X137114534Y-72731522D01*
X136939995Y-72703878D01*
X136912352Y-72699500D01*
X136707648Y-72699500D01*
X136683329Y-72703351D01*
X136505465Y-72731522D01*
X136310776Y-72794781D01*
X136128386Y-72887715D01*
X135962786Y-73008028D01*
X135818028Y-73152786D01*
X135697715Y-73318386D01*
X135604781Y-73500776D01*
X135541522Y-73695465D01*
X135509500Y-73897648D01*
X135509500Y-74102351D01*
X135541522Y-74304534D01*
X135604781Y-74499223D01*
X135697715Y-74681613D01*
X135818028Y-74847213D01*
X135818034Y-74847219D01*
X135962781Y-74991966D01*
X136128390Y-75112287D01*
X136141793Y-75119116D01*
X136192589Y-75167088D01*
X136209500Y-75229601D01*
X136209500Y-113723330D01*
X136209499Y-113723348D01*
X136209499Y-113889054D01*
X136209498Y-113889054D01*
X136250423Y-114041785D01*
X136279358Y-114091900D01*
X136279359Y-114091904D01*
X136279360Y-114091904D01*
X136329479Y-114178714D01*
X136329481Y-114178717D01*
X136448349Y-114297585D01*
X136448355Y-114297590D01*
X139305139Y-117154374D01*
X139305149Y-117154385D01*
X139309479Y-117158715D01*
X139309480Y-117158716D01*
X139421284Y-117270520D01*
X139421286Y-117270521D01*
X139421290Y-117270524D01*
X139558209Y-117349573D01*
X139558216Y-117349577D01*
X139670019Y-117379534D01*
X139710942Y-117390500D01*
X139710943Y-117390500D01*
X158170398Y-117390500D01*
X158237437Y-117410185D01*
X158280883Y-117458205D01*
X158287715Y-117471614D01*
X158408028Y-117637213D01*
X158552786Y-117781971D01*
X158707749Y-117894556D01*
X158718390Y-117902287D01*
X158809840Y-117948883D01*
X158811080Y-117949515D01*
X158861876Y-117997490D01*
X158878671Y-118065311D01*
X158856134Y-118131446D01*
X158811080Y-118170485D01*
X158718386Y-118217715D01*
X158552786Y-118338028D01*
X158408028Y-118482786D01*
X158287715Y-118648386D01*
X158194781Y-118830776D01*
X158131522Y-119025465D01*
X158099500Y-119227648D01*
X158099500Y-119432351D01*
X158131522Y-119634534D01*
X158194781Y-119829223D01*
X158287715Y-120011613D01*
X158408028Y-120177213D01*
X158552786Y-120321971D01*
X158701327Y-120429890D01*
X158718390Y-120442287D01*
X158834607Y-120501503D01*
X158900776Y-120535218D01*
X158900778Y-120535218D01*
X158900781Y-120535220D01*
X159005137Y-120569127D01*
X159095465Y-120598477D01*
X159196557Y-120614488D01*
X159297648Y-120630500D01*
X159297649Y-120630500D01*
X159502351Y-120630500D01*
X159502352Y-120630500D01*
X159704534Y-120598477D01*
X159899219Y-120535220D01*
X160081610Y-120442287D01*
X160174590Y-120374732D01*
X160247213Y-120321971D01*
X160247215Y-120321968D01*
X160247219Y-120321966D01*
X160391966Y-120177219D01*
X160391968Y-120177215D01*
X160391971Y-120177213D01*
X160444732Y-120104590D01*
X160512287Y-120011610D01*
X160605220Y-119829219D01*
X160668477Y-119634534D01*
X160700500Y-119432352D01*
X160700500Y-119227648D01*
X160668477Y-119025466D01*
X160605220Y-118830781D01*
X160605218Y-118830778D01*
X160605218Y-118830776D01*
X160571503Y-118764607D01*
X160512287Y-118648390D01*
X160504556Y-118637749D01*
X160391971Y-118482786D01*
X160247213Y-118338028D01*
X160081614Y-118217715D01*
X160075006Y-118214348D01*
X159988917Y-118170483D01*
X159938123Y-118122511D01*
X159921328Y-118054690D01*
X159943865Y-117988555D01*
X159988917Y-117949516D01*
X160081610Y-117902287D01*
X160102770Y-117886913D01*
X160247213Y-117781971D01*
X160247215Y-117781968D01*
X160247219Y-117781966D01*
X160391966Y-117637219D01*
X160391968Y-117637215D01*
X160391971Y-117637213D01*
X160444732Y-117564590D01*
X160512287Y-117471610D01*
X160605220Y-117289219D01*
X160668477Y-117094534D01*
X160700500Y-116892352D01*
X160700500Y-116687648D01*
X160668477Y-116485466D01*
X160605220Y-116290781D01*
X160605218Y-116290778D01*
X160605218Y-116290776D01*
X160571503Y-116224607D01*
X160512287Y-116108390D01*
X160504556Y-116097749D01*
X160391971Y-115942786D01*
X160247213Y-115798028D01*
X160081614Y-115677715D01*
X160075006Y-115674348D01*
X159988917Y-115630483D01*
X159938123Y-115582511D01*
X159921328Y-115514690D01*
X159943865Y-115448555D01*
X159988917Y-115409516D01*
X160081610Y-115362287D01*
X160102770Y-115346913D01*
X160247213Y-115241971D01*
X160247215Y-115241968D01*
X160247219Y-115241966D01*
X160391966Y-115097219D01*
X160391968Y-115097215D01*
X160391971Y-115097213D01*
X160444732Y-115024590D01*
X160512287Y-114931610D01*
X160605220Y-114749219D01*
X160668477Y-114554534D01*
X160700500Y-114352352D01*
X160700500Y-114147648D01*
X160668477Y-113945466D01*
X160605220Y-113750781D01*
X160605218Y-113750778D01*
X160605218Y-113750776D01*
X160571503Y-113684607D01*
X160512287Y-113568390D01*
X160469794Y-113509903D01*
X160391971Y-113402786D01*
X160247213Y-113258028D01*
X160081614Y-113137715D01*
X160075006Y-113134348D01*
X159988917Y-113090483D01*
X159938123Y-113042511D01*
X159921328Y-112974690D01*
X159943865Y-112908555D01*
X159988917Y-112869516D01*
X160081610Y-112822287D01*
X160102770Y-112806913D01*
X160247213Y-112701971D01*
X160247215Y-112701968D01*
X160247219Y-112701966D01*
X160391966Y-112557219D01*
X160391968Y-112557215D01*
X160391971Y-112557213D01*
X160444732Y-112484590D01*
X160512287Y-112391610D01*
X160605220Y-112209219D01*
X160668477Y-112014534D01*
X160700500Y-111812352D01*
X160700500Y-111607648D01*
X160668477Y-111405466D01*
X160605220Y-111210781D01*
X160605218Y-111210778D01*
X160605218Y-111210776D01*
X160538103Y-111079057D01*
X160512287Y-111028390D01*
X160504556Y-111017749D01*
X160391971Y-110862786D01*
X160247213Y-110718028D01*
X160081614Y-110597715D01*
X160075006Y-110594348D01*
X159988917Y-110550483D01*
X159938123Y-110502511D01*
X159921328Y-110434690D01*
X159943865Y-110368555D01*
X159988917Y-110329516D01*
X160081610Y-110282287D01*
X160102770Y-110266913D01*
X160247213Y-110161971D01*
X160247215Y-110161968D01*
X160247219Y-110161966D01*
X160391966Y-110017219D01*
X160391968Y-110017215D01*
X160391971Y-110017213D01*
X160444732Y-109944590D01*
X160512287Y-109851610D01*
X160605220Y-109669219D01*
X160668477Y-109474534D01*
X160700500Y-109272352D01*
X160700500Y-109067648D01*
X160668477Y-108865466D01*
X160605220Y-108670781D01*
X160605218Y-108670778D01*
X160605218Y-108670776D01*
X160571503Y-108604607D01*
X160512287Y-108488390D01*
X160504556Y-108477749D01*
X160391971Y-108322786D01*
X160247213Y-108178028D01*
X160081614Y-108057715D01*
X160075006Y-108054348D01*
X159988917Y-108010483D01*
X159938123Y-107962511D01*
X159921328Y-107894690D01*
X159943865Y-107828555D01*
X159988917Y-107789516D01*
X160081610Y-107742287D01*
X160102770Y-107726913D01*
X160247213Y-107621971D01*
X160247215Y-107621968D01*
X160247219Y-107621966D01*
X160391966Y-107477219D01*
X160391968Y-107477215D01*
X160391971Y-107477213D01*
X160444732Y-107404590D01*
X160512287Y-107311610D01*
X160605220Y-107129219D01*
X160668477Y-106934534D01*
X160700500Y-106732352D01*
X160700500Y-106527648D01*
X160668477Y-106325466D01*
X160605220Y-106130781D01*
X160605218Y-106130778D01*
X160605218Y-106130776D01*
X160558859Y-106039792D01*
X160512287Y-105948390D01*
X160475584Y-105897872D01*
X160391971Y-105782786D01*
X160247213Y-105638028D01*
X160081614Y-105517715D01*
X160075006Y-105514348D01*
X159988917Y-105470483D01*
X159938123Y-105422511D01*
X159921328Y-105354690D01*
X159943865Y-105288555D01*
X159988917Y-105249516D01*
X160081610Y-105202287D01*
X160213744Y-105106287D01*
X160247213Y-105081971D01*
X160247215Y-105081968D01*
X160247219Y-105081966D01*
X160391966Y-104937219D01*
X160391968Y-104937215D01*
X160391971Y-104937213D01*
X160459867Y-104843760D01*
X160512287Y-104771610D01*
X160605220Y-104589219D01*
X160668477Y-104394534D01*
X160700500Y-104192352D01*
X160700500Y-103987648D01*
X160669584Y-103792454D01*
X160668477Y-103785465D01*
X160635104Y-103682754D01*
X160605220Y-103590781D01*
X160605218Y-103590778D01*
X160605218Y-103590776D01*
X160558859Y-103499792D01*
X160512287Y-103408390D01*
X160504556Y-103397749D01*
X160391971Y-103242786D01*
X160247213Y-103098028D01*
X160081614Y-102977715D01*
X160075006Y-102974348D01*
X159988917Y-102930483D01*
X159938123Y-102882511D01*
X159921328Y-102814690D01*
X159943865Y-102748555D01*
X159988917Y-102709516D01*
X160081610Y-102662287D01*
X160102770Y-102646913D01*
X160247213Y-102541971D01*
X160247215Y-102541968D01*
X160247219Y-102541966D01*
X160391966Y-102397219D01*
X160391968Y-102397215D01*
X160391971Y-102397213D01*
X160459867Y-102303760D01*
X160512287Y-102231610D01*
X160605220Y-102049219D01*
X160668477Y-101854534D01*
X160700500Y-101652352D01*
X160700500Y-101447648D01*
X160696270Y-101420942D01*
X160668477Y-101245465D01*
X160605218Y-101050776D01*
X160558859Y-100959792D01*
X160512287Y-100868390D01*
X160465869Y-100804500D01*
X160391971Y-100702786D01*
X160247213Y-100558028D01*
X160081614Y-100437715D01*
X160075006Y-100434348D01*
X159988917Y-100390483D01*
X159938123Y-100342511D01*
X159921328Y-100274690D01*
X159943865Y-100208555D01*
X159988917Y-100169516D01*
X160081610Y-100122287D01*
X160127363Y-100089046D01*
X160247213Y-100001971D01*
X160247215Y-100001968D01*
X160247219Y-100001966D01*
X160391966Y-99857219D01*
X160391968Y-99857215D01*
X160391971Y-99857213D01*
X160459867Y-99763760D01*
X160512287Y-99691610D01*
X160605220Y-99509219D01*
X160668477Y-99314534D01*
X160700500Y-99112352D01*
X160700500Y-98907648D01*
X160684614Y-98807347D01*
X160668477Y-98705465D01*
X160605218Y-98510776D01*
X160558859Y-98419792D01*
X160512287Y-98328390D01*
X160467434Y-98266654D01*
X160391971Y-98162786D01*
X160247213Y-98018028D01*
X160081614Y-97897715D01*
X160075006Y-97894348D01*
X159988917Y-97850483D01*
X159938123Y-97802511D01*
X159921328Y-97734690D01*
X159943865Y-97668555D01*
X159988917Y-97629516D01*
X160081610Y-97582287D01*
X160224575Y-97478418D01*
X160247213Y-97461971D01*
X160247215Y-97461968D01*
X160247219Y-97461966D01*
X160391966Y-97317219D01*
X160391968Y-97317215D01*
X160391971Y-97317213D01*
X160459867Y-97223760D01*
X160512287Y-97151610D01*
X160605220Y-96969219D01*
X160668477Y-96774534D01*
X160700500Y-96572352D01*
X160700500Y-96367648D01*
X160677551Y-96222754D01*
X160668477Y-96165465D01*
X160611296Y-95989481D01*
X160605220Y-95970781D01*
X160605218Y-95970778D01*
X160605218Y-95970776D01*
X160571503Y-95904607D01*
X160512287Y-95788390D01*
X160492908Y-95761717D01*
X160391971Y-95622786D01*
X160247213Y-95478028D01*
X160081614Y-95357715D01*
X160075006Y-95354348D01*
X159988917Y-95310483D01*
X159938123Y-95262511D01*
X159921328Y-95194690D01*
X159943865Y-95128555D01*
X159988917Y-95089516D01*
X160081610Y-95042287D01*
X160139815Y-94999999D01*
X160247213Y-94921971D01*
X160247215Y-94921968D01*
X160247219Y-94921966D01*
X160391966Y-94777219D01*
X160391968Y-94777215D01*
X160391971Y-94777213D01*
X160486977Y-94646446D01*
X160512287Y-94611610D01*
X160605220Y-94429219D01*
X160668477Y-94234534D01*
X160700500Y-94032352D01*
X160700500Y-93827648D01*
X160668477Y-93625466D01*
X160605220Y-93430781D01*
X160605218Y-93430778D01*
X160605218Y-93430776D01*
X160568067Y-93357864D01*
X160512287Y-93248390D01*
X160504556Y-93237749D01*
X160391971Y-93082786D01*
X160247213Y-92938028D01*
X160081614Y-92817715D01*
X160075006Y-92814348D01*
X159988917Y-92770483D01*
X159938123Y-92722511D01*
X159921328Y-92654690D01*
X159943865Y-92588555D01*
X159988917Y-92549516D01*
X160081610Y-92502287D01*
X160102770Y-92486913D01*
X160247213Y-92381971D01*
X160247215Y-92381968D01*
X160247219Y-92381966D01*
X160391966Y-92237219D01*
X160391968Y-92237215D01*
X160391971Y-92237213D01*
X160444732Y-92164590D01*
X160512287Y-92071610D01*
X160605220Y-91889219D01*
X160668477Y-91694534D01*
X160700500Y-91492352D01*
X160700500Y-91287648D01*
X160668477Y-91085466D01*
X160605220Y-90890781D01*
X160605218Y-90890778D01*
X160605218Y-90890776D01*
X160571503Y-90824607D01*
X160512287Y-90708390D01*
X160481126Y-90665500D01*
X160391971Y-90542786D01*
X160247213Y-90398028D01*
X160081614Y-90277715D01*
X160075006Y-90274348D01*
X159988917Y-90230483D01*
X159938123Y-90182511D01*
X159921328Y-90114690D01*
X159943865Y-90048555D01*
X159988917Y-90009516D01*
X160081610Y-89962287D01*
X160102770Y-89946913D01*
X160247213Y-89841971D01*
X160247215Y-89841968D01*
X160247219Y-89841966D01*
X160391966Y-89697219D01*
X160391968Y-89697215D01*
X160391971Y-89697213D01*
X160484316Y-89570109D01*
X160512287Y-89531610D01*
X160605220Y-89349219D01*
X160668477Y-89154534D01*
X160700500Y-88952352D01*
X160700500Y-88747648D01*
X160668477Y-88545466D01*
X160605220Y-88350781D01*
X160605218Y-88350778D01*
X160605218Y-88350776D01*
X160540499Y-88223760D01*
X160512287Y-88168390D01*
X160504556Y-88157749D01*
X160391971Y-88002786D01*
X160247213Y-87858028D01*
X160081614Y-87737715D01*
X160059134Y-87726261D01*
X159988917Y-87690483D01*
X159938123Y-87642511D01*
X159921328Y-87574690D01*
X159943865Y-87508555D01*
X159988917Y-87469516D01*
X160081610Y-87422287D01*
X160114053Y-87398716D01*
X160247213Y-87301971D01*
X160247215Y-87301968D01*
X160247219Y-87301966D01*
X160391966Y-87157219D01*
X160391968Y-87157215D01*
X160391971Y-87157213D01*
X160484316Y-87030109D01*
X160512287Y-86991610D01*
X160605220Y-86809219D01*
X160668477Y-86614534D01*
X160700500Y-86412352D01*
X160700500Y-86207648D01*
X160684446Y-86106286D01*
X160668477Y-86005465D01*
X160605218Y-85810776D01*
X160540499Y-85683760D01*
X160512287Y-85628390D01*
X160504556Y-85617749D01*
X160391971Y-85462786D01*
X160247219Y-85318034D01*
X160210930Y-85291669D01*
X160168264Y-85236339D01*
X160162285Y-85166726D01*
X160194890Y-85104931D01*
X160255728Y-85070573D01*
X160270562Y-85068060D01*
X160307483Y-85064091D01*
X160442328Y-85013797D01*
X160442327Y-85013797D01*
X160442331Y-85013796D01*
X160557546Y-84927546D01*
X160643796Y-84812331D01*
X160694091Y-84677483D01*
X160700500Y-84617873D01*
X160700499Y-82922128D01*
X160694091Y-82862517D01*
X160652939Y-82752184D01*
X160643797Y-82727671D01*
X160643793Y-82727664D01*
X160557547Y-82612455D01*
X160557544Y-82612452D01*
X160442335Y-82526206D01*
X160442328Y-82526202D01*
X160307482Y-82475908D01*
X160307483Y-82475908D01*
X160247883Y-82469501D01*
X160247881Y-82469500D01*
X160247873Y-82469500D01*
X160247864Y-82469500D01*
X158552129Y-82469500D01*
X158552123Y-82469501D01*
X158492516Y-82475908D01*
X158357671Y-82526202D01*
X158357664Y-82526206D01*
X158242455Y-82612452D01*
X158242452Y-82612455D01*
X158156206Y-82727664D01*
X158156202Y-82727671D01*
X158105908Y-82862517D01*
X158099501Y-82922116D01*
X158099501Y-82922123D01*
X158099500Y-82922135D01*
X158099500Y-84617870D01*
X158099501Y-84617876D01*
X158105908Y-84677483D01*
X158156202Y-84812328D01*
X158156206Y-84812335D01*
X158242452Y-84927544D01*
X158242455Y-84927547D01*
X158357664Y-85013793D01*
X158357671Y-85013797D01*
X158402618Y-85030561D01*
X158492517Y-85064091D01*
X158529441Y-85068060D01*
X158593989Y-85094796D01*
X158633838Y-85152188D01*
X158636333Y-85222013D01*
X158600681Y-85282102D01*
X158589071Y-85291666D01*
X158552784Y-85318030D01*
X158408028Y-85462786D01*
X158287715Y-85628386D01*
X158194781Y-85810776D01*
X158131522Y-86005465D01*
X158099500Y-86207648D01*
X158099500Y-86412351D01*
X158131522Y-86614534D01*
X158194781Y-86809223D01*
X158287715Y-86991613D01*
X158408028Y-87157213D01*
X158552786Y-87301971D01*
X158685947Y-87398716D01*
X158718390Y-87422287D01*
X158809840Y-87468883D01*
X158811080Y-87469515D01*
X158861876Y-87517490D01*
X158878671Y-87585311D01*
X158856134Y-87651446D01*
X158811080Y-87690485D01*
X158718386Y-87737715D01*
X158552786Y-87858028D01*
X158408028Y-88002786D01*
X158287715Y-88168386D01*
X158194781Y-88350776D01*
X158131522Y-88545465D01*
X158099500Y-88747648D01*
X158099500Y-88952351D01*
X158131522Y-89154534D01*
X158194781Y-89349223D01*
X158287715Y-89531613D01*
X158408028Y-89697213D01*
X158552786Y-89841971D01*
X158707749Y-89954556D01*
X158718390Y-89962287D01*
X158809840Y-90008883D01*
X158811080Y-90009515D01*
X158861876Y-90057490D01*
X158878671Y-90125311D01*
X158856134Y-90191446D01*
X158811080Y-90230485D01*
X158718386Y-90277715D01*
X158552786Y-90398028D01*
X158408028Y-90542786D01*
X158287715Y-90708385D01*
X158280883Y-90721795D01*
X158232909Y-90772591D01*
X158170398Y-90789500D01*
X155224500Y-90789500D01*
X155157461Y-90769815D01*
X155111706Y-90717011D01*
X155100500Y-90665500D01*
X155100500Y-78800097D01*
X155120185Y-78733058D01*
X155136819Y-78712416D01*
X156712416Y-77136819D01*
X156773739Y-77103334D01*
X156800097Y-77100500D01*
X175579055Y-77100500D01*
X175579057Y-77100500D01*
X175731784Y-77059577D01*
X175868716Y-76980520D01*
X175980520Y-76868716D01*
X176059577Y-76731784D01*
X176100500Y-76579057D01*
X176100500Y-73300097D01*
X176120185Y-73233058D01*
X176136819Y-73212416D01*
X179212416Y-70136819D01*
X179273739Y-70103334D01*
X179300097Y-70100500D01*
X188199903Y-70100500D01*
X188229343Y-70109144D01*
X188259330Y-70115668D01*
X188264345Y-70119422D01*
X188266942Y-70120185D01*
X188287584Y-70136819D01*
X188363181Y-70212416D01*
X188396666Y-70273739D01*
X188399500Y-70300097D01*
X188399500Y-79775500D01*
X188379815Y-79842539D01*
X188327011Y-79888294D01*
X188275500Y-79899500D01*
X185974499Y-79899500D01*
X185907460Y-79879815D01*
X185861705Y-79827011D01*
X185850499Y-79775500D01*
X185850499Y-79602129D01*
X185850498Y-79602123D01*
X185850497Y-79602116D01*
X185844091Y-79542517D01*
X185834240Y-79516106D01*
X185793797Y-79407671D01*
X185793793Y-79407664D01*
X185707547Y-79292455D01*
X185707544Y-79292452D01*
X185592335Y-79206206D01*
X185592328Y-79206202D01*
X185457482Y-79155908D01*
X185457483Y-79155908D01*
X185397883Y-79149501D01*
X185397881Y-79149500D01*
X185397873Y-79149500D01*
X185397864Y-79149500D01*
X183602129Y-79149500D01*
X183602123Y-79149501D01*
X183542516Y-79155908D01*
X183407671Y-79206202D01*
X183407664Y-79206206D01*
X183292455Y-79292452D01*
X183292452Y-79292455D01*
X183206206Y-79407664D01*
X183206202Y-79407671D01*
X183155908Y-79542517D01*
X183149501Y-79602116D01*
X183149501Y-79602123D01*
X183149500Y-79602135D01*
X183149500Y-81397870D01*
X183149501Y-81397876D01*
X183155908Y-81457483D01*
X183206202Y-81592328D01*
X183206206Y-81592335D01*
X183292452Y-81707544D01*
X183292455Y-81707547D01*
X183407664Y-81793793D01*
X183407671Y-81793797D01*
X183542517Y-81844091D01*
X183542516Y-81844091D01*
X183549444Y-81844835D01*
X183602127Y-81850500D01*
X185397872Y-81850499D01*
X185457483Y-81844091D01*
X185592331Y-81793796D01*
X185707546Y-81707546D01*
X185793796Y-81592331D01*
X185844091Y-81457483D01*
X185850500Y-81397873D01*
X185850500Y-81224500D01*
X185870185Y-81157461D01*
X185922989Y-81111706D01*
X185974500Y-81100500D01*
X189079055Y-81100500D01*
X189079057Y-81100500D01*
X189231784Y-81059577D01*
X189368716Y-80980520D01*
X189480520Y-80868716D01*
X189559577Y-80731784D01*
X189600500Y-80579057D01*
X189600500Y-70089060D01*
X189600501Y-70089047D01*
X189600501Y-69920944D01*
X189559576Y-69768214D01*
X189559573Y-69768209D01*
X189480524Y-69631290D01*
X189480518Y-69631282D01*
X188868717Y-69019481D01*
X188868716Y-69019480D01*
X188781904Y-68969360D01*
X188781904Y-68969359D01*
X188781900Y-68969358D01*
X188731785Y-68940423D01*
X188579057Y-68899499D01*
X188420943Y-68899499D01*
X188413347Y-68899499D01*
X188413331Y-68899500D01*
X178920940Y-68899500D01*
X178880019Y-68910464D01*
X178880019Y-68910465D01*
X178842751Y-68920451D01*
X178768214Y-68940423D01*
X178768209Y-68940426D01*
X178631290Y-69019475D01*
X178631282Y-69019481D01*
X175019481Y-72631282D01*
X175019479Y-72631285D01*
X175008963Y-72649500D01*
X174989764Y-72682754D01*
X174940423Y-72768215D01*
X174899499Y-72920943D01*
X174899499Y-72920945D01*
X174899499Y-73089046D01*
X174899500Y-73089059D01*
X174899500Y-75775500D01*
X174879815Y-75842539D01*
X174827011Y-75888294D01*
X174775500Y-75899500D01*
X156579057Y-75899500D01*
X156420943Y-75899500D01*
X156268215Y-75940423D01*
X156268214Y-75940423D01*
X156268212Y-75940424D01*
X156268209Y-75940425D01*
X156218096Y-75969359D01*
X156218095Y-75969360D01*
X156174689Y-75994420D01*
X156131285Y-76019479D01*
X156131282Y-76019481D01*
X154019481Y-78131282D01*
X154019479Y-78131285D01*
X153969361Y-78218094D01*
X153969359Y-78218096D01*
X153940425Y-78268209D01*
X153940424Y-78268210D01*
X153940423Y-78268215D01*
X153899499Y-78420943D01*
X153899499Y-78420945D01*
X153899499Y-78589046D01*
X153899500Y-78589059D01*
X153899500Y-91413330D01*
X153899499Y-91413348D01*
X153899499Y-91579054D01*
X153899498Y-91579054D01*
X153902179Y-91589059D01*
X153940423Y-91731785D01*
X153955971Y-91758714D01*
X153955971Y-91758717D01*
X153955973Y-91758717D01*
X154019480Y-91868716D01*
X154131284Y-91980520D01*
X154198767Y-92019481D01*
X154268215Y-92059577D01*
X154420943Y-92100501D01*
X154420946Y-92100501D01*
X154579054Y-92100501D01*
X154579057Y-92100501D01*
X154731785Y-92059577D01*
X154801233Y-92019481D01*
X154822655Y-92007112D01*
X154884655Y-91990500D01*
X158170398Y-91990500D01*
X158237437Y-92010185D01*
X158280883Y-92058205D01*
X158287715Y-92071614D01*
X158408028Y-92237213D01*
X158552786Y-92381971D01*
X158707749Y-92494556D01*
X158718390Y-92502287D01*
X158809840Y-92548883D01*
X158811080Y-92549515D01*
X158861876Y-92597490D01*
X158878671Y-92665311D01*
X158856134Y-92731446D01*
X158811080Y-92770485D01*
X158718386Y-92817715D01*
X158552786Y-92938028D01*
X158408028Y-93082786D01*
X158287715Y-93248385D01*
X158280883Y-93261795D01*
X158232909Y-93312591D01*
X158170398Y-93329500D01*
X153230097Y-93329500D01*
X153163058Y-93309815D01*
X153142416Y-93293181D01*
X152136819Y-92287584D01*
X152103334Y-92226261D01*
X152100500Y-92199903D01*
X152100500Y-78800097D01*
X152120185Y-78733058D01*
X152136819Y-78712416D01*
X155712416Y-75136819D01*
X155773739Y-75103334D01*
X155800097Y-75100500D01*
X170913331Y-75100500D01*
X170913347Y-75100501D01*
X170920943Y-75100501D01*
X171079054Y-75100501D01*
X171079057Y-75100501D01*
X171231785Y-75059577D01*
X171282833Y-75030104D01*
X171368716Y-74980520D01*
X171480520Y-74868716D01*
X171480520Y-74868714D01*
X171490724Y-74858511D01*
X171490727Y-74858506D01*
X178712417Y-67636819D01*
X178773740Y-67603334D01*
X178800098Y-67600500D01*
X188199903Y-67600500D01*
X188266942Y-67620185D01*
X188287584Y-67636819D01*
X190863181Y-70212416D01*
X190896666Y-70273739D01*
X190899500Y-70300097D01*
X190899500Y-89699902D01*
X190879815Y-89766941D01*
X190863181Y-89787583D01*
X189519481Y-91131282D01*
X189519479Y-91131285D01*
X189469361Y-91218094D01*
X189469359Y-91218096D01*
X189440425Y-91268209D01*
X189440424Y-91268210D01*
X189440423Y-91268215D01*
X189399499Y-91420943D01*
X189399499Y-91420945D01*
X189399499Y-91589046D01*
X189399500Y-91589059D01*
X189399500Y-103199902D01*
X189379815Y-103266941D01*
X189363181Y-103287583D01*
X188127584Y-104523181D01*
X188066261Y-104556666D01*
X188039903Y-104559500D01*
X186285719Y-104559500D01*
X186218680Y-104539815D01*
X186175235Y-104491795D01*
X186155052Y-104452185D01*
X186155051Y-104452184D01*
X186030109Y-104280213D01*
X185879786Y-104129890D01*
X185707820Y-104004951D01*
X185707115Y-104004591D01*
X185699054Y-104000485D01*
X185648259Y-103952512D01*
X185631463Y-103884692D01*
X185653999Y-103818556D01*
X185699054Y-103779515D01*
X185707816Y-103775051D01*
X185767367Y-103731785D01*
X185879786Y-103650109D01*
X185879788Y-103650106D01*
X185879792Y-103650104D01*
X186030104Y-103499792D01*
X186030106Y-103499788D01*
X186030109Y-103499786D01*
X186155048Y-103327820D01*
X186155047Y-103327820D01*
X186155051Y-103327816D01*
X186251557Y-103138412D01*
X186317246Y-102936243D01*
X186350500Y-102726287D01*
X186350500Y-102513713D01*
X186317246Y-102303757D01*
X186251557Y-102101588D01*
X186155051Y-101912184D01*
X186155049Y-101912181D01*
X186155048Y-101912179D01*
X186030109Y-101740213D01*
X185879786Y-101589890D01*
X185707820Y-101464951D01*
X185707115Y-101464591D01*
X185699054Y-101460485D01*
X185648259Y-101412512D01*
X185631463Y-101344692D01*
X185653999Y-101278556D01*
X185699054Y-101239515D01*
X185707816Y-101235051D01*
X185753214Y-101202068D01*
X185879786Y-101110109D01*
X185879788Y-101110106D01*
X185879792Y-101110104D01*
X186030104Y-100959792D01*
X186030106Y-100959788D01*
X186030109Y-100959786D01*
X186155048Y-100787820D01*
X186155047Y-100787820D01*
X186155051Y-100787816D01*
X186251557Y-100598412D01*
X186317246Y-100396243D01*
X186350500Y-100186287D01*
X186350500Y-99973713D01*
X186317246Y-99763757D01*
X186251557Y-99561588D01*
X186155051Y-99372184D01*
X186155049Y-99372181D01*
X186155048Y-99372179D01*
X186030109Y-99200213D01*
X185879786Y-99049890D01*
X185707820Y-98924951D01*
X185707115Y-98924591D01*
X185699054Y-98920485D01*
X185648259Y-98872512D01*
X185631463Y-98804692D01*
X185653999Y-98738556D01*
X185699054Y-98699515D01*
X185707816Y-98695051D01*
X185729789Y-98679086D01*
X185879786Y-98570109D01*
X185879788Y-98570106D01*
X185879792Y-98570104D01*
X186030104Y-98419792D01*
X186030106Y-98419788D01*
X186030109Y-98419786D01*
X186155048Y-98247820D01*
X186155047Y-98247820D01*
X186155051Y-98247816D01*
X186251557Y-98058412D01*
X186317246Y-97856243D01*
X186350500Y-97646287D01*
X186350500Y-97433713D01*
X186317246Y-97223757D01*
X186251557Y-97021588D01*
X186155051Y-96832184D01*
X186155049Y-96832181D01*
X186155048Y-96832179D01*
X186030109Y-96660213D01*
X185879786Y-96509890D01*
X185707817Y-96384949D01*
X185698504Y-96380204D01*
X185647707Y-96332230D01*
X185630912Y-96264409D01*
X185653449Y-96198274D01*
X185698507Y-96159232D01*
X185707555Y-96154622D01*
X185761716Y-96115270D01*
X185761717Y-96115270D01*
X185129408Y-95482962D01*
X185192993Y-95465925D01*
X185307007Y-95400099D01*
X185400099Y-95307007D01*
X185465925Y-95192993D01*
X185482962Y-95129408D01*
X186115270Y-95761717D01*
X186115270Y-95761716D01*
X186154622Y-95707554D01*
X186251095Y-95518217D01*
X186316757Y-95316130D01*
X186316757Y-95316127D01*
X186350000Y-95106246D01*
X186350000Y-94893753D01*
X186316757Y-94683872D01*
X186316757Y-94683869D01*
X186251095Y-94481782D01*
X186154624Y-94292449D01*
X186115270Y-94238282D01*
X186115269Y-94238282D01*
X185482962Y-94870590D01*
X185465925Y-94807007D01*
X185400099Y-94692993D01*
X185307007Y-94599901D01*
X185192993Y-94534075D01*
X185129409Y-94517037D01*
X185799627Y-93846818D01*
X185860950Y-93813333D01*
X185887307Y-93810499D01*
X185897872Y-93810499D01*
X185957483Y-93804091D01*
X186092331Y-93753796D01*
X186207546Y-93667546D01*
X186293796Y-93552331D01*
X186344091Y-93417483D01*
X186350500Y-93357873D01*
X186350499Y-91562128D01*
X186344091Y-91502517D01*
X186340299Y-91492351D01*
X186293797Y-91367671D01*
X186293793Y-91367664D01*
X186207547Y-91252455D01*
X186207544Y-91252452D01*
X186092335Y-91166206D01*
X186092328Y-91166202D01*
X185957482Y-91115908D01*
X185957483Y-91115908D01*
X185897883Y-91109501D01*
X185897881Y-91109500D01*
X185897873Y-91109500D01*
X185897864Y-91109500D01*
X184102129Y-91109500D01*
X184102123Y-91109501D01*
X184042516Y-91115908D01*
X183907671Y-91166202D01*
X183907664Y-91166206D01*
X183792455Y-91252452D01*
X183792452Y-91252455D01*
X183706206Y-91367664D01*
X183706202Y-91367671D01*
X183655908Y-91502517D01*
X183649501Y-91562116D01*
X183649501Y-91562123D01*
X183649500Y-91562135D01*
X183649500Y-93357870D01*
X183649501Y-93357876D01*
X183655908Y-93417483D01*
X183706202Y-93552328D01*
X183706206Y-93552335D01*
X183792452Y-93667544D01*
X183792455Y-93667547D01*
X183907664Y-93753793D01*
X183907671Y-93753797D01*
X183952618Y-93770561D01*
X184042517Y-93804091D01*
X184102127Y-93810500D01*
X184112685Y-93810499D01*
X184179723Y-93830179D01*
X184200372Y-93846818D01*
X184870591Y-94517037D01*
X184807007Y-94534075D01*
X184692993Y-94599901D01*
X184599901Y-94692993D01*
X184534075Y-94807007D01*
X184517037Y-94870590D01*
X183884728Y-94238282D01*
X183884727Y-94238282D01*
X183845380Y-94292439D01*
X183748904Y-94481782D01*
X183683242Y-94683869D01*
X183683242Y-94683872D01*
X183650000Y-94893753D01*
X183650000Y-95106246D01*
X183683242Y-95316127D01*
X183683242Y-95316130D01*
X183748904Y-95518217D01*
X183845375Y-95707550D01*
X183884728Y-95761716D01*
X184517037Y-95129408D01*
X184534075Y-95192993D01*
X184599901Y-95307007D01*
X184692993Y-95400099D01*
X184807007Y-95465925D01*
X184870590Y-95482962D01*
X184238282Y-96115269D01*
X184238282Y-96115270D01*
X184292452Y-96154626D01*
X184292451Y-96154626D01*
X184301495Y-96159234D01*
X184352292Y-96207208D01*
X184369087Y-96275029D01*
X184346550Y-96341164D01*
X184301499Y-96380202D01*
X184292182Y-96384949D01*
X184120213Y-96509890D01*
X183969890Y-96660213D01*
X183844951Y-96832179D01*
X183748444Y-97021585D01*
X183682753Y-97223760D01*
X183677996Y-97253796D01*
X183649500Y-97433713D01*
X183649500Y-97646287D01*
X183651102Y-97656399D01*
X183674243Y-97802511D01*
X183682754Y-97856243D01*
X183735323Y-98018034D01*
X183748444Y-98058414D01*
X183844951Y-98247820D01*
X183969890Y-98419786D01*
X184120213Y-98570109D01*
X184292182Y-98695050D01*
X184300946Y-98699516D01*
X184351742Y-98747491D01*
X184368536Y-98815312D01*
X184345998Y-98881447D01*
X184300946Y-98920484D01*
X184292182Y-98924949D01*
X184120213Y-99049890D01*
X183969890Y-99200213D01*
X183844948Y-99372184D01*
X183844947Y-99372185D01*
X183824765Y-99411795D01*
X183776791Y-99462591D01*
X183714281Y-99479500D01*
X179332694Y-99479500D01*
X179317209Y-99475351D01*
X179303470Y-99476007D01*
X179270703Y-99462892D01*
X179269253Y-99462055D01*
X179269245Y-99462051D01*
X179231783Y-99440422D01*
X179175881Y-99425443D01*
X179079057Y-99399499D01*
X178920943Y-99399499D01*
X178853379Y-99417603D01*
X178768216Y-99440422D01*
X178730753Y-99462052D01*
X178730752Y-99462051D01*
X178631287Y-99519477D01*
X178631282Y-99519481D01*
X178519481Y-99631282D01*
X178519479Y-99631285D01*
X178484716Y-99691498D01*
X178484715Y-99691500D01*
X178440423Y-99768214D01*
X178438521Y-99775312D01*
X178399499Y-99920943D01*
X178399499Y-99920945D01*
X178399499Y-100089046D01*
X178399500Y-100089059D01*
X178399500Y-100825500D01*
X178379815Y-100892539D01*
X178327011Y-100938294D01*
X178275500Y-100949500D01*
X175869602Y-100949500D01*
X175802563Y-100929815D01*
X175759117Y-100881795D01*
X175752284Y-100868385D01*
X175631971Y-100702786D01*
X175487213Y-100558028D01*
X175321614Y-100437715D01*
X175315006Y-100434348D01*
X175228917Y-100390483D01*
X175178123Y-100342511D01*
X175161328Y-100274690D01*
X175183865Y-100208555D01*
X175228917Y-100169516D01*
X175321610Y-100122287D01*
X175367363Y-100089046D01*
X175487213Y-100001971D01*
X175487215Y-100001968D01*
X175487219Y-100001966D01*
X175631966Y-99857219D01*
X175631968Y-99857215D01*
X175631971Y-99857213D01*
X175699867Y-99763760D01*
X175752287Y-99691610D01*
X175845220Y-99509219D01*
X175908477Y-99314534D01*
X175940500Y-99112352D01*
X175940500Y-98907648D01*
X175924614Y-98807347D01*
X175908477Y-98705465D01*
X175845218Y-98510776D01*
X175798859Y-98419792D01*
X175752287Y-98328390D01*
X175707434Y-98266654D01*
X175631971Y-98162786D01*
X175487213Y-98018028D01*
X175321614Y-97897715D01*
X175315006Y-97894348D01*
X175228917Y-97850483D01*
X175178123Y-97802511D01*
X175161328Y-97734690D01*
X175183865Y-97668555D01*
X175228917Y-97629516D01*
X175321610Y-97582287D01*
X175464575Y-97478418D01*
X175487213Y-97461971D01*
X175487215Y-97461968D01*
X175487219Y-97461966D01*
X175631966Y-97317219D01*
X175631968Y-97317215D01*
X175631971Y-97317213D01*
X175699867Y-97223760D01*
X175752287Y-97151610D01*
X175845220Y-96969219D01*
X175908477Y-96774534D01*
X175940500Y-96572352D01*
X175940500Y-96367648D01*
X175917551Y-96222754D01*
X175908477Y-96165465D01*
X175851296Y-95989481D01*
X175845220Y-95970781D01*
X175845218Y-95970778D01*
X175845218Y-95970776D01*
X175811503Y-95904607D01*
X175752287Y-95788390D01*
X175732908Y-95761717D01*
X175631971Y-95622786D01*
X175487213Y-95478028D01*
X175321614Y-95357715D01*
X175315006Y-95354348D01*
X175228917Y-95310483D01*
X175178123Y-95262511D01*
X175161328Y-95194690D01*
X175183865Y-95128555D01*
X175228917Y-95089516D01*
X175321610Y-95042287D01*
X175379815Y-94999999D01*
X175487213Y-94921971D01*
X175487215Y-94921968D01*
X175487219Y-94921966D01*
X175631966Y-94777219D01*
X175631968Y-94777215D01*
X175631971Y-94777213D01*
X175726977Y-94646446D01*
X175752287Y-94611610D01*
X175845220Y-94429219D01*
X175908477Y-94234534D01*
X175940500Y-94032352D01*
X175940500Y-93827648D01*
X175908477Y-93625466D01*
X175845220Y-93430781D01*
X175845218Y-93430778D01*
X175845218Y-93430776D01*
X175808067Y-93357864D01*
X175752287Y-93248390D01*
X175744556Y-93237749D01*
X175631971Y-93082786D01*
X175487213Y-92938028D01*
X175321614Y-92817715D01*
X175315006Y-92814348D01*
X175228917Y-92770483D01*
X175178123Y-92722511D01*
X175161328Y-92654690D01*
X175183865Y-92588555D01*
X175228917Y-92549516D01*
X175321610Y-92502287D01*
X175342770Y-92486913D01*
X175487213Y-92381971D01*
X175487215Y-92381968D01*
X175487219Y-92381966D01*
X175631966Y-92237219D01*
X175631968Y-92237215D01*
X175631971Y-92237213D01*
X175684732Y-92164590D01*
X175752287Y-92071610D01*
X175845220Y-91889219D01*
X175908477Y-91694534D01*
X175940500Y-91492352D01*
X175940500Y-91287648D01*
X175908477Y-91085466D01*
X175903825Y-91071151D01*
X175901832Y-91001312D01*
X175934075Y-90945158D01*
X179358506Y-87520728D01*
X179358511Y-87520724D01*
X179368714Y-87510520D01*
X179368716Y-87510520D01*
X179480520Y-87398716D01*
X179544186Y-87288443D01*
X179559577Y-87261785D01*
X179600500Y-87109057D01*
X179600500Y-86950943D01*
X179600500Y-74800097D01*
X179620185Y-74733058D01*
X179636819Y-74712416D01*
X180712416Y-73636819D01*
X180773739Y-73603334D01*
X180800097Y-73600500D01*
X183025501Y-73600500D01*
X183092540Y-73620185D01*
X183138295Y-73672989D01*
X183149501Y-73724500D01*
X183149501Y-73897876D01*
X183155908Y-73957483D01*
X183206202Y-74092328D01*
X183206206Y-74092335D01*
X183292452Y-74207544D01*
X183292455Y-74207547D01*
X183407664Y-74293793D01*
X183407671Y-74293797D01*
X183542517Y-74344091D01*
X183542516Y-74344091D01*
X183549444Y-74344835D01*
X183602127Y-74350500D01*
X185397872Y-74350499D01*
X185457483Y-74344091D01*
X185592331Y-74293796D01*
X185707546Y-74207546D01*
X185793796Y-74092331D01*
X185844091Y-73957483D01*
X185850500Y-73897873D01*
X185850499Y-72102128D01*
X185844091Y-72042517D01*
X185824776Y-71990732D01*
X185793797Y-71907671D01*
X185793793Y-71907664D01*
X185707547Y-71792455D01*
X185707544Y-71792452D01*
X185592335Y-71706206D01*
X185592328Y-71706202D01*
X185457482Y-71655908D01*
X185457483Y-71655908D01*
X185397883Y-71649501D01*
X185397881Y-71649500D01*
X185397873Y-71649500D01*
X185397864Y-71649500D01*
X183602129Y-71649500D01*
X183602123Y-71649501D01*
X183542516Y-71655908D01*
X183407671Y-71706202D01*
X183407664Y-71706206D01*
X183292455Y-71792452D01*
X183292452Y-71792455D01*
X183206206Y-71907664D01*
X183206202Y-71907671D01*
X183155908Y-72042517D01*
X183149675Y-72100500D01*
X183149501Y-72102123D01*
X183149500Y-72102135D01*
X183149500Y-72275500D01*
X183129815Y-72342539D01*
X183077011Y-72388294D01*
X183025500Y-72399500D01*
X180420940Y-72399500D01*
X180380019Y-72410464D01*
X180380019Y-72410465D01*
X180342751Y-72420451D01*
X180268214Y-72440423D01*
X180268209Y-72440426D01*
X180131290Y-72519475D01*
X180131282Y-72519481D01*
X178519481Y-74131282D01*
X178519479Y-74131285D01*
X178475452Y-74207544D01*
X178475451Y-74207545D01*
X178475450Y-74207547D01*
X178440423Y-74268215D01*
X178399499Y-74420943D01*
X178399499Y-74420945D01*
X178399499Y-74589046D01*
X178399500Y-74589059D01*
X178399500Y-86729902D01*
X178379815Y-86796941D01*
X178363181Y-86817583D01*
X176152181Y-89028583D01*
X176090858Y-89062068D01*
X176021166Y-89057084D01*
X175965233Y-89015212D01*
X175940816Y-88949748D01*
X175940500Y-88940902D01*
X175940500Y-88747648D01*
X175908477Y-88545465D01*
X175868017Y-88420943D01*
X175845220Y-88350781D01*
X175845218Y-88350778D01*
X175845218Y-88350776D01*
X175780499Y-88223760D01*
X175752287Y-88168390D01*
X175744556Y-88157749D01*
X175631971Y-88002786D01*
X175487213Y-87858028D01*
X175321611Y-87737713D01*
X175228369Y-87690203D01*
X175177574Y-87642229D01*
X175160779Y-87574407D01*
X175183317Y-87508273D01*
X175228371Y-87469234D01*
X175321347Y-87421861D01*
X175486894Y-87301582D01*
X175486895Y-87301582D01*
X175631582Y-87156895D01*
X175631582Y-87156894D01*
X175751859Y-86991349D01*
X175844755Y-86809029D01*
X175907990Y-86614413D01*
X175916609Y-86560000D01*
X175073012Y-86560000D01*
X175105925Y-86502993D01*
X175140000Y-86375826D01*
X175140000Y-86244174D01*
X175105925Y-86117007D01*
X175073012Y-86060000D01*
X175916609Y-86060000D01*
X175907990Y-86005586D01*
X175844755Y-85810970D01*
X175751859Y-85628650D01*
X175631582Y-85463105D01*
X175631582Y-85463104D01*
X175486895Y-85318417D01*
X175321349Y-85198140D01*
X175228370Y-85150765D01*
X175177574Y-85102790D01*
X175160779Y-85034969D01*
X175183316Y-84968835D01*
X175228370Y-84929795D01*
X175232788Y-84927544D01*
X175321610Y-84882287D01*
X175379145Y-84840486D01*
X175487213Y-84761971D01*
X175487215Y-84761968D01*
X175487219Y-84761966D01*
X175631966Y-84617219D01*
X175631968Y-84617215D01*
X175631971Y-84617213D01*
X175724316Y-84490109D01*
X175752287Y-84451610D01*
X175845220Y-84269219D01*
X175908477Y-84074534D01*
X175940500Y-83872352D01*
X175940500Y-83667648D01*
X175908477Y-83465466D01*
X175845220Y-83270781D01*
X175845218Y-83270778D01*
X175845218Y-83270776D01*
X175780499Y-83143760D01*
X175752287Y-83088390D01*
X175744556Y-83077749D01*
X175631971Y-82922786D01*
X175487213Y-82778028D01*
X175321613Y-82657715D01*
X175321612Y-82657714D01*
X175321610Y-82657713D01*
X175264653Y-82628691D01*
X175139223Y-82564781D01*
X174944534Y-82501522D01*
X174769995Y-82473878D01*
X174742352Y-82469500D01*
X174537648Y-82469500D01*
X174513329Y-82473351D01*
X174335465Y-82501522D01*
X174140776Y-82564781D01*
X173958386Y-82657715D01*
X173792786Y-82778028D01*
X173648028Y-82922786D01*
X173527715Y-83088386D01*
X173434781Y-83270776D01*
X173371522Y-83465465D01*
X173339500Y-83667648D01*
X173339500Y-83872351D01*
X173371522Y-84074534D01*
X173434781Y-84269223D01*
X173527715Y-84451613D01*
X173648028Y-84617213D01*
X173792786Y-84761971D01*
X173947749Y-84874556D01*
X173958390Y-84882287D01*
X174030424Y-84918990D01*
X174051629Y-84929795D01*
X174102425Y-84977770D01*
X174119220Y-85045591D01*
X174096682Y-85111726D01*
X174051629Y-85150765D01*
X173958650Y-85198140D01*
X173793105Y-85318417D01*
X173793104Y-85318417D01*
X173648417Y-85463104D01*
X173648417Y-85463105D01*
X173528140Y-85628650D01*
X173435244Y-85810970D01*
X173372009Y-86005586D01*
X173363391Y-86060000D01*
X174206988Y-86060000D01*
X174174075Y-86117007D01*
X174140000Y-86244174D01*
X174140000Y-86375826D01*
X174174075Y-86502993D01*
X174206988Y-86560000D01*
X173363391Y-86560000D01*
X173372009Y-86614413D01*
X173435244Y-86809029D01*
X173528140Y-86991349D01*
X173648417Y-87156894D01*
X173648417Y-87156895D01*
X173793104Y-87301582D01*
X173958652Y-87421861D01*
X174051628Y-87469234D01*
X174102425Y-87517208D01*
X174119220Y-87585029D01*
X174096683Y-87651164D01*
X174051630Y-87690203D01*
X173958388Y-87737713D01*
X173792786Y-87858028D01*
X173648028Y-88002786D01*
X173527715Y-88168386D01*
X173434781Y-88350776D01*
X173371522Y-88545465D01*
X173339500Y-88747648D01*
X173339500Y-88952351D01*
X173371522Y-89154534D01*
X173434781Y-89349223D01*
X173527715Y-89531613D01*
X173648028Y-89697213D01*
X173792786Y-89841971D01*
X173947749Y-89954556D01*
X173958390Y-89962287D01*
X174049840Y-90008883D01*
X174051080Y-90009515D01*
X174101876Y-90057490D01*
X174118671Y-90125311D01*
X174096134Y-90191446D01*
X174051080Y-90230485D01*
X173958386Y-90277715D01*
X173792786Y-90398028D01*
X173648028Y-90542786D01*
X173527715Y-90708386D01*
X173434781Y-90890776D01*
X173371522Y-91085465D01*
X173339500Y-91287648D01*
X173339500Y-91492351D01*
X173371522Y-91694534D01*
X173434781Y-91889223D01*
X173527715Y-92071613D01*
X173648028Y-92237213D01*
X173792786Y-92381971D01*
X173947749Y-92494556D01*
X173958390Y-92502287D01*
X174049840Y-92548883D01*
X174051080Y-92549515D01*
X174101876Y-92597490D01*
X174118671Y-92665311D01*
X174096134Y-92731446D01*
X174051080Y-92770485D01*
X173958386Y-92817715D01*
X173792786Y-92938028D01*
X173648028Y-93082786D01*
X173527715Y-93248386D01*
X173434781Y-93430776D01*
X173371522Y-93625465D01*
X173339500Y-93827648D01*
X173339500Y-94032351D01*
X173371522Y-94234534D01*
X173434781Y-94429223D01*
X173480795Y-94519529D01*
X173526638Y-94609501D01*
X173527715Y-94611613D01*
X173648028Y-94777213D01*
X173792786Y-94921971D01*
X173947749Y-95034556D01*
X173958390Y-95042287D01*
X174049840Y-95088883D01*
X174051080Y-95089515D01*
X174101876Y-95137490D01*
X174118671Y-95205311D01*
X174096134Y-95271446D01*
X174051080Y-95310485D01*
X173958386Y-95357715D01*
X173792786Y-95478028D01*
X173648028Y-95622786D01*
X173527715Y-95788386D01*
X173434781Y-95970776D01*
X173371522Y-96165465D01*
X173339500Y-96367648D01*
X173339500Y-96572351D01*
X173371522Y-96774534D01*
X173434781Y-96969223D01*
X173527715Y-97151613D01*
X173648028Y-97317213D01*
X173792786Y-97461971D01*
X173910157Y-97547244D01*
X173958390Y-97582287D01*
X174032814Y-97620208D01*
X174051080Y-97629515D01*
X174101876Y-97677490D01*
X174118671Y-97745311D01*
X174096134Y-97811446D01*
X174051080Y-97850485D01*
X173958386Y-97897715D01*
X173792786Y-98018028D01*
X173648028Y-98162786D01*
X173527715Y-98328386D01*
X173434781Y-98510776D01*
X173371522Y-98705465D01*
X173339500Y-98907648D01*
X173339500Y-99112351D01*
X173371522Y-99314534D01*
X173434781Y-99509223D01*
X173527715Y-99691613D01*
X173648028Y-99857213D01*
X173792786Y-100001971D01*
X173912637Y-100089046D01*
X173958390Y-100122287D01*
X174032814Y-100160208D01*
X174051080Y-100169515D01*
X174101876Y-100217490D01*
X174118671Y-100285311D01*
X174096134Y-100351446D01*
X174051080Y-100390485D01*
X173958386Y-100437715D01*
X173792786Y-100558028D01*
X173648028Y-100702786D01*
X173527715Y-100868386D01*
X173434781Y-101050776D01*
X173371522Y-101245465D01*
X173339500Y-101447648D01*
X173339500Y-101652351D01*
X173371522Y-101854534D01*
X173434781Y-102049223D01*
X173527715Y-102231613D01*
X173648028Y-102397213D01*
X173792786Y-102541971D01*
X173947749Y-102654556D01*
X173958390Y-102662287D01*
X174032814Y-102700208D01*
X174051080Y-102709515D01*
X174101876Y-102757490D01*
X174118671Y-102825311D01*
X174096134Y-102891446D01*
X174051080Y-102930485D01*
X173958386Y-102977715D01*
X173792786Y-103098028D01*
X173648028Y-103242786D01*
X173527715Y-103408386D01*
X173434781Y-103590776D01*
X173371522Y-103785465D01*
X173339500Y-103987648D01*
X173339500Y-104192351D01*
X173371522Y-104394534D01*
X173434781Y-104589223D01*
X173527715Y-104771613D01*
X173648028Y-104937213D01*
X173792786Y-105081971D01*
X173947749Y-105194556D01*
X173958390Y-105202287D01*
X174049840Y-105248883D01*
X174051080Y-105249515D01*
X174101876Y-105297490D01*
X174118671Y-105365311D01*
X174096134Y-105431446D01*
X174051080Y-105470485D01*
X173958386Y-105517715D01*
X173792786Y-105638028D01*
X173648028Y-105782786D01*
X173527715Y-105948386D01*
X173434781Y-106130776D01*
X173371522Y-106325465D01*
X173339500Y-106527648D01*
X173339500Y-106732351D01*
X173371522Y-106934534D01*
X173434781Y-107129223D01*
X173527715Y-107311613D01*
X173648028Y-107477213D01*
X173792786Y-107621971D01*
X173947749Y-107734556D01*
X173958390Y-107742287D01*
X174049840Y-107788883D01*
X174051080Y-107789515D01*
X174101876Y-107837490D01*
X174118671Y-107905311D01*
X174096134Y-107971446D01*
X174051080Y-108010485D01*
X173958386Y-108057715D01*
X173792786Y-108178028D01*
X173648028Y-108322786D01*
X173527715Y-108488386D01*
X173434781Y-108670776D01*
X173371522Y-108865465D01*
X173339500Y-109067648D01*
X173339500Y-109272351D01*
X173371522Y-109474534D01*
X173434781Y-109669223D01*
X173527715Y-109851613D01*
X173648028Y-110017213D01*
X173792786Y-110161971D01*
X173947749Y-110274556D01*
X173958390Y-110282287D01*
X174049840Y-110328883D01*
X174051080Y-110329515D01*
X174101876Y-110377490D01*
X174118671Y-110445311D01*
X174096134Y-110511446D01*
X174051080Y-110550485D01*
X173958386Y-110597715D01*
X173792786Y-110718028D01*
X173648028Y-110862786D01*
X173527715Y-111028386D01*
X173434781Y-111210776D01*
X173371522Y-111405465D01*
X173339500Y-111607648D01*
X173339500Y-111812351D01*
X173371522Y-112014534D01*
X173434781Y-112209223D01*
X173527715Y-112391613D01*
X173648028Y-112557213D01*
X173792786Y-112701971D01*
X173947749Y-112814556D01*
X173958390Y-112822287D01*
X174049840Y-112868883D01*
X174051080Y-112869515D01*
X174101876Y-112917490D01*
X174118671Y-112985311D01*
X174096134Y-113051446D01*
X174051080Y-113090485D01*
X173958386Y-113137715D01*
X173792786Y-113258028D01*
X173648028Y-113402786D01*
X173527715Y-113568386D01*
X173434781Y-113750776D01*
X173371522Y-113945465D01*
X173339500Y-114147648D01*
X173339500Y-114352351D01*
X173371522Y-114554534D01*
X173434781Y-114749223D01*
X173527715Y-114931613D01*
X173648028Y-115097213D01*
X173792786Y-115241971D01*
X173947749Y-115354556D01*
X173958390Y-115362287D01*
X174049840Y-115408883D01*
X174051080Y-115409515D01*
X174101876Y-115457490D01*
X174118671Y-115525311D01*
X174096134Y-115591446D01*
X174051080Y-115630485D01*
X173958386Y-115677715D01*
X173792786Y-115798028D01*
X173648028Y-115942786D01*
X173527715Y-116108386D01*
X173434781Y-116290776D01*
X173371522Y-116485465D01*
X173339500Y-116687648D01*
X173339500Y-116892351D01*
X173371522Y-117094534D01*
X173434781Y-117289223D01*
X173527715Y-117471613D01*
X173648028Y-117637213D01*
X173792786Y-117781971D01*
X173947749Y-117894556D01*
X173958390Y-117902287D01*
X174049840Y-117948883D01*
X174051080Y-117949515D01*
X174101876Y-117997490D01*
X174118671Y-118065311D01*
X174096134Y-118131446D01*
X174051080Y-118170485D01*
X173958386Y-118217715D01*
X173792786Y-118338028D01*
X173648028Y-118482786D01*
X173527715Y-118648386D01*
X173434781Y-118830776D01*
X173371522Y-119025465D01*
X173339500Y-119227648D01*
X173339500Y-119432351D01*
X173371522Y-119634534D01*
X173434781Y-119829223D01*
X173527715Y-120011613D01*
X173648028Y-120177213D01*
X173792786Y-120321971D01*
X173941327Y-120429890D01*
X173958390Y-120442287D01*
X174074607Y-120501503D01*
X174140776Y-120535218D01*
X174140778Y-120535218D01*
X174140781Y-120535220D01*
X174245137Y-120569127D01*
X174335465Y-120598477D01*
X174436557Y-120614488D01*
X174537648Y-120630500D01*
X174537649Y-120630500D01*
X174742351Y-120630500D01*
X174742352Y-120630500D01*
X174944534Y-120598477D01*
X175139219Y-120535220D01*
X175321610Y-120442287D01*
X175414590Y-120374732D01*
X175487213Y-120321971D01*
X175487215Y-120321968D01*
X175487219Y-120321966D01*
X175631966Y-120177219D01*
X175631968Y-120177215D01*
X175631971Y-120177213D01*
X175684732Y-120104590D01*
X175752287Y-120011610D01*
X175845220Y-119829219D01*
X175908477Y-119634534D01*
X175940500Y-119432352D01*
X175940500Y-119227648D01*
X175908477Y-119025466D01*
X175845220Y-118830781D01*
X175845218Y-118830778D01*
X175845218Y-118830776D01*
X175811503Y-118764607D01*
X175752287Y-118648390D01*
X175744556Y-118637749D01*
X175631971Y-118482786D01*
X175487213Y-118338028D01*
X175321614Y-118217715D01*
X175315006Y-118214348D01*
X175228917Y-118170483D01*
X175178123Y-118122511D01*
X175161328Y-118054690D01*
X175183865Y-117988555D01*
X175228917Y-117949516D01*
X175321610Y-117902287D01*
X175342770Y-117886913D01*
X175487213Y-117781971D01*
X175487215Y-117781968D01*
X175487219Y-117781966D01*
X175631966Y-117637219D01*
X175631968Y-117637215D01*
X175631971Y-117637213D01*
X175684732Y-117564590D01*
X175752287Y-117471610D01*
X175845220Y-117289219D01*
X175908477Y-117094534D01*
X175940500Y-116892352D01*
X175940500Y-116687648D01*
X175908477Y-116485466D01*
X175845220Y-116290781D01*
X175845218Y-116290778D01*
X175845218Y-116290776D01*
X175811503Y-116224607D01*
X175752287Y-116108390D01*
X175744556Y-116097749D01*
X175631971Y-115942786D01*
X175487213Y-115798028D01*
X175321614Y-115677715D01*
X175315006Y-115674348D01*
X175228917Y-115630483D01*
X175178123Y-115582511D01*
X175161328Y-115514690D01*
X175183865Y-115448555D01*
X175228917Y-115409516D01*
X175321610Y-115362287D01*
X175342770Y-115346913D01*
X175487213Y-115241971D01*
X175487215Y-115241968D01*
X175487219Y-115241966D01*
X175631966Y-115097219D01*
X175631968Y-115097215D01*
X175631971Y-115097213D01*
X175684732Y-115024590D01*
X175752287Y-114931610D01*
X175845220Y-114749219D01*
X175908477Y-114554534D01*
X175940500Y-114352352D01*
X175940500Y-114147648D01*
X175908477Y-113945466D01*
X175845220Y-113750781D01*
X175845218Y-113750778D01*
X175845218Y-113750776D01*
X175811503Y-113684607D01*
X175752287Y-113568390D01*
X175709794Y-113509903D01*
X175631971Y-113402786D01*
X175487213Y-113258028D01*
X175321614Y-113137715D01*
X175315006Y-113134348D01*
X175228917Y-113090483D01*
X175178123Y-113042511D01*
X175161328Y-112974690D01*
X175183865Y-112908555D01*
X175228917Y-112869516D01*
X175321610Y-112822287D01*
X175342770Y-112806913D01*
X175487213Y-112701971D01*
X175487215Y-112701968D01*
X175487219Y-112701966D01*
X175631966Y-112557219D01*
X175631968Y-112557215D01*
X175631971Y-112557213D01*
X175684732Y-112484590D01*
X175752287Y-112391610D01*
X175845220Y-112209219D01*
X175908477Y-112014534D01*
X175940500Y-111812352D01*
X175940500Y-111607648D01*
X175908477Y-111405466D01*
X175845220Y-111210781D01*
X175845218Y-111210778D01*
X175845218Y-111210776D01*
X175778103Y-111079057D01*
X175752287Y-111028390D01*
X175744556Y-111017749D01*
X175631971Y-110862786D01*
X175487213Y-110718028D01*
X175321614Y-110597715D01*
X175315006Y-110594348D01*
X175228917Y-110550483D01*
X175178123Y-110502511D01*
X175161328Y-110434690D01*
X175183865Y-110368555D01*
X175228917Y-110329516D01*
X175321610Y-110282287D01*
X175342770Y-110266913D01*
X175487213Y-110161971D01*
X175487215Y-110161968D01*
X175487219Y-110161966D01*
X175631966Y-110017219D01*
X175631968Y-110017215D01*
X175631971Y-110017213D01*
X175684732Y-109944590D01*
X175752287Y-109851610D01*
X175845220Y-109669219D01*
X175908477Y-109474534D01*
X175940500Y-109272352D01*
X175940500Y-109067648D01*
X175908477Y-108865466D01*
X175845220Y-108670781D01*
X175845218Y-108670778D01*
X175845218Y-108670776D01*
X175811503Y-108604607D01*
X175752287Y-108488390D01*
X175744556Y-108477749D01*
X175631971Y-108322786D01*
X175487213Y-108178028D01*
X175321614Y-108057715D01*
X175315006Y-108054348D01*
X175228917Y-108010483D01*
X175178123Y-107962511D01*
X175161328Y-107894690D01*
X175183865Y-107828555D01*
X175228917Y-107789516D01*
X175321610Y-107742287D01*
X175342770Y-107726913D01*
X175487213Y-107621971D01*
X175487215Y-107621968D01*
X175487219Y-107621966D01*
X175631966Y-107477219D01*
X175631968Y-107477215D01*
X175631971Y-107477213D01*
X175684732Y-107404590D01*
X175752287Y-107311610D01*
X175845220Y-107129219D01*
X175908477Y-106934534D01*
X175940500Y-106732352D01*
X175940500Y-106527648D01*
X175908477Y-106325466D01*
X175845220Y-106130781D01*
X175845218Y-106130778D01*
X175845218Y-106130776D01*
X175798859Y-106039792D01*
X175752287Y-105948390D01*
X175715584Y-105897872D01*
X175631971Y-105782786D01*
X175487213Y-105638028D01*
X175321614Y-105517715D01*
X175315006Y-105514348D01*
X175228917Y-105470483D01*
X175178123Y-105422511D01*
X175161328Y-105354690D01*
X175183865Y-105288555D01*
X175228917Y-105249516D01*
X175321610Y-105202287D01*
X175453744Y-105106287D01*
X175487213Y-105081971D01*
X175487215Y-105081968D01*
X175487219Y-105081966D01*
X175631966Y-104937219D01*
X175631968Y-104937215D01*
X175631971Y-104937213D01*
X175699867Y-104843760D01*
X175752287Y-104771610D01*
X175845220Y-104589219D01*
X175908477Y-104394534D01*
X175940500Y-104192352D01*
X175940500Y-103987648D01*
X175909584Y-103792454D01*
X175908477Y-103785465D01*
X175875104Y-103682754D01*
X175845220Y-103590781D01*
X175845218Y-103590778D01*
X175845218Y-103590776D01*
X175798859Y-103499792D01*
X175752287Y-103408390D01*
X175744556Y-103397749D01*
X175631971Y-103242786D01*
X175487213Y-103098028D01*
X175321614Y-102977715D01*
X175315006Y-102974348D01*
X175228917Y-102930483D01*
X175178123Y-102882511D01*
X175161328Y-102814690D01*
X175183865Y-102748555D01*
X175228917Y-102709516D01*
X175321610Y-102662287D01*
X175342770Y-102646913D01*
X175487213Y-102541971D01*
X175487215Y-102541968D01*
X175487219Y-102541966D01*
X175631966Y-102397219D01*
X175631968Y-102397215D01*
X175631971Y-102397213D01*
X175752284Y-102231614D01*
X175752285Y-102231613D01*
X175752287Y-102231610D01*
X175759117Y-102218204D01*
X175807091Y-102167409D01*
X175869602Y-102150500D01*
X178863331Y-102150500D01*
X178863347Y-102150501D01*
X178870943Y-102150501D01*
X179029054Y-102150501D01*
X179029057Y-102150501D01*
X179181785Y-102109577D01*
X179268387Y-102059577D01*
X179318716Y-102030520D01*
X179430520Y-101918716D01*
X179480520Y-101868716D01*
X179559577Y-101731784D01*
X179587103Y-101629057D01*
X179600501Y-101579057D01*
X179600501Y-101420942D01*
X179600500Y-101420938D01*
X179600500Y-100804500D01*
X179620185Y-100737461D01*
X179672989Y-100691706D01*
X179724500Y-100680500D01*
X183714281Y-100680500D01*
X183781320Y-100700185D01*
X183824765Y-100748205D01*
X183844947Y-100787814D01*
X183844948Y-100787815D01*
X183969890Y-100959786D01*
X184120213Y-101110109D01*
X184292182Y-101235050D01*
X184300946Y-101239516D01*
X184351742Y-101287491D01*
X184368536Y-101355312D01*
X184345998Y-101421447D01*
X184300946Y-101460484D01*
X184292182Y-101464949D01*
X184120213Y-101589890D01*
X183969890Y-101740213D01*
X183844951Y-101912179D01*
X183748444Y-102101585D01*
X183682753Y-102303760D01*
X183649500Y-102513713D01*
X183649500Y-102726286D01*
X183674243Y-102882511D01*
X183682754Y-102936243D01*
X183735323Y-103098034D01*
X183748444Y-103138414D01*
X183844951Y-103327820D01*
X183969890Y-103499786D01*
X184120213Y-103650109D01*
X184292182Y-103775050D01*
X184300946Y-103779516D01*
X184351742Y-103827491D01*
X184368536Y-103895312D01*
X184345998Y-103961447D01*
X184300946Y-104000484D01*
X184292182Y-104004949D01*
X184120213Y-104129890D01*
X183969890Y-104280213D01*
X183844951Y-104452179D01*
X183748444Y-104641585D01*
X183682753Y-104843760D01*
X183649500Y-105053713D01*
X183649500Y-105266286D01*
X183674243Y-105422511D01*
X183682754Y-105476243D01*
X183736028Y-105640204D01*
X183748444Y-105678414D01*
X183844951Y-105867820D01*
X183969890Y-106039786D01*
X184120213Y-106190109D01*
X184292179Y-106315048D01*
X184292181Y-106315049D01*
X184292184Y-106315051D01*
X184481588Y-106411557D01*
X184683757Y-106477246D01*
X184893713Y-106510500D01*
X184893714Y-106510500D01*
X185106286Y-106510500D01*
X185106287Y-106510500D01*
X185316243Y-106477246D01*
X185518412Y-106411557D01*
X185707816Y-106315051D01*
X185795209Y-106251557D01*
X185879786Y-106190109D01*
X185879788Y-106190106D01*
X185879792Y-106190104D01*
X186030104Y-106039792D01*
X186030106Y-106039788D01*
X186030109Y-106039786D01*
X186133214Y-105897872D01*
X186155051Y-105867816D01*
X186155349Y-105867230D01*
X186175235Y-105828205D01*
X186223209Y-105777409D01*
X186285719Y-105760500D01*
X188253331Y-105760500D01*
X188253347Y-105760501D01*
X188260943Y-105760501D01*
X188419054Y-105760501D01*
X188419057Y-105760501D01*
X188571785Y-105719577D01*
X188621904Y-105690639D01*
X188708716Y-105640520D01*
X188820520Y-105528716D01*
X188820520Y-105528714D01*
X188830728Y-105518507D01*
X188830729Y-105518504D01*
X190480520Y-103868716D01*
X190559577Y-103731784D01*
X190600501Y-103579057D01*
X190600501Y-103420942D01*
X190600501Y-103413347D01*
X190600500Y-103413329D01*
X190600500Y-91800096D01*
X190620185Y-91733057D01*
X190636814Y-91712420D01*
X191858506Y-90490727D01*
X191858511Y-90490724D01*
X191868714Y-90480520D01*
X191868716Y-90480520D01*
X191980520Y-90368716D01*
X192059577Y-90231784D01*
X192100500Y-90079057D01*
X192100500Y-70089060D01*
X192100501Y-70089047D01*
X192100501Y-69920944D01*
X192059576Y-69768214D01*
X192059573Y-69768209D01*
X191980524Y-69631290D01*
X191980518Y-69631282D01*
X188987590Y-66638355D01*
X188987588Y-66638352D01*
X188868717Y-66519481D01*
X188868716Y-66519480D01*
X188781904Y-66469360D01*
X188781904Y-66469359D01*
X188781900Y-66469358D01*
X188731785Y-66440423D01*
X188579057Y-66399499D01*
X188420943Y-66399499D01*
X188413347Y-66399499D01*
X188413331Y-66399500D01*
X178586670Y-66399500D01*
X178586654Y-66399499D01*
X178579058Y-66399499D01*
X178420943Y-66399499D01*
X178344579Y-66419961D01*
X178268214Y-66440423D01*
X178268209Y-66440426D01*
X178131290Y-66519475D01*
X178131282Y-66519481D01*
X170787584Y-73863181D01*
X170726261Y-73896666D01*
X170699903Y-73899500D01*
X155579057Y-73899500D01*
X155420942Y-73899500D01*
X155268215Y-73940423D01*
X155238667Y-73957483D01*
X155184975Y-73988481D01*
X155131285Y-74019479D01*
X155131282Y-74019481D01*
X151019481Y-78131282D01*
X151019479Y-78131285D01*
X150969361Y-78218094D01*
X150969359Y-78218096D01*
X150940425Y-78268209D01*
X150940424Y-78268210D01*
X150940423Y-78268215D01*
X150899499Y-78420943D01*
X150899499Y-78420945D01*
X150899499Y-78589046D01*
X150899500Y-78589059D01*
X150899500Y-92413330D01*
X150899499Y-92413348D01*
X150899499Y-92579054D01*
X150899498Y-92579054D01*
X150940423Y-92731787D01*
X150940424Y-92731788D01*
X150951997Y-92751832D01*
X150951999Y-92751835D01*
X151019477Y-92868712D01*
X151019481Y-92868717D01*
X151138349Y-92987585D01*
X151138355Y-92987590D01*
X152445139Y-94294374D01*
X152445149Y-94294385D01*
X152449479Y-94298715D01*
X152449480Y-94298716D01*
X152561284Y-94410520D01*
X152561286Y-94410521D01*
X152561290Y-94410524D01*
X152698209Y-94489573D01*
X152698216Y-94489577D01*
X152810019Y-94519534D01*
X152850942Y-94530500D01*
X152850943Y-94530500D01*
X158170398Y-94530500D01*
X158237437Y-94550185D01*
X158280883Y-94598205D01*
X158287715Y-94611614D01*
X158408028Y-94777213D01*
X158552786Y-94921971D01*
X158707749Y-95034556D01*
X158718390Y-95042287D01*
X158809840Y-95088883D01*
X158811080Y-95089515D01*
X158861876Y-95137490D01*
X158878671Y-95205311D01*
X158856134Y-95271446D01*
X158811080Y-95310485D01*
X158718386Y-95357715D01*
X158552786Y-95478028D01*
X158408028Y-95622786D01*
X158287715Y-95788385D01*
X158280883Y-95801795D01*
X158232909Y-95852591D01*
X158170398Y-95869500D01*
X154030940Y-95869500D01*
X153990019Y-95880464D01*
X153990019Y-95880465D01*
X153952751Y-95890451D01*
X153878214Y-95910423D01*
X153878209Y-95910426D01*
X153741290Y-95989475D01*
X153741282Y-95989481D01*
X148562181Y-101168583D01*
X148500858Y-101202068D01*
X148431166Y-101197084D01*
X148375233Y-101155212D01*
X148350816Y-101089748D01*
X148350500Y-101080902D01*
X148350500Y-100933713D01*
X148340153Y-100868385D01*
X148317246Y-100723757D01*
X148251557Y-100521588D01*
X148155051Y-100332184D01*
X148155049Y-100332181D01*
X148155048Y-100332179D01*
X148030109Y-100160213D01*
X147879786Y-100009890D01*
X147707820Y-99884951D01*
X147707115Y-99884591D01*
X147699054Y-99880485D01*
X147648259Y-99832512D01*
X147631463Y-99764692D01*
X147653999Y-99698556D01*
X147699054Y-99659515D01*
X147707816Y-99655051D01*
X147740529Y-99631284D01*
X147879786Y-99530109D01*
X147879788Y-99530106D01*
X147879792Y-99530104D01*
X148030104Y-99379792D01*
X148030106Y-99379788D01*
X148030109Y-99379786D01*
X148155048Y-99207820D01*
X148155047Y-99207820D01*
X148155051Y-99207816D01*
X148251557Y-99018412D01*
X148317246Y-98816243D01*
X148350500Y-98606287D01*
X148350500Y-98393713D01*
X148317246Y-98183757D01*
X148251557Y-97981588D01*
X148155051Y-97792184D01*
X148155049Y-97792181D01*
X148155048Y-97792179D01*
X148030109Y-97620213D01*
X147916569Y-97506673D01*
X147883084Y-97445350D01*
X147888068Y-97375658D01*
X147929940Y-97319725D01*
X147960915Y-97302810D01*
X148092331Y-97253796D01*
X148207546Y-97167546D01*
X148293796Y-97052331D01*
X148344091Y-96917483D01*
X148350500Y-96857873D01*
X148350499Y-95062128D01*
X148344091Y-95002517D01*
X148343152Y-95000000D01*
X148293797Y-94867671D01*
X148293793Y-94867664D01*
X148207547Y-94752455D01*
X148207544Y-94752452D01*
X148092335Y-94666206D01*
X148092328Y-94666202D01*
X147957482Y-94615908D01*
X147957483Y-94615908D01*
X147897883Y-94609501D01*
X147897881Y-94609500D01*
X147897873Y-94609500D01*
X147897864Y-94609500D01*
X146102129Y-94609500D01*
X146102123Y-94609501D01*
X146042516Y-94615908D01*
X145907671Y-94666202D01*
X145907664Y-94666206D01*
X145792455Y-94752452D01*
X145792452Y-94752455D01*
X145706206Y-94867664D01*
X145706202Y-94867671D01*
X145655908Y-95002517D01*
X145651633Y-95042284D01*
X145649501Y-95062123D01*
X145649500Y-95062135D01*
X145649500Y-96857870D01*
X145649501Y-96857876D01*
X145655908Y-96917483D01*
X145706202Y-97052328D01*
X145706206Y-97052335D01*
X145792452Y-97167544D01*
X145792455Y-97167547D01*
X145907664Y-97253793D01*
X145907671Y-97253797D01*
X146039082Y-97302810D01*
X146095016Y-97344681D01*
X146119433Y-97410145D01*
X146104582Y-97478418D01*
X146083431Y-97506673D01*
X145969889Y-97620215D01*
X145844951Y-97792179D01*
X145748444Y-97981585D01*
X145682753Y-98183760D01*
X145649500Y-98393713D01*
X145649500Y-98606286D01*
X145682606Y-98815312D01*
X145682754Y-98816243D01*
X145712453Y-98907648D01*
X145748444Y-99018414D01*
X145844951Y-99207820D01*
X145969890Y-99379786D01*
X146120213Y-99530109D01*
X146292182Y-99655050D01*
X146300946Y-99659516D01*
X146351742Y-99707491D01*
X146368536Y-99775312D01*
X146345998Y-99841447D01*
X146300946Y-99880484D01*
X146292182Y-99884949D01*
X146120213Y-100009890D01*
X145969890Y-100160213D01*
X145844951Y-100332179D01*
X145748444Y-100521585D01*
X145682753Y-100723760D01*
X145649500Y-100933713D01*
X145649500Y-101146286D01*
X145682606Y-101355312D01*
X145682754Y-101356243D01*
X145712453Y-101447648D01*
X145748444Y-101558414D01*
X145844951Y-101747820D01*
X145969890Y-101919786D01*
X146120213Y-102070109D01*
X146292182Y-102195050D01*
X146300946Y-102199516D01*
X146351742Y-102247491D01*
X146368536Y-102315312D01*
X146345998Y-102381447D01*
X146300946Y-102420484D01*
X146292182Y-102424949D01*
X146120213Y-102549890D01*
X145969890Y-102700213D01*
X145844951Y-102872179D01*
X145748444Y-103061585D01*
X145682753Y-103263760D01*
X145649500Y-103473713D01*
X145649500Y-103686286D01*
X145682606Y-103895312D01*
X145682754Y-103896243D01*
X145743575Y-104083431D01*
X145748444Y-104098414D01*
X145844951Y-104287820D01*
X145969890Y-104459786D01*
X146120213Y-104610109D01*
X146292179Y-104735048D01*
X146292181Y-104735049D01*
X146292184Y-104735051D01*
X146481588Y-104831557D01*
X146683757Y-104897246D01*
X146893713Y-104930500D01*
X146893714Y-104930500D01*
X147106286Y-104930500D01*
X147106287Y-104930500D01*
X147316243Y-104897246D01*
X147518412Y-104831557D01*
X147707816Y-104735051D01*
X147836462Y-104641585D01*
X147879786Y-104610109D01*
X147879788Y-104610106D01*
X147879792Y-104610104D01*
X148030104Y-104459792D01*
X148030106Y-104459788D01*
X148030109Y-104459786D01*
X148155048Y-104287820D01*
X148155047Y-104287820D01*
X148155051Y-104287816D01*
X148251557Y-104098412D01*
X148317246Y-103896243D01*
X148350500Y-103686287D01*
X148350500Y-103473713D01*
X148317246Y-103263757D01*
X148303506Y-103221473D01*
X148301512Y-103151635D01*
X148333755Y-103095478D01*
X154322416Y-97106819D01*
X154383739Y-97073334D01*
X154410097Y-97070500D01*
X158170398Y-97070500D01*
X158237437Y-97090185D01*
X158280883Y-97138205D01*
X158287715Y-97151614D01*
X158408028Y-97317213D01*
X158552786Y-97461971D01*
X158670157Y-97547244D01*
X158718390Y-97582287D01*
X158792814Y-97620208D01*
X158811080Y-97629515D01*
X158861876Y-97677490D01*
X158878671Y-97745311D01*
X158856134Y-97811446D01*
X158811080Y-97850485D01*
X158718386Y-97897715D01*
X158552786Y-98018028D01*
X158408028Y-98162786D01*
X158287715Y-98328386D01*
X158194781Y-98510776D01*
X158131522Y-98705465D01*
X158099500Y-98907648D01*
X158099500Y-99112351D01*
X158131522Y-99314534D01*
X158194781Y-99509223D01*
X158287715Y-99691613D01*
X158408028Y-99857213D01*
X158552786Y-100001971D01*
X158672637Y-100089046D01*
X158718390Y-100122287D01*
X158792814Y-100160208D01*
X158811080Y-100169515D01*
X158861876Y-100217490D01*
X158878671Y-100285311D01*
X158856134Y-100351446D01*
X158811080Y-100390485D01*
X158718386Y-100437715D01*
X158552786Y-100558028D01*
X158408028Y-100702786D01*
X158287715Y-100868386D01*
X158194781Y-101050776D01*
X158131522Y-101245465D01*
X158099500Y-101447648D01*
X158099500Y-101652351D01*
X158131522Y-101854534D01*
X158194781Y-102049223D01*
X158287715Y-102231613D01*
X158408028Y-102397213D01*
X158552786Y-102541971D01*
X158707749Y-102654556D01*
X158718390Y-102662287D01*
X158792814Y-102700208D01*
X158811080Y-102709515D01*
X158861876Y-102757490D01*
X158878671Y-102825311D01*
X158856134Y-102891446D01*
X158811080Y-102930485D01*
X158718386Y-102977715D01*
X158552786Y-103098028D01*
X158408028Y-103242786D01*
X158287715Y-103408386D01*
X158194781Y-103590776D01*
X158131522Y-103785465D01*
X158099500Y-103987648D01*
X158099500Y-104192351D01*
X158131522Y-104394534D01*
X158194781Y-104589223D01*
X158287715Y-104771613D01*
X158408028Y-104937213D01*
X158552786Y-105081971D01*
X158707749Y-105194556D01*
X158718390Y-105202287D01*
X158809840Y-105248883D01*
X158811080Y-105249515D01*
X158861876Y-105297490D01*
X158878671Y-105365311D01*
X158856134Y-105431446D01*
X158811080Y-105470485D01*
X158718386Y-105517715D01*
X158552786Y-105638028D01*
X158408028Y-105782786D01*
X158287715Y-105948386D01*
X158194781Y-106130776D01*
X158131522Y-106325465D01*
X158099500Y-106527648D01*
X158099500Y-106732351D01*
X158131522Y-106934534D01*
X158194781Y-107129223D01*
X158287715Y-107311613D01*
X158408028Y-107477213D01*
X158552786Y-107621971D01*
X158707749Y-107734556D01*
X158718390Y-107742287D01*
X158809840Y-107788883D01*
X158811080Y-107789515D01*
X158861876Y-107837490D01*
X158878671Y-107905311D01*
X158856134Y-107971446D01*
X158811080Y-108010485D01*
X158718386Y-108057715D01*
X158552786Y-108178028D01*
X158408028Y-108322786D01*
X158287715Y-108488386D01*
X158194781Y-108670776D01*
X158131522Y-108865465D01*
X158099500Y-109067648D01*
X158099500Y-109272351D01*
X158131522Y-109474534D01*
X158194781Y-109669223D01*
X158287715Y-109851613D01*
X158408028Y-110017213D01*
X158552786Y-110161971D01*
X158707749Y-110274556D01*
X158718390Y-110282287D01*
X158809840Y-110328883D01*
X158811080Y-110329515D01*
X158861876Y-110377490D01*
X158878671Y-110445311D01*
X158856134Y-110511446D01*
X158811080Y-110550485D01*
X158718386Y-110597715D01*
X158552786Y-110718028D01*
X158408028Y-110862786D01*
X158287715Y-111028386D01*
X158194781Y-111210776D01*
X158131522Y-111405465D01*
X158099500Y-111607648D01*
X158099500Y-111812351D01*
X158131522Y-112014534D01*
X158194781Y-112209223D01*
X158287715Y-112391613D01*
X158408028Y-112557213D01*
X158552786Y-112701971D01*
X158707749Y-112814556D01*
X158718390Y-112822287D01*
X158809840Y-112868883D01*
X158811080Y-112869515D01*
X158861876Y-112917490D01*
X158878671Y-112985311D01*
X158856134Y-113051446D01*
X158811080Y-113090485D01*
X158718386Y-113137715D01*
X158552786Y-113258028D01*
X158408028Y-113402786D01*
X158287715Y-113568385D01*
X158280883Y-113581795D01*
X158232909Y-113632591D01*
X158170398Y-113649500D01*
X143050097Y-113649500D01*
X142983058Y-113629815D01*
X142962416Y-113613181D01*
X140136819Y-110787584D01*
X140103334Y-110726261D01*
X140100500Y-110699903D01*
X140100500Y-71420945D01*
X140100500Y-71420943D01*
X140059577Y-71268216D01*
X140059573Y-71268209D01*
X139980524Y-71131290D01*
X139980518Y-71131282D01*
X139868717Y-71019481D01*
X139868709Y-71019475D01*
X139731790Y-70940426D01*
X139731786Y-70940424D01*
X139731784Y-70940423D01*
X139579057Y-70899500D01*
X139579056Y-70899500D01*
X127086669Y-70899500D01*
X127086653Y-70899499D01*
X127079057Y-70899499D01*
X126920943Y-70899499D01*
X126813587Y-70928265D01*
X126768210Y-70940424D01*
X126768209Y-70940425D01*
X126718096Y-70969359D01*
X126718095Y-70969360D01*
X126674689Y-70994420D01*
X126631285Y-71019479D01*
X126631282Y-71019481D01*
X126487481Y-71163282D01*
X126487479Y-71163285D01*
X126437361Y-71250094D01*
X126437359Y-71250096D01*
X126408425Y-71300209D01*
X126408424Y-71300210D01*
X126408423Y-71300215D01*
X126367499Y-71452943D01*
X126367499Y-71452945D01*
X126367499Y-71621053D01*
X126367500Y-71621059D01*
X126367500Y-79449067D01*
X126347815Y-79516106D01*
X126316386Y-79549385D01*
X126215892Y-79622398D01*
X126087399Y-79750891D01*
X126087399Y-79750892D01*
X126087397Y-79750894D01*
X126078773Y-79762764D01*
X125980583Y-79897909D01*
X125898083Y-80059825D01*
X125898081Y-80059828D01*
X125841928Y-80232649D01*
X125841928Y-80232652D01*
X125820473Y-80368114D01*
X125790544Y-80431249D01*
X125731232Y-80468180D01*
X125661370Y-80467182D01*
X125603137Y-80428572D01*
X125575527Y-80368114D01*
X125567027Y-80314449D01*
X125554072Y-80232654D01*
X125554071Y-80232650D01*
X125554071Y-80232649D01*
X125497918Y-80059828D01*
X125497916Y-80059825D01*
X125478713Y-80022135D01*
X125415417Y-79897910D01*
X125308603Y-79750894D01*
X125180106Y-79622397D01*
X125033090Y-79515583D01*
X124871174Y-79433083D01*
X124871171Y-79433081D01*
X124698348Y-79376928D01*
X124559319Y-79354908D01*
X124518861Y-79348500D01*
X124337139Y-79348500D01*
X124296681Y-79354908D01*
X124157652Y-79376928D01*
X124157649Y-79376928D01*
X123984828Y-79433081D01*
X123984825Y-79433083D01*
X123822909Y-79515583D01*
X123748700Y-79569500D01*
X123675894Y-79622397D01*
X123675892Y-79622399D01*
X123675891Y-79622399D01*
X123547399Y-79750891D01*
X123547399Y-79750892D01*
X123547397Y-79750894D01*
X123538773Y-79762764D01*
X123440583Y-79897909D01*
X123358083Y-80059825D01*
X123358081Y-80059828D01*
X123301928Y-80232649D01*
X123301928Y-80232652D01*
X123280473Y-80368114D01*
X123250544Y-80431249D01*
X123191232Y-80468180D01*
X123121370Y-80467182D01*
X123063137Y-80428572D01*
X123035527Y-80368114D01*
X123027027Y-80314449D01*
X123014072Y-80232654D01*
X123014071Y-80232650D01*
X123014071Y-80232649D01*
X122957918Y-80059828D01*
X122957916Y-80059825D01*
X122938713Y-80022135D01*
X122875417Y-79897910D01*
X122768603Y-79750894D01*
X122640106Y-79622397D01*
X122493090Y-79515583D01*
X122331174Y-79433083D01*
X122331171Y-79433081D01*
X122158348Y-79376928D01*
X122019319Y-79354908D01*
X121978861Y-79348500D01*
X121797139Y-79348500D01*
X121756681Y-79354908D01*
X121617652Y-79376928D01*
X121617649Y-79376928D01*
X121444828Y-79433081D01*
X121444825Y-79433083D01*
X121282909Y-79515583D01*
X121208700Y-79569500D01*
X121135894Y-79622397D01*
X121135892Y-79622399D01*
X121135891Y-79622399D01*
X121007399Y-79750891D01*
X121007399Y-79750892D01*
X121007397Y-79750894D01*
X120998773Y-79762764D01*
X120900583Y-79897909D01*
X120818083Y-80059825D01*
X120818081Y-80059828D01*
X120761928Y-80232649D01*
X120761928Y-80232652D01*
X120740473Y-80368114D01*
X120710544Y-80431249D01*
X120651232Y-80468180D01*
X120581370Y-80467182D01*
X120523137Y-80428572D01*
X120495527Y-80368114D01*
X120487027Y-80314449D01*
X120474072Y-80232654D01*
X120474071Y-80232650D01*
X120474071Y-80232649D01*
X120417918Y-80059828D01*
X120417916Y-80059825D01*
X120398713Y-80022135D01*
X120335417Y-79897910D01*
X120228603Y-79750894D01*
X120100106Y-79622397D01*
X119953090Y-79515583D01*
X119791174Y-79433083D01*
X119791171Y-79433081D01*
X119618348Y-79376928D01*
X119479319Y-79354908D01*
X119438861Y-79348500D01*
X119257139Y-79348500D01*
X119216681Y-79354908D01*
X119077652Y-79376928D01*
X119077649Y-79376928D01*
X118904828Y-79433081D01*
X118904825Y-79433083D01*
X118742909Y-79515583D01*
X118668700Y-79569500D01*
X118595894Y-79622397D01*
X118595892Y-79622399D01*
X118595891Y-79622399D01*
X118467399Y-79750891D01*
X118467399Y-79750892D01*
X118467397Y-79750894D01*
X118458773Y-79762764D01*
X118360583Y-79897909D01*
X118278083Y-80059825D01*
X118278081Y-80059828D01*
X118221928Y-80232649D01*
X118221928Y-80232652D01*
X118200473Y-80368114D01*
X118170544Y-80431249D01*
X118111232Y-80468180D01*
X118041370Y-80467182D01*
X117983137Y-80428572D01*
X117955527Y-80368114D01*
X117934072Y-80232653D01*
X117916474Y-80178493D01*
X117879691Y-80065288D01*
X117877697Y-79995449D01*
X117909940Y-79939293D01*
X125868713Y-71980521D01*
X125868716Y-71980520D01*
X125980520Y-71868716D01*
X126030639Y-71781904D01*
X126059577Y-71731785D01*
X126100500Y-71579058D01*
X126100500Y-71420943D01*
X126100500Y-70224500D01*
X126120185Y-70157461D01*
X126172989Y-70111706D01*
X126224500Y-70100500D01*
X141775500Y-70100500D01*
X141842539Y-70120185D01*
X141888294Y-70172989D01*
X141899500Y-70224500D01*
X141899500Y-87913330D01*
X141899499Y-87913348D01*
X141899499Y-88079054D01*
X141899498Y-88079054D01*
X141940424Y-88231787D01*
X141949879Y-88248163D01*
X141949880Y-88248165D01*
X142019477Y-88368712D01*
X142019481Y-88368717D01*
X142138349Y-88487585D01*
X142138355Y-88487590D01*
X142555139Y-88904374D01*
X142555149Y-88904385D01*
X142559479Y-88908715D01*
X142559480Y-88908716D01*
X142671284Y-89020520D01*
X142736917Y-89058412D01*
X142758095Y-89070639D01*
X142758097Y-89070641D01*
X142808213Y-89099576D01*
X142808215Y-89099577D01*
X142960942Y-89140500D01*
X142960943Y-89140500D01*
X145714281Y-89140500D01*
X145781320Y-89160185D01*
X145824765Y-89208205D01*
X145844947Y-89247814D01*
X145844948Y-89247815D01*
X145969890Y-89419786D01*
X146120213Y-89570109D01*
X146292179Y-89695048D01*
X146292181Y-89695049D01*
X146292184Y-89695051D01*
X146481588Y-89791557D01*
X146683757Y-89857246D01*
X146893713Y-89890500D01*
X146893714Y-89890500D01*
X147106286Y-89890500D01*
X147106287Y-89890500D01*
X147316243Y-89857246D01*
X147518412Y-89791557D01*
X147707816Y-89695051D01*
X147729789Y-89679086D01*
X147879786Y-89570109D01*
X147879788Y-89570106D01*
X147879792Y-89570104D01*
X148030104Y-89419792D01*
X148030106Y-89419788D01*
X148030109Y-89419786D01*
X148155048Y-89247820D01*
X148155047Y-89247820D01*
X148155051Y-89247816D01*
X148251557Y-89058412D01*
X148317246Y-88856243D01*
X148350500Y-88646287D01*
X148350500Y-88433713D01*
X148317246Y-88223757D01*
X148251557Y-88021588D01*
X148155051Y-87832184D01*
X148155049Y-87832181D01*
X148155048Y-87832179D01*
X148030109Y-87660213D01*
X147879786Y-87509890D01*
X147707820Y-87384951D01*
X147707115Y-87384591D01*
X147699054Y-87380485D01*
X147648259Y-87332512D01*
X147631463Y-87264692D01*
X147653999Y-87198556D01*
X147699054Y-87159515D01*
X147707816Y-87155051D01*
X147771125Y-87109055D01*
X147879786Y-87030109D01*
X147879788Y-87030106D01*
X147879792Y-87030104D01*
X148030104Y-86879792D01*
X148030106Y-86879788D01*
X148030109Y-86879786D01*
X148155048Y-86707820D01*
X148155047Y-86707820D01*
X148155051Y-86707816D01*
X148251557Y-86518412D01*
X148317246Y-86316243D01*
X148350500Y-86106287D01*
X148350500Y-85893713D01*
X148317246Y-85683757D01*
X148251557Y-85481588D01*
X148155051Y-85292184D01*
X148155049Y-85292181D01*
X148155048Y-85292179D01*
X148030109Y-85120213D01*
X147879786Y-84969890D01*
X147707820Y-84844951D01*
X147707115Y-84844591D01*
X147699054Y-84840485D01*
X147648259Y-84792512D01*
X147631463Y-84724692D01*
X147653999Y-84658556D01*
X147699054Y-84619515D01*
X147707816Y-84615051D01*
X147729789Y-84599086D01*
X147879786Y-84490109D01*
X147879788Y-84490106D01*
X147879792Y-84490104D01*
X148030104Y-84339792D01*
X148030106Y-84339788D01*
X148030109Y-84339786D01*
X148155048Y-84167820D01*
X148155047Y-84167820D01*
X148155051Y-84167816D01*
X148251557Y-83978412D01*
X148317246Y-83776243D01*
X148350500Y-83566287D01*
X148350500Y-83353713D01*
X148317246Y-83143757D01*
X148251557Y-82941588D01*
X148155051Y-82752184D01*
X148155049Y-82752181D01*
X148155048Y-82752179D01*
X148030109Y-82580213D01*
X147916569Y-82466673D01*
X147883084Y-82405350D01*
X147888068Y-82335658D01*
X147929940Y-82279725D01*
X147960915Y-82262810D01*
X148092331Y-82213796D01*
X148207546Y-82127546D01*
X148293796Y-82012331D01*
X148344091Y-81877483D01*
X148350500Y-81817873D01*
X148350499Y-80022128D01*
X148344091Y-79962517D01*
X148335428Y-79939291D01*
X148293797Y-79827671D01*
X148293793Y-79827664D01*
X148207547Y-79712455D01*
X148207544Y-79712452D01*
X148092335Y-79626206D01*
X148092328Y-79626202D01*
X147957482Y-79575908D01*
X147957483Y-79575908D01*
X147897883Y-79569501D01*
X147897881Y-79569500D01*
X147897873Y-79569500D01*
X147897864Y-79569500D01*
X146102129Y-79569500D01*
X146102123Y-79569501D01*
X146042516Y-79575908D01*
X145907671Y-79626202D01*
X145907664Y-79626206D01*
X145792455Y-79712452D01*
X145792452Y-79712455D01*
X145706206Y-79827664D01*
X145706202Y-79827671D01*
X145655908Y-79962517D01*
X145649501Y-80022116D01*
X145649501Y-80022123D01*
X145649500Y-80022135D01*
X145649500Y-81817870D01*
X145649501Y-81817876D01*
X145655908Y-81877483D01*
X145706202Y-82012328D01*
X145706206Y-82012335D01*
X145792452Y-82127544D01*
X145792455Y-82127547D01*
X145907664Y-82213793D01*
X145907671Y-82213797D01*
X146039082Y-82262810D01*
X146095016Y-82304681D01*
X146119433Y-82370145D01*
X146104582Y-82438418D01*
X146083431Y-82466673D01*
X145969889Y-82580215D01*
X145844951Y-82752179D01*
X145748444Y-82941585D01*
X145682753Y-83143760D01*
X145649500Y-83353713D01*
X145649500Y-83566286D01*
X145682753Y-83776239D01*
X145748444Y-83978414D01*
X145844951Y-84167820D01*
X145969890Y-84339786D01*
X146120213Y-84490109D01*
X146292182Y-84615050D01*
X146300946Y-84619516D01*
X146351742Y-84667491D01*
X146368536Y-84735312D01*
X146345998Y-84801447D01*
X146300946Y-84840484D01*
X146292182Y-84844949D01*
X146120213Y-84969890D01*
X145969890Y-85120213D01*
X145844951Y-85292179D01*
X145748444Y-85481585D01*
X145682753Y-85683760D01*
X145649500Y-85893713D01*
X145649500Y-86106286D01*
X145682753Y-86316239D01*
X145748444Y-86518414D01*
X145844951Y-86707820D01*
X145969890Y-86879786D01*
X146120213Y-87030109D01*
X146292182Y-87155050D01*
X146300946Y-87159516D01*
X146351742Y-87207491D01*
X146368536Y-87275312D01*
X146345998Y-87341447D01*
X146300946Y-87380484D01*
X146292182Y-87384949D01*
X146120213Y-87509890D01*
X145969890Y-87660213D01*
X145844948Y-87832184D01*
X145844947Y-87832185D01*
X145824765Y-87871795D01*
X145776791Y-87922591D01*
X145714281Y-87939500D01*
X143340097Y-87939500D01*
X143310656Y-87930855D01*
X143280670Y-87924332D01*
X143275654Y-87920577D01*
X143273058Y-87919815D01*
X143252416Y-87903181D01*
X143136819Y-87787584D01*
X143103334Y-87726261D01*
X143100500Y-87699903D01*
X143100500Y-69420945D01*
X143100500Y-69420943D01*
X143059577Y-69268216D01*
X143059573Y-69268209D01*
X142980524Y-69131290D01*
X142980521Y-69131286D01*
X142980520Y-69131284D01*
X142868716Y-69019480D01*
X142868714Y-69019479D01*
X142868709Y-69019475D01*
X142731790Y-68940426D01*
X142731786Y-68940424D01*
X142731784Y-68940423D01*
X142579057Y-68899500D01*
X125579057Y-68899500D01*
X125420943Y-68899500D01*
X125268216Y-68940423D01*
X125268209Y-68940426D01*
X125131290Y-69019475D01*
X125131282Y-69019481D01*
X125019481Y-69131282D01*
X125019475Y-69131290D01*
X124940426Y-69268209D01*
X124940423Y-69268216D01*
X124899500Y-69420943D01*
X124899500Y-71199903D01*
X124879815Y-71266942D01*
X124863181Y-71287584D01*
X116838584Y-79312181D01*
X116777261Y-79345666D01*
X116750903Y-79348500D01*
X116717139Y-79348500D01*
X116676681Y-79354908D01*
X116537652Y-79376928D01*
X116537649Y-79376928D01*
X116364828Y-79433081D01*
X116364825Y-79433083D01*
X116202909Y-79515583D01*
X116128700Y-79569500D01*
X116055894Y-79622397D01*
X116055892Y-79622399D01*
X116055891Y-79622399D01*
X115927399Y-79750891D01*
X115927399Y-79750892D01*
X115927397Y-79750894D01*
X115918773Y-79762764D01*
X115820583Y-79897909D01*
X115738083Y-80059825D01*
X115738081Y-80059828D01*
X115681928Y-80232649D01*
X115681928Y-80232652D01*
X115660473Y-80368114D01*
X115630544Y-80431249D01*
X115571232Y-80468180D01*
X115501370Y-80467182D01*
X115443137Y-80428572D01*
X115415527Y-80368114D01*
X115407027Y-80314449D01*
X115394072Y-80232654D01*
X115394071Y-80232650D01*
X115394071Y-80232649D01*
X115337918Y-80059828D01*
X115337916Y-80059825D01*
X115318713Y-80022135D01*
X115255417Y-79897910D01*
X115148603Y-79750894D01*
X115020106Y-79622397D01*
X114873090Y-79515583D01*
X114711174Y-79433083D01*
X114711171Y-79433081D01*
X114538348Y-79376928D01*
X114399319Y-79354908D01*
X114358861Y-79348500D01*
X114177139Y-79348500D01*
X114136681Y-79354908D01*
X113997652Y-79376928D01*
X113997649Y-79376928D01*
X113824828Y-79433081D01*
X113824825Y-79433083D01*
X113662909Y-79515583D01*
X113588700Y-79569500D01*
X113515894Y-79622397D01*
X113515892Y-79622399D01*
X113515891Y-79622399D01*
X113387399Y-79750891D01*
X113387399Y-79750892D01*
X113387397Y-79750894D01*
X113378773Y-79762764D01*
X113280583Y-79897909D01*
X113198083Y-80059825D01*
X113198081Y-80059828D01*
X113141928Y-80232649D01*
X113141928Y-80232652D01*
X113141928Y-80232653D01*
X113141928Y-80232654D01*
X113113500Y-80412139D01*
X109175500Y-80412139D01*
X109175500Y-73102135D01*
X114109500Y-73102135D01*
X114109500Y-74897870D01*
X114109501Y-74897876D01*
X114115908Y-74957483D01*
X114166202Y-75092328D01*
X114166206Y-75092335D01*
X114252452Y-75207544D01*
X114252455Y-75207547D01*
X114367664Y-75293793D01*
X114367671Y-75293797D01*
X114502517Y-75344091D01*
X114502516Y-75344091D01*
X114509444Y-75344835D01*
X114562127Y-75350500D01*
X116357872Y-75350499D01*
X116417483Y-75344091D01*
X116552331Y-75293796D01*
X116667546Y-75207546D01*
X116753796Y-75092331D01*
X116802810Y-74960916D01*
X116844681Y-74904984D01*
X116910145Y-74880566D01*
X116978418Y-74895417D01*
X117006673Y-74916569D01*
X117120213Y-75030109D01*
X117292179Y-75155048D01*
X117292181Y-75155049D01*
X117292184Y-75155051D01*
X117481588Y-75251557D01*
X117683757Y-75317246D01*
X117893713Y-75350500D01*
X117893714Y-75350500D01*
X118106286Y-75350500D01*
X118106287Y-75350500D01*
X118316243Y-75317246D01*
X118518412Y-75251557D01*
X118707816Y-75155051D01*
X118794138Y-75092335D01*
X118879786Y-75030109D01*
X118879792Y-75030104D01*
X118952413Y-74957483D01*
X119030104Y-74879792D01*
X119030106Y-74879788D01*
X119030109Y-74879786D01*
X119155048Y-74707820D01*
X119155047Y-74707820D01*
X119155051Y-74707816D01*
X119251557Y-74518412D01*
X119317246Y-74316243D01*
X119350500Y-74106287D01*
X119350500Y-73893713D01*
X119317246Y-73683757D01*
X119251557Y-73481588D01*
X119155051Y-73292184D01*
X119155049Y-73292181D01*
X119155048Y-73292179D01*
X119030109Y-73120213D01*
X118879786Y-72969890D01*
X118707820Y-72844951D01*
X118518414Y-72748444D01*
X118518413Y-72748443D01*
X118518412Y-72748443D01*
X118316243Y-72682754D01*
X118316241Y-72682753D01*
X118316240Y-72682753D01*
X118154957Y-72657208D01*
X118106287Y-72649500D01*
X117893713Y-72649500D01*
X117854202Y-72655757D01*
X117683759Y-72682753D01*
X117683760Y-72682753D01*
X117481585Y-72748444D01*
X117292179Y-72844951D01*
X117120215Y-72969889D01*
X117006673Y-73083431D01*
X116945350Y-73116915D01*
X116875658Y-73111931D01*
X116819725Y-73070059D01*
X116802810Y-73039082D01*
X116753797Y-72907671D01*
X116753793Y-72907664D01*
X116667547Y-72792455D01*
X116667544Y-72792452D01*
X116552335Y-72706206D01*
X116552328Y-72706202D01*
X116417482Y-72655908D01*
X116417483Y-72655908D01*
X116357883Y-72649501D01*
X116357881Y-72649500D01*
X116357873Y-72649500D01*
X116357864Y-72649500D01*
X114562129Y-72649500D01*
X114562123Y-72649501D01*
X114502516Y-72655908D01*
X114367671Y-72706202D01*
X114367664Y-72706206D01*
X114252455Y-72792452D01*
X114252452Y-72792455D01*
X114166206Y-72907664D01*
X114166202Y-72907671D01*
X114115908Y-73042517D01*
X114109501Y-73102116D01*
X114109500Y-73102135D01*
X109175500Y-73102135D01*
X109175500Y-65294500D01*
X109195185Y-65227461D01*
X109247989Y-65181706D01*
X109299500Y-65170500D01*
X194550500Y-65170500D01*
X194617539Y-65190185D01*
G37*
%TD.AperFunction*%
%TD*%
M02*
