%TF.GenerationSoftware,KiCad,Pcbnew,9.0.5*%
%TF.CreationDate,2026-02-14T18:46:13+01:00*%
%TF.ProjectId,DriveAssist_Kicad,44726976-6541-4737-9369-73745f4b6963,1.0*%
%TF.SameCoordinates,Original*%
%TF.FileFunction,Copper,L1,Top*%
%TF.FilePolarity,Positive*%
%FSLAX46Y46*%
G04 Gerber Fmt 4.6, Leading zero omitted, Abs format (unit mm)*
G04 Created by KiCad (PCBNEW 9.0.5) date 2026-02-14 18:46:13*
%MOMM*%
%LPD*%
G01*
G04 APERTURE LIST*
%TA.AperFunction,ComponentPad*%
%ADD10R,1.700000X1.700000*%
%TD*%
%TA.AperFunction,ComponentPad*%
%ADD11C,1.700000*%
%TD*%
%TA.AperFunction,ComponentPad*%
%ADD12R,1.600000X1.600000*%
%TD*%
%TA.AperFunction,ComponentPad*%
%ADD13O,1.600000X1.600000*%
%TD*%
%TA.AperFunction,ComponentPad*%
%ADD14R,1.308000X1.308000*%
%TD*%
%TA.AperFunction,ComponentPad*%
%ADD15C,1.308000*%
%TD*%
%TA.AperFunction,ComponentPad*%
%ADD16C,1.600000*%
%TD*%
%TA.AperFunction,Conductor*%
%ADD17C,0.200000*%
%TD*%
G04 APERTURE END LIST*
D10*
%TO.P,J2,1,Pin_1*%
%TO.N,+5V*%
X147000000Y-80920000D03*
D11*
%TO.P,J2,2,Pin_2*%
%TO.N,Net-(A1-D1{slash}TX)*%
X147000000Y-83460000D03*
%TO.P,J2,3,Pin_3*%
%TO.N,Net-(A1-D0{slash}RX)*%
X147000000Y-86000000D03*
%TO.P,J2,4,Pin_4*%
%TO.N,GND 2*%
X147000000Y-88540000D03*
%TD*%
D12*
%TO.P,A1,1,D1/TX*%
%TO.N,Net-(A1-D1{slash}TX)*%
X159400000Y-83770000D03*
D13*
%TO.P,A1,2,D0/RX*%
%TO.N,Net-(A1-D0{slash}RX)*%
X159400000Y-86310000D03*
%TO.P,A1,3,~{RESET}*%
%TO.N,unconnected-(A1-~{RESET}-Pad3)*%
X159400000Y-88850000D03*
%TO.P,A1,4,GND*%
%TO.N,GND 2*%
X159400000Y-91390000D03*
%TO.P,A1,5,D2*%
%TO.N,Net-(A1-D2)*%
X159400000Y-93930000D03*
%TO.P,A1,6,D3*%
%TO.N,Net-(A1-D3)*%
X159400000Y-96470000D03*
%TO.P,A1,7,D4*%
%TO.N,Net-(A1-D4)*%
X159400000Y-99010000D03*
%TO.P,A1,8,D5*%
%TO.N,Net-(A1-D5)*%
X159400000Y-101550000D03*
%TO.P,A1,9,D6*%
%TO.N,Net-(A1-D6)*%
X159400000Y-104090000D03*
%TO.P,A1,10,D7*%
%TO.N,Net-(A1-D7)*%
X159400000Y-106630000D03*
%TO.P,A1,11,D8*%
%TO.N,Net-(A1-D8)*%
X159400000Y-109170000D03*
%TO.P,A1,12,D9*%
%TO.N,Net-(A1-D9)*%
X159400000Y-111710000D03*
%TO.P,A1,13,D10*%
%TO.N,Net-(A1-D10)*%
X159400000Y-114250000D03*
%TO.P,A1,14,D11*%
%TO.N,Net-(A1-D11)*%
X159400000Y-116790000D03*
%TO.P,A1,15,D12*%
%TO.N,unconnected-(A1-D12-Pad15)*%
X159400000Y-119330000D03*
%TO.P,A1,16,D13*%
%TO.N,unconnected-(A1-D13-Pad16)*%
X174640000Y-119330000D03*
%TO.P,A1,17,3V3*%
%TO.N,+3.3V*%
X174640000Y-116790000D03*
%TO.P,A1,18,AREF*%
%TO.N,unconnected-(A1-AREF-Pad18)*%
X174640000Y-114250000D03*
%TO.P,A1,19,A0*%
%TO.N,unconnected-(A1-A0-Pad19)*%
X174640000Y-111710000D03*
%TO.P,A1,20,A1*%
%TO.N,unconnected-(A1-A1-Pad20)*%
X174640000Y-109170000D03*
%TO.P,A1,21,A2*%
%TO.N,unconnected-(A1-A2-Pad21)*%
X174640000Y-106630000D03*
%TO.P,A1,22,A3*%
%TO.N,unconnected-(A1-A3-Pad22)*%
X174640000Y-104090000D03*
%TO.P,A1,23,A4*%
%TO.N,Net-(A1-A4)*%
X174640000Y-101550000D03*
%TO.P,A1,24,A5*%
%TO.N,Net-(A1-A5)*%
X174640000Y-99010000D03*
%TO.P,A1,25,A6*%
%TO.N,unconnected-(A1-A6-Pad25)*%
X174640000Y-96470000D03*
%TO.P,A1,26,A7*%
%TO.N,unconnected-(A1-A7-Pad26)*%
X174640000Y-93930000D03*
%TO.P,A1,27,+5V*%
%TO.N,+5V*%
X174640000Y-91390000D03*
%TO.P,A1,28,~{RESET}*%
%TO.N,unconnected-(A1-~{RESET}-Pad28)*%
X174640000Y-88850000D03*
%TO.P,A1,29,GND*%
%TO.N,GND 1*%
X174640000Y-86310000D03*
%TO.P,A1,30,VIN*%
%TO.N,unconnected-(A1-VIN-Pad30)*%
X174640000Y-83770000D03*
%TD*%
D10*
%TO.P,J9,1,Pin_1*%
%TO.N,GND 2*%
X184500000Y-80500000D03*
%TD*%
%TO.P,J1,1,Pin_1*%
%TO.N,+3.3V*%
X185000000Y-92460000D03*
D11*
%TO.P,J1,2,Pin_2*%
%TO.N,GND 1*%
X185000000Y-95000000D03*
%TO.P,J1,3,Pin_3*%
%TO.N,+5V*%
X185000000Y-97540000D03*
%TO.P,J1,4,Pin_4*%
%TO.N,Net-(A1-A4)*%
X185000000Y-100080000D03*
%TO.P,J1,5,Pin_5*%
%TO.N,Net-(A1-A5)*%
X185000000Y-102620000D03*
%TO.P,J1,6,Pin_6*%
%TO.N,Net-(A1-D2)*%
X185000000Y-105160000D03*
%TD*%
D10*
%TO.P,J8,1,Pin_1*%
%TO.N,+5V*%
X184500000Y-73000000D03*
%TD*%
%TO.P,J3,1,Pin_1*%
%TO.N,Net-(J3-Pin_1)*%
X115460000Y-74000000D03*
D11*
%TO.P,J3,2,Pin_2*%
%TO.N,Net-(J3-Pin_2)*%
X118000000Y-74000000D03*
%TD*%
D14*
%TO.P,U1,1,VCC*%
%TO.N,+5V*%
X132048000Y-80503000D03*
D15*
%TO.P,U1,2,RX*%
%TO.N,Net-(U1-RX)*%
X129508000Y-80503000D03*
%TO.P,U1,3,TX*%
%TO.N,Net-(A1-D10)*%
X126968000Y-80503000D03*
%TO.P,U1,4,DAC_R*%
%TO.N,unconnected-(U1-DAC_R-Pad4)*%
X124428000Y-80503000D03*
%TO.P,U1,5,DAC_L*%
%TO.N,unconnected-(U1-DAC_L-Pad5)*%
X121888000Y-80503000D03*
%TO.P,U1,6,SPK1*%
%TO.N,Net-(J3-Pin_2)*%
X119348000Y-80503000D03*
%TO.P,U1,7,GND*%
%TO.N,GND 2*%
X116808000Y-80503000D03*
%TO.P,U1,8,SPK2*%
%TO.N,Net-(J3-Pin_1)*%
X114268000Y-80503000D03*
%TO.P,U1,9,IO1*%
%TO.N,Net-(J4-Pin_1)*%
X114268000Y-98537000D03*
%TO.P,U1,10,GND*%
%TO.N,GND 2*%
X116808000Y-98537000D03*
%TO.P,U1,11,IO2*%
%TO.N,Net-(J4-Pin_2)*%
X119348000Y-98537000D03*
%TO.P,U1,12,ADKEY1*%
%TO.N,unconnected-(U1-ADKEY1-Pad12)*%
X121888000Y-98537000D03*
%TO.P,U1,13,ADKEY2*%
%TO.N,unconnected-(U1-ADKEY2-Pad13)*%
X124428000Y-98537000D03*
%TO.P,U1,14,USB+*%
%TO.N,Net-(J5-Pin_2)*%
X126968000Y-98537000D03*
%TO.P,U1,15,USB-*%
%TO.N,Net-(J5-Pin_1)*%
X129508000Y-98537000D03*
%TO.P,U1,16,BUSY*%
%TO.N,Net-(A1-D9)*%
X132048000Y-98537000D03*
%TD*%
D16*
%TO.P,R1,1*%
%TO.N,Net-(A1-D11)*%
X136810000Y-74000000D03*
%TO.P,R1,2*%
%TO.N,Net-(U1-RX)*%
X129190000Y-74000000D03*
%TD*%
D10*
%TO.P,J6,1,Pin_1*%
%TO.N,Net-(A1-D6)*%
X147000000Y-95960000D03*
D11*
%TO.P,J6,2,Pin_2*%
%TO.N,Net-(A1-D5)*%
X147000000Y-98500000D03*
%TO.P,J6,3,Pin_3*%
%TO.N,Net-(A1-D4)*%
X147000000Y-101040000D03*
%TO.P,J6,4,Pin_4*%
%TO.N,Net-(A1-D3)*%
X147000000Y-103580000D03*
%TD*%
D10*
%TO.P,J7,1,Pin_1*%
%TO.N,Net-(A1-D8)*%
X147000000Y-124000000D03*
D11*
%TO.P,J7,2,Pin_2*%
%TO.N,Net-(A1-D7)*%
X147000000Y-121460000D03*
%TD*%
D10*
%TO.P,J5,1,Pin_1*%
%TO.N,Net-(J5-Pin_1)*%
X129540000Y-105000000D03*
D11*
%TO.P,J5,2,Pin_2*%
%TO.N,Net-(J5-Pin_2)*%
X127000000Y-105000000D03*
%TD*%
D10*
%TO.P,J4,1,Pin_1*%
%TO.N,Net-(J4-Pin_1)*%
X115460000Y-105000000D03*
D11*
%TO.P,J4,2,Pin_2*%
%TO.N,Net-(J4-Pin_2)*%
X118000000Y-105000000D03*
%TD*%
D17*
%TO.N,Net-(A1-D9)*%
X156290000Y-111710000D02*
X159400000Y-111710000D01*
X155500000Y-112500000D02*
X156290000Y-111710000D01*
X153500000Y-128000000D02*
X155500000Y-126000000D01*
X155500000Y-126000000D02*
X155500000Y-112500000D01*
X133500000Y-128000000D02*
X153500000Y-128000000D01*
X132048000Y-98537000D02*
X133500000Y-99989000D01*
X133500000Y-99989000D02*
X133500000Y-128000000D01*
%TO.N,Net-(A1-D8)*%
X155500000Y-109170000D02*
X159400000Y-109170000D01*
X153500000Y-111170000D02*
X155500000Y-109170000D01*
X153500000Y-122000000D02*
X153500000Y-111170000D01*
X151500000Y-124000000D02*
X153500000Y-122000000D01*
X147000000Y-124000000D02*
X151500000Y-124000000D01*
%TO.N,Net-(A1-D7)*%
X155370000Y-106630000D02*
X159400000Y-106630000D01*
X151500000Y-110500000D02*
X155370000Y-106630000D01*
X151500000Y-121000000D02*
X151500000Y-110500000D01*
X151040000Y-121460000D02*
X151500000Y-121000000D01*
X147000000Y-121460000D02*
X151040000Y-121460000D01*
%TO.N,Net-(A1-D4)*%
X154490000Y-99010000D02*
X159400000Y-99010000D01*
X152460000Y-101040000D02*
X154490000Y-99010000D01*
X147000000Y-101040000D02*
X152460000Y-101040000D01*
%TO.N,Net-(A1-D5)*%
X157950000Y-101550000D02*
X159400000Y-101550000D01*
X157000000Y-102500000D02*
X157950000Y-101550000D01*
X154000000Y-102500000D02*
X157000000Y-102500000D01*
X149500000Y-107000000D02*
X154000000Y-102500000D01*
X144500000Y-107000000D02*
X149500000Y-107000000D01*
X143000000Y-105500000D02*
X144500000Y-107000000D01*
X143000000Y-102500000D02*
X143000000Y-105500000D01*
X147000000Y-98500000D02*
X143000000Y-102500000D01*
%TO.N,+3.3V*%
X191210000Y-116790000D02*
X174640000Y-116790000D01*
X185000000Y-92460000D02*
X191460000Y-92460000D01*
X191500000Y-92500000D02*
X191500000Y-116500000D01*
X191500000Y-116500000D02*
X191210000Y-116790000D01*
X191460000Y-92460000D02*
X191500000Y-92500000D01*
%TO.N,Net-(A1-A5)*%
X174640000Y-99010000D02*
X181990000Y-99010000D01*
X182000000Y-99000000D02*
X182000000Y-102500000D01*
X181990000Y-99010000D02*
X182000000Y-99000000D01*
X182000000Y-102500000D02*
X182120000Y-102620000D01*
X182120000Y-102620000D02*
X185000000Y-102620000D01*
%TO.N,GND 1*%
X179500000Y-86500000D02*
X179500000Y-95000000D01*
X179500000Y-95000000D02*
X185000000Y-95000000D01*
X179310000Y-86310000D02*
X179500000Y-86500000D01*
X174640000Y-86310000D02*
X179310000Y-86310000D01*
%TO.N,+5V*%
X177890000Y-91390000D02*
X178000000Y-91500000D01*
X178040000Y-97540000D02*
X185000000Y-97540000D01*
X178000000Y-91500000D02*
X178000000Y-97500000D01*
X132048000Y-80503000D02*
X146583000Y-80503000D01*
X153000000Y-73000000D02*
X184500000Y-73000000D01*
X178000000Y-97500000D02*
X178040000Y-97540000D01*
X147000000Y-80920000D02*
X147000000Y-79000000D01*
X147000000Y-79000000D02*
X153000000Y-73000000D01*
X146583000Y-80503000D02*
X147000000Y-80920000D01*
X174640000Y-91390000D02*
X177890000Y-91390000D01*
%TO.N,GND 2*%
X147000000Y-88540000D02*
X147000000Y-91500000D01*
X147110000Y-91390000D02*
X159400000Y-91390000D01*
X147000000Y-91500000D02*
X147110000Y-91390000D01*
%TO.N,Net-(A1-D0{slash}RX)*%
X147000000Y-86000000D02*
X159090000Y-86000000D01*
X159090000Y-86000000D02*
X159400000Y-86310000D01*
%TO.N,Net-(A1-D1{slash}TX)*%
X147000000Y-83460000D02*
X159090000Y-83460000D01*
X159090000Y-83460000D02*
X159400000Y-83770000D01*
%TO.N,Net-(A1-D6)*%
X155410000Y-104090000D02*
X159400000Y-104090000D01*
X151000000Y-108500000D02*
X155410000Y-104090000D01*
X147000000Y-95960000D02*
X141000000Y-101960000D01*
X141000000Y-106000000D02*
X143500000Y-108500000D01*
X141000000Y-101960000D02*
X141000000Y-106000000D01*
X143500000Y-108500000D02*
X151000000Y-108500000D01*
%TO.N,Net-(J3-Pin_1)*%
X115460000Y-79311000D02*
X115460000Y-74000000D01*
X114268000Y-80503000D02*
X115460000Y-79311000D01*
%TO.N,Net-(J3-Pin_2)*%
X119348000Y-80503000D02*
X118000000Y-79155000D01*
X118000000Y-79155000D02*
X118000000Y-74000000D01*
%TO.N,Net-(J4-Pin_2)*%
X118000000Y-99885000D02*
X118000000Y-105000000D01*
X119348000Y-98537000D02*
X118000000Y-99885000D01*
%TO.N,Net-(J4-Pin_1)*%
X114268000Y-98537000D02*
X115460000Y-99729000D01*
X115460000Y-99729000D02*
X115460000Y-105000000D01*
%TO.N,Net-(J5-Pin_2)*%
X126968000Y-104968000D02*
X127000000Y-105000000D01*
X126968000Y-98537000D02*
X126968000Y-104968000D01*
%TO.N,Net-(J5-Pin_1)*%
X129508000Y-98537000D02*
X129508000Y-104968000D01*
X129508000Y-104968000D02*
X129540000Y-105000000D01*
%TO.N,Net-(U1-RX)*%
X129508000Y-74318000D02*
X129190000Y-74000000D01*
%TD*%
M02*
