%TF.GenerationSoftware,KiCad,Pcbnew,9.0.5*%
%TF.CreationDate,2026-02-14T18:46:13+01:00*%
%TF.ProjectId,DriveAssist_Kicad,44726976-6541-4737-9369-73745f4b6963,1.0*%
%TF.SameCoordinates,Original*%
%TF.FileFunction,Legend,Bot*%
%TF.FilePolarity,Positive*%
%FSLAX46Y46*%
G04 Gerber Fmt 4.6, Leading zero omitted, Abs format (unit mm)*
G04 Created by KiCad (PCBNEW 9.0.5) date 2026-02-14 18:46:13*
%MOMM*%
%LPD*%
G01*
G04 APERTURE LIST*
%ADD10C,0.100000*%
%ADD11C,0.150000*%
%ADD12C,0.120000*%
G04 APERTURE END LIST*
D10*
X191719925Y-128872419D02*
X192196115Y-128872419D01*
X192196115Y-128872419D02*
X192196115Y-127872419D01*
X191243734Y-128872419D02*
X191338972Y-128824800D01*
X191338972Y-128824800D02*
X191386591Y-128777180D01*
X191386591Y-128777180D02*
X191434210Y-128681942D01*
X191434210Y-128681942D02*
X191434210Y-128396228D01*
X191434210Y-128396228D02*
X191386591Y-128300990D01*
X191386591Y-128300990D02*
X191338972Y-128253371D01*
X191338972Y-128253371D02*
X191243734Y-128205752D01*
X191243734Y-128205752D02*
X191100877Y-128205752D01*
X191100877Y-128205752D02*
X191005639Y-128253371D01*
X191005639Y-128253371D02*
X190958020Y-128300990D01*
X190958020Y-128300990D02*
X190910401Y-128396228D01*
X190910401Y-128396228D02*
X190910401Y-128681942D01*
X190910401Y-128681942D02*
X190958020Y-128777180D01*
X190958020Y-128777180D02*
X191005639Y-128824800D01*
X191005639Y-128824800D02*
X191100877Y-128872419D01*
X191100877Y-128872419D02*
X191243734Y-128872419D01*
X190481829Y-128205752D02*
X190481829Y-128872419D01*
X190481829Y-128300990D02*
X190434210Y-128253371D01*
X190434210Y-128253371D02*
X190338972Y-128205752D01*
X190338972Y-128205752D02*
X190196115Y-128205752D01*
X190196115Y-128205752D02*
X190100877Y-128253371D01*
X190100877Y-128253371D02*
X190053258Y-128348609D01*
X190053258Y-128348609D02*
X190053258Y-128872419D01*
X189148496Y-128205752D02*
X189148496Y-129015276D01*
X189148496Y-129015276D02*
X189196115Y-129110514D01*
X189196115Y-129110514D02*
X189243734Y-129158133D01*
X189243734Y-129158133D02*
X189338972Y-129205752D01*
X189338972Y-129205752D02*
X189481829Y-129205752D01*
X189481829Y-129205752D02*
X189577067Y-129158133D01*
X189148496Y-128824800D02*
X189243734Y-128872419D01*
X189243734Y-128872419D02*
X189434210Y-128872419D01*
X189434210Y-128872419D02*
X189529448Y-128824800D01*
X189529448Y-128824800D02*
X189577067Y-128777180D01*
X189577067Y-128777180D02*
X189624686Y-128681942D01*
X189624686Y-128681942D02*
X189624686Y-128396228D01*
X189624686Y-128396228D02*
X189577067Y-128300990D01*
X189577067Y-128300990D02*
X189529448Y-128253371D01*
X189529448Y-128253371D02*
X189434210Y-128205752D01*
X189434210Y-128205752D02*
X189243734Y-128205752D01*
X189243734Y-128205752D02*
X189148496Y-128253371D01*
X187767543Y-128872419D02*
X187862781Y-128824800D01*
X187862781Y-128824800D02*
X187910400Y-128729561D01*
X187910400Y-128729561D02*
X187910400Y-127872419D01*
X187386590Y-128872419D02*
X187386590Y-128205752D01*
X187386590Y-127872419D02*
X187434209Y-127920038D01*
X187434209Y-127920038D02*
X187386590Y-127967657D01*
X187386590Y-127967657D02*
X187338971Y-127920038D01*
X187338971Y-127920038D02*
X187386590Y-127872419D01*
X187386590Y-127872419D02*
X187386590Y-127967657D01*
X187005638Y-128205752D02*
X186767543Y-128872419D01*
X186767543Y-128872419D02*
X186529448Y-128205752D01*
X185767543Y-128824800D02*
X185862781Y-128872419D01*
X185862781Y-128872419D02*
X186053257Y-128872419D01*
X186053257Y-128872419D02*
X186148495Y-128824800D01*
X186148495Y-128824800D02*
X186196114Y-128729561D01*
X186196114Y-128729561D02*
X186196114Y-128348609D01*
X186196114Y-128348609D02*
X186148495Y-128253371D01*
X186148495Y-128253371D02*
X186053257Y-128205752D01*
X186053257Y-128205752D02*
X185862781Y-128205752D01*
X185862781Y-128205752D02*
X185767543Y-128253371D01*
X185767543Y-128253371D02*
X185719924Y-128348609D01*
X185719924Y-128348609D02*
X185719924Y-128443847D01*
X185719924Y-128443847D02*
X186196114Y-128539085D01*
X184338971Y-127872419D02*
X184148495Y-127872419D01*
X184148495Y-127872419D02*
X184053257Y-127920038D01*
X184053257Y-127920038D02*
X183958019Y-128015276D01*
X183958019Y-128015276D02*
X183910400Y-128205752D01*
X183910400Y-128205752D02*
X183910400Y-128539085D01*
X183910400Y-128539085D02*
X183958019Y-128729561D01*
X183958019Y-128729561D02*
X184053257Y-128824800D01*
X184053257Y-128824800D02*
X184148495Y-128872419D01*
X184148495Y-128872419D02*
X184338971Y-128872419D01*
X184338971Y-128872419D02*
X184434209Y-128824800D01*
X184434209Y-128824800D02*
X184529447Y-128729561D01*
X184529447Y-128729561D02*
X184577066Y-128539085D01*
X184577066Y-128539085D02*
X184577066Y-128205752D01*
X184577066Y-128205752D02*
X184529447Y-128015276D01*
X184529447Y-128015276D02*
X184434209Y-127920038D01*
X184434209Y-127920038D02*
X184338971Y-127872419D01*
X183481828Y-128205752D02*
X183481828Y-129205752D01*
X183481828Y-128253371D02*
X183386590Y-128205752D01*
X183386590Y-128205752D02*
X183196114Y-128205752D01*
X183196114Y-128205752D02*
X183100876Y-128253371D01*
X183100876Y-128253371D02*
X183053257Y-128300990D01*
X183053257Y-128300990D02*
X183005638Y-128396228D01*
X183005638Y-128396228D02*
X183005638Y-128681942D01*
X183005638Y-128681942D02*
X183053257Y-128777180D01*
X183053257Y-128777180D02*
X183100876Y-128824800D01*
X183100876Y-128824800D02*
X183196114Y-128872419D01*
X183196114Y-128872419D02*
X183386590Y-128872419D01*
X183386590Y-128872419D02*
X183481828Y-128824800D01*
X182196114Y-128824800D02*
X182291352Y-128872419D01*
X182291352Y-128872419D02*
X182481828Y-128872419D01*
X182481828Y-128872419D02*
X182577066Y-128824800D01*
X182577066Y-128824800D02*
X182624685Y-128729561D01*
X182624685Y-128729561D02*
X182624685Y-128348609D01*
X182624685Y-128348609D02*
X182577066Y-128253371D01*
X182577066Y-128253371D02*
X182481828Y-128205752D01*
X182481828Y-128205752D02*
X182291352Y-128205752D01*
X182291352Y-128205752D02*
X182196114Y-128253371D01*
X182196114Y-128253371D02*
X182148495Y-128348609D01*
X182148495Y-128348609D02*
X182148495Y-128443847D01*
X182148495Y-128443847D02*
X182624685Y-128539085D01*
X181719923Y-128205752D02*
X181719923Y-128872419D01*
X181719923Y-128300990D02*
X181672304Y-128253371D01*
X181672304Y-128253371D02*
X181577066Y-128205752D01*
X181577066Y-128205752D02*
X181434209Y-128205752D01*
X181434209Y-128205752D02*
X181338971Y-128253371D01*
X181338971Y-128253371D02*
X181291352Y-128348609D01*
X181291352Y-128348609D02*
X181291352Y-128872419D01*
X180100875Y-128824800D02*
X179958018Y-128872419D01*
X179958018Y-128872419D02*
X179719923Y-128872419D01*
X179719923Y-128872419D02*
X179624685Y-128824800D01*
X179624685Y-128824800D02*
X179577066Y-128777180D01*
X179577066Y-128777180D02*
X179529447Y-128681942D01*
X179529447Y-128681942D02*
X179529447Y-128586704D01*
X179529447Y-128586704D02*
X179577066Y-128491466D01*
X179577066Y-128491466D02*
X179624685Y-128443847D01*
X179624685Y-128443847D02*
X179719923Y-128396228D01*
X179719923Y-128396228D02*
X179910399Y-128348609D01*
X179910399Y-128348609D02*
X180005637Y-128300990D01*
X180005637Y-128300990D02*
X180053256Y-128253371D01*
X180053256Y-128253371D02*
X180100875Y-128158133D01*
X180100875Y-128158133D02*
X180100875Y-128062895D01*
X180100875Y-128062895D02*
X180053256Y-127967657D01*
X180053256Y-127967657D02*
X180005637Y-127920038D01*
X180005637Y-127920038D02*
X179910399Y-127872419D01*
X179910399Y-127872419D02*
X179672304Y-127872419D01*
X179672304Y-127872419D02*
X179529447Y-127920038D01*
X178958018Y-128872419D02*
X179053256Y-128824800D01*
X179053256Y-128824800D02*
X179100875Y-128777180D01*
X179100875Y-128777180D02*
X179148494Y-128681942D01*
X179148494Y-128681942D02*
X179148494Y-128396228D01*
X179148494Y-128396228D02*
X179100875Y-128300990D01*
X179100875Y-128300990D02*
X179053256Y-128253371D01*
X179053256Y-128253371D02*
X178958018Y-128205752D01*
X178958018Y-128205752D02*
X178815161Y-128205752D01*
X178815161Y-128205752D02*
X178719923Y-128253371D01*
X178719923Y-128253371D02*
X178672304Y-128300990D01*
X178672304Y-128300990D02*
X178624685Y-128396228D01*
X178624685Y-128396228D02*
X178624685Y-128681942D01*
X178624685Y-128681942D02*
X178672304Y-128777180D01*
X178672304Y-128777180D02*
X178719923Y-128824800D01*
X178719923Y-128824800D02*
X178815161Y-128872419D01*
X178815161Y-128872419D02*
X178958018Y-128872419D01*
X177767542Y-128205752D02*
X177767542Y-128872419D01*
X178196113Y-128205752D02*
X178196113Y-128729561D01*
X178196113Y-128729561D02*
X178148494Y-128824800D01*
X178148494Y-128824800D02*
X178053256Y-128872419D01*
X178053256Y-128872419D02*
X177910399Y-128872419D01*
X177910399Y-128872419D02*
X177815161Y-128824800D01*
X177815161Y-128824800D02*
X177767542Y-128777180D01*
X177291351Y-128872419D02*
X177291351Y-128205752D01*
X177291351Y-128396228D02*
X177243732Y-128300990D01*
X177243732Y-128300990D02*
X177196113Y-128253371D01*
X177196113Y-128253371D02*
X177100875Y-128205752D01*
X177100875Y-128205752D02*
X177005637Y-128205752D01*
X176243732Y-128824800D02*
X176338970Y-128872419D01*
X176338970Y-128872419D02*
X176529446Y-128872419D01*
X176529446Y-128872419D02*
X176624684Y-128824800D01*
X176624684Y-128824800D02*
X176672303Y-128777180D01*
X176672303Y-128777180D02*
X176719922Y-128681942D01*
X176719922Y-128681942D02*
X176719922Y-128396228D01*
X176719922Y-128396228D02*
X176672303Y-128300990D01*
X176672303Y-128300990D02*
X176624684Y-128253371D01*
X176624684Y-128253371D02*
X176529446Y-128205752D01*
X176529446Y-128205752D02*
X176338970Y-128205752D01*
X176338970Y-128205752D02*
X176243732Y-128253371D01*
X175434208Y-128824800D02*
X175529446Y-128872419D01*
X175529446Y-128872419D02*
X175719922Y-128872419D01*
X175719922Y-128872419D02*
X175815160Y-128824800D01*
X175815160Y-128824800D02*
X175862779Y-128729561D01*
X175862779Y-128729561D02*
X175862779Y-128348609D01*
X175862779Y-128348609D02*
X175815160Y-128253371D01*
X175815160Y-128253371D02*
X175719922Y-128205752D01*
X175719922Y-128205752D02*
X175529446Y-128205752D01*
X175529446Y-128205752D02*
X175434208Y-128253371D01*
X175434208Y-128253371D02*
X175386589Y-128348609D01*
X175386589Y-128348609D02*
X175386589Y-128443847D01*
X175386589Y-128443847D02*
X175862779Y-128539085D01*
X174196112Y-128777180D02*
X174148493Y-128824800D01*
X174148493Y-128824800D02*
X174196112Y-128872419D01*
X174196112Y-128872419D02*
X174243731Y-128824800D01*
X174243731Y-128824800D02*
X174196112Y-128777180D01*
X174196112Y-128777180D02*
X174196112Y-128872419D01*
X174196112Y-128491466D02*
X174243731Y-127920038D01*
X174243731Y-127920038D02*
X174196112Y-127872419D01*
X174196112Y-127872419D02*
X174148493Y-127920038D01*
X174148493Y-127920038D02*
X174196112Y-128491466D01*
X174196112Y-128491466D02*
X174196112Y-127872419D01*
D11*
X147333333Y-126224819D02*
X147333333Y-126939104D01*
X147333333Y-126939104D02*
X147380952Y-127081961D01*
X147380952Y-127081961D02*
X147476190Y-127177200D01*
X147476190Y-127177200D02*
X147619047Y-127224819D01*
X147619047Y-127224819D02*
X147714285Y-127224819D01*
X146952380Y-126224819D02*
X146285714Y-126224819D01*
X146285714Y-126224819D02*
X146714285Y-127224819D01*
X128164819Y-101841666D02*
X128879104Y-101841666D01*
X128879104Y-101841666D02*
X129021961Y-101794047D01*
X129021961Y-101794047D02*
X129117200Y-101698809D01*
X129117200Y-101698809D02*
X129164819Y-101555952D01*
X129164819Y-101555952D02*
X129164819Y-101460714D01*
X128164819Y-102794047D02*
X128164819Y-102317857D01*
X128164819Y-102317857D02*
X128641009Y-102270238D01*
X128641009Y-102270238D02*
X128593390Y-102317857D01*
X128593390Y-102317857D02*
X128545771Y-102413095D01*
X128545771Y-102413095D02*
X128545771Y-102651190D01*
X128545771Y-102651190D02*
X128593390Y-102746428D01*
X128593390Y-102746428D02*
X128641009Y-102794047D01*
X128641009Y-102794047D02*
X128736247Y-102841666D01*
X128736247Y-102841666D02*
X128974342Y-102841666D01*
X128974342Y-102841666D02*
X129069580Y-102794047D01*
X129069580Y-102794047D02*
X129117200Y-102746428D01*
X129117200Y-102746428D02*
X129164819Y-102651190D01*
X129164819Y-102651190D02*
X129164819Y-102413095D01*
X129164819Y-102413095D02*
X129117200Y-102317857D01*
X129117200Y-102317857D02*
X129069580Y-102270238D01*
X112144819Y-104666666D02*
X112859104Y-104666666D01*
X112859104Y-104666666D02*
X113001961Y-104619047D01*
X113001961Y-104619047D02*
X113097200Y-104523809D01*
X113097200Y-104523809D02*
X113144819Y-104380952D01*
X113144819Y-104380952D02*
X113144819Y-104285714D01*
X112478152Y-105571428D02*
X113144819Y-105571428D01*
X112097200Y-105333333D02*
X112811485Y-105095238D01*
X112811485Y-105095238D02*
X112811485Y-105714285D01*
D12*
%TO.C,J7*%
X145670000Y-120130000D02*
X148330000Y-120130000D01*
X145670000Y-122730000D02*
X145670000Y-120130000D01*
X145670000Y-122730000D02*
X148330000Y-122730000D01*
X147000000Y-125330000D02*
X148330000Y-125330000D01*
X148330000Y-122730000D02*
X148330000Y-120130000D01*
X148330000Y-125330000D02*
X148330000Y-124000000D01*
%TO.C,J5*%
X125670000Y-106330000D02*
X125670000Y-103670000D01*
X128270000Y-103670000D02*
X125670000Y-103670000D01*
X128270000Y-106330000D02*
X125670000Y-106330000D01*
X128270000Y-106330000D02*
X128270000Y-103670000D01*
X130870000Y-103670000D02*
X129540000Y-103670000D01*
X130870000Y-105000000D02*
X130870000Y-103670000D01*
%TO.C,J4*%
X114130000Y-105000000D02*
X114130000Y-106330000D01*
X114130000Y-106330000D02*
X115460000Y-106330000D01*
X116730000Y-103670000D02*
X116730000Y-106330000D01*
X116730000Y-103670000D02*
X119330000Y-103670000D01*
X116730000Y-106330000D02*
X119330000Y-106330000D01*
X119330000Y-103670000D02*
X119330000Y-106330000D01*
%TD*%
M02*
