%TF.GenerationSoftware,KiCad,Pcbnew,9.0.5*%
%TF.CreationDate,2026-02-14T18:46:13+01:00*%
%TF.ProjectId,DriveAssist_Kicad,44726976-6541-4737-9369-73745f4b6963,1.0*%
%TF.SameCoordinates,Original*%
%TF.FileFunction,Legend,Top*%
%TF.FilePolarity,Positive*%
%FSLAX46Y46*%
G04 Gerber Fmt 4.6, Leading zero omitted, Abs format (unit mm)*
G04 Created by KiCad (PCBNEW 9.0.5) date 2026-02-14 18:46:13*
%MOMM*%
%LPD*%
G01*
G04 APERTURE LIST*
%ADD10C,0.100000*%
%ADD11C,0.150000*%
%ADD12C,0.120000*%
%ADD13C,0.127000*%
%ADD14C,0.200000*%
G04 APERTURE END LIST*
D10*
X113756265Y-69324800D02*
X113899122Y-69372419D01*
X113899122Y-69372419D02*
X114137217Y-69372419D01*
X114137217Y-69372419D02*
X114232455Y-69324800D01*
X114232455Y-69324800D02*
X114280074Y-69277180D01*
X114280074Y-69277180D02*
X114327693Y-69181942D01*
X114327693Y-69181942D02*
X114327693Y-69086704D01*
X114327693Y-69086704D02*
X114280074Y-68991466D01*
X114280074Y-68991466D02*
X114232455Y-68943847D01*
X114232455Y-68943847D02*
X114137217Y-68896228D01*
X114137217Y-68896228D02*
X113946741Y-68848609D01*
X113946741Y-68848609D02*
X113851503Y-68800990D01*
X113851503Y-68800990D02*
X113803884Y-68753371D01*
X113803884Y-68753371D02*
X113756265Y-68658133D01*
X113756265Y-68658133D02*
X113756265Y-68562895D01*
X113756265Y-68562895D02*
X113803884Y-68467657D01*
X113803884Y-68467657D02*
X113851503Y-68420038D01*
X113851503Y-68420038D02*
X113946741Y-68372419D01*
X113946741Y-68372419D02*
X114184836Y-68372419D01*
X114184836Y-68372419D02*
X114327693Y-68420038D01*
X114756265Y-68705752D02*
X114756265Y-69705752D01*
X114756265Y-68753371D02*
X114851503Y-68705752D01*
X114851503Y-68705752D02*
X115041979Y-68705752D01*
X115041979Y-68705752D02*
X115137217Y-68753371D01*
X115137217Y-68753371D02*
X115184836Y-68800990D01*
X115184836Y-68800990D02*
X115232455Y-68896228D01*
X115232455Y-68896228D02*
X115232455Y-69181942D01*
X115232455Y-69181942D02*
X115184836Y-69277180D01*
X115184836Y-69277180D02*
X115137217Y-69324800D01*
X115137217Y-69324800D02*
X115041979Y-69372419D01*
X115041979Y-69372419D02*
X114851503Y-69372419D01*
X114851503Y-69372419D02*
X114756265Y-69324800D01*
X116041979Y-69324800D02*
X115946741Y-69372419D01*
X115946741Y-69372419D02*
X115756265Y-69372419D01*
X115756265Y-69372419D02*
X115661027Y-69324800D01*
X115661027Y-69324800D02*
X115613408Y-69229561D01*
X115613408Y-69229561D02*
X115613408Y-68848609D01*
X115613408Y-68848609D02*
X115661027Y-68753371D01*
X115661027Y-68753371D02*
X115756265Y-68705752D01*
X115756265Y-68705752D02*
X115946741Y-68705752D01*
X115946741Y-68705752D02*
X116041979Y-68753371D01*
X116041979Y-68753371D02*
X116089598Y-68848609D01*
X116089598Y-68848609D02*
X116089598Y-68943847D01*
X116089598Y-68943847D02*
X115613408Y-69039085D01*
X116946741Y-69372419D02*
X116946741Y-68848609D01*
X116946741Y-68848609D02*
X116899122Y-68753371D01*
X116899122Y-68753371D02*
X116803884Y-68705752D01*
X116803884Y-68705752D02*
X116613408Y-68705752D01*
X116613408Y-68705752D02*
X116518170Y-68753371D01*
X116946741Y-69324800D02*
X116851503Y-69372419D01*
X116851503Y-69372419D02*
X116613408Y-69372419D01*
X116613408Y-69372419D02*
X116518170Y-69324800D01*
X116518170Y-69324800D02*
X116470551Y-69229561D01*
X116470551Y-69229561D02*
X116470551Y-69134323D01*
X116470551Y-69134323D02*
X116518170Y-69039085D01*
X116518170Y-69039085D02*
X116613408Y-68991466D01*
X116613408Y-68991466D02*
X116851503Y-68991466D01*
X116851503Y-68991466D02*
X116946741Y-68943847D01*
X117422932Y-69372419D02*
X117422932Y-68372419D01*
X117518170Y-68991466D02*
X117803884Y-69372419D01*
X117803884Y-68705752D02*
X117422932Y-69086704D01*
X118613408Y-69324800D02*
X118518170Y-69372419D01*
X118518170Y-69372419D02*
X118327694Y-69372419D01*
X118327694Y-69372419D02*
X118232456Y-69324800D01*
X118232456Y-69324800D02*
X118184837Y-69229561D01*
X118184837Y-69229561D02*
X118184837Y-68848609D01*
X118184837Y-68848609D02*
X118232456Y-68753371D01*
X118232456Y-68753371D02*
X118327694Y-68705752D01*
X118327694Y-68705752D02*
X118518170Y-68705752D01*
X118518170Y-68705752D02*
X118613408Y-68753371D01*
X118613408Y-68753371D02*
X118661027Y-68848609D01*
X118661027Y-68848609D02*
X118661027Y-68943847D01*
X118661027Y-68943847D02*
X118184837Y-69039085D01*
X119089599Y-69372419D02*
X119089599Y-68705752D01*
X119089599Y-68896228D02*
X119137218Y-68800990D01*
X119137218Y-68800990D02*
X119184837Y-68753371D01*
X119184837Y-68753371D02*
X119280075Y-68705752D01*
X119280075Y-68705752D02*
X119375313Y-68705752D01*
X187827693Y-79920038D02*
X187732455Y-79872419D01*
X187732455Y-79872419D02*
X187589598Y-79872419D01*
X187589598Y-79872419D02*
X187446741Y-79920038D01*
X187446741Y-79920038D02*
X187351503Y-80015276D01*
X187351503Y-80015276D02*
X187303884Y-80110514D01*
X187303884Y-80110514D02*
X187256265Y-80300990D01*
X187256265Y-80300990D02*
X187256265Y-80443847D01*
X187256265Y-80443847D02*
X187303884Y-80634323D01*
X187303884Y-80634323D02*
X187351503Y-80729561D01*
X187351503Y-80729561D02*
X187446741Y-80824800D01*
X187446741Y-80824800D02*
X187589598Y-80872419D01*
X187589598Y-80872419D02*
X187684836Y-80872419D01*
X187684836Y-80872419D02*
X187827693Y-80824800D01*
X187827693Y-80824800D02*
X187875312Y-80777180D01*
X187875312Y-80777180D02*
X187875312Y-80443847D01*
X187875312Y-80443847D02*
X187684836Y-80443847D01*
X188303884Y-80872419D02*
X188303884Y-79872419D01*
X188303884Y-79872419D02*
X188875312Y-80872419D01*
X188875312Y-80872419D02*
X188875312Y-79872419D01*
X189351503Y-80872419D02*
X189351503Y-79872419D01*
X189351503Y-79872419D02*
X189589598Y-79872419D01*
X189589598Y-79872419D02*
X189732455Y-79920038D01*
X189732455Y-79920038D02*
X189827693Y-80015276D01*
X189827693Y-80015276D02*
X189875312Y-80110514D01*
X189875312Y-80110514D02*
X189922931Y-80300990D01*
X189922931Y-80300990D02*
X189922931Y-80443847D01*
X189922931Y-80443847D02*
X189875312Y-80634323D01*
X189875312Y-80634323D02*
X189827693Y-80729561D01*
X189827693Y-80729561D02*
X189732455Y-80824800D01*
X189732455Y-80824800D02*
X189589598Y-80872419D01*
X189589598Y-80872419D02*
X189351503Y-80872419D01*
X188280074Y-73372419D02*
X187803884Y-73372419D01*
X187803884Y-73372419D02*
X187756265Y-73848609D01*
X187756265Y-73848609D02*
X187803884Y-73800990D01*
X187803884Y-73800990D02*
X187899122Y-73753371D01*
X187899122Y-73753371D02*
X188137217Y-73753371D01*
X188137217Y-73753371D02*
X188232455Y-73800990D01*
X188232455Y-73800990D02*
X188280074Y-73848609D01*
X188280074Y-73848609D02*
X188327693Y-73943847D01*
X188327693Y-73943847D02*
X188327693Y-74181942D01*
X188327693Y-74181942D02*
X188280074Y-74277180D01*
X188280074Y-74277180D02*
X188232455Y-74324800D01*
X188232455Y-74324800D02*
X188137217Y-74372419D01*
X188137217Y-74372419D02*
X187899122Y-74372419D01*
X187899122Y-74372419D02*
X187803884Y-74324800D01*
X187803884Y-74324800D02*
X187756265Y-74277180D01*
X188613408Y-73372419D02*
X188946741Y-74372419D01*
X188946741Y-74372419D02*
X189280074Y-73372419D01*
X181756265Y-109586704D02*
X182232455Y-109586704D01*
X181661027Y-109872419D02*
X181994360Y-108872419D01*
X181994360Y-108872419D02*
X182327693Y-109872419D01*
X182661027Y-109872419D02*
X182661027Y-108872419D01*
X182661027Y-108872419D02*
X183041979Y-108872419D01*
X183041979Y-108872419D02*
X183137217Y-108920038D01*
X183137217Y-108920038D02*
X183184836Y-108967657D01*
X183184836Y-108967657D02*
X183232455Y-109062895D01*
X183232455Y-109062895D02*
X183232455Y-109205752D01*
X183232455Y-109205752D02*
X183184836Y-109300990D01*
X183184836Y-109300990D02*
X183137217Y-109348609D01*
X183137217Y-109348609D02*
X183041979Y-109396228D01*
X183041979Y-109396228D02*
X182661027Y-109396228D01*
X183661027Y-109872419D02*
X183661027Y-108872419D01*
X183661027Y-108872419D02*
X183899122Y-108872419D01*
X183899122Y-108872419D02*
X184041979Y-108920038D01*
X184041979Y-108920038D02*
X184137217Y-109015276D01*
X184137217Y-109015276D02*
X184184836Y-109110514D01*
X184184836Y-109110514D02*
X184232455Y-109300990D01*
X184232455Y-109300990D02*
X184232455Y-109443847D01*
X184232455Y-109443847D02*
X184184836Y-109634323D01*
X184184836Y-109634323D02*
X184137217Y-109729561D01*
X184137217Y-109729561D02*
X184041979Y-109824800D01*
X184041979Y-109824800D02*
X183899122Y-109872419D01*
X183899122Y-109872419D02*
X183661027Y-109872419D01*
X184613408Y-109824800D02*
X184756265Y-109872419D01*
X184756265Y-109872419D02*
X184994360Y-109872419D01*
X184994360Y-109872419D02*
X185089598Y-109824800D01*
X185089598Y-109824800D02*
X185137217Y-109777180D01*
X185137217Y-109777180D02*
X185184836Y-109681942D01*
X185184836Y-109681942D02*
X185184836Y-109586704D01*
X185184836Y-109586704D02*
X185137217Y-109491466D01*
X185137217Y-109491466D02*
X185089598Y-109443847D01*
X185089598Y-109443847D02*
X184994360Y-109396228D01*
X184994360Y-109396228D02*
X184803884Y-109348609D01*
X184803884Y-109348609D02*
X184708646Y-109300990D01*
X184708646Y-109300990D02*
X184661027Y-109253371D01*
X184661027Y-109253371D02*
X184613408Y-109158133D01*
X184613408Y-109158133D02*
X184613408Y-109062895D01*
X184613408Y-109062895D02*
X184661027Y-108967657D01*
X184661027Y-108967657D02*
X184708646Y-108920038D01*
X184708646Y-108920038D02*
X184803884Y-108872419D01*
X184803884Y-108872419D02*
X185041979Y-108872419D01*
X185041979Y-108872419D02*
X185184836Y-108920038D01*
X185661027Y-109872419D02*
X185851503Y-109872419D01*
X185851503Y-109872419D02*
X185946741Y-109824800D01*
X185946741Y-109824800D02*
X185994360Y-109777180D01*
X185994360Y-109777180D02*
X186089598Y-109634323D01*
X186089598Y-109634323D02*
X186137217Y-109443847D01*
X186137217Y-109443847D02*
X186137217Y-109062895D01*
X186137217Y-109062895D02*
X186089598Y-108967657D01*
X186089598Y-108967657D02*
X186041979Y-108920038D01*
X186041979Y-108920038D02*
X185946741Y-108872419D01*
X185946741Y-108872419D02*
X185756265Y-108872419D01*
X185756265Y-108872419D02*
X185661027Y-108920038D01*
X185661027Y-108920038D02*
X185613408Y-108967657D01*
X185613408Y-108967657D02*
X185565789Y-109062895D01*
X185565789Y-109062895D02*
X185565789Y-109300990D01*
X185565789Y-109300990D02*
X185613408Y-109396228D01*
X185613408Y-109396228D02*
X185661027Y-109443847D01*
X185661027Y-109443847D02*
X185756265Y-109491466D01*
X185756265Y-109491466D02*
X185946741Y-109491466D01*
X185946741Y-109491466D02*
X186041979Y-109443847D01*
X186041979Y-109443847D02*
X186089598Y-109396228D01*
X186089598Y-109396228D02*
X186137217Y-109300990D01*
X186613408Y-109872419D02*
X186803884Y-109872419D01*
X186803884Y-109872419D02*
X186899122Y-109824800D01*
X186899122Y-109824800D02*
X186946741Y-109777180D01*
X186946741Y-109777180D02*
X187041979Y-109634323D01*
X187041979Y-109634323D02*
X187089598Y-109443847D01*
X187089598Y-109443847D02*
X187089598Y-109062895D01*
X187089598Y-109062895D02*
X187041979Y-108967657D01*
X187041979Y-108967657D02*
X186994360Y-108920038D01*
X186994360Y-108920038D02*
X186899122Y-108872419D01*
X186899122Y-108872419D02*
X186708646Y-108872419D01*
X186708646Y-108872419D02*
X186613408Y-108920038D01*
X186613408Y-108920038D02*
X186565789Y-108967657D01*
X186565789Y-108967657D02*
X186518170Y-109062895D01*
X186518170Y-109062895D02*
X186518170Y-109300990D01*
X186518170Y-109300990D02*
X186565789Y-109396228D01*
X186565789Y-109396228D02*
X186613408Y-109443847D01*
X186613408Y-109443847D02*
X186708646Y-109491466D01*
X186708646Y-109491466D02*
X186899122Y-109491466D01*
X186899122Y-109491466D02*
X186994360Y-109443847D01*
X186994360Y-109443847D02*
X187041979Y-109396228D01*
X187041979Y-109396228D02*
X187089598Y-109300990D01*
X187946741Y-108872419D02*
X187756265Y-108872419D01*
X187756265Y-108872419D02*
X187661027Y-108920038D01*
X187661027Y-108920038D02*
X187613408Y-108967657D01*
X187613408Y-108967657D02*
X187518170Y-109110514D01*
X187518170Y-109110514D02*
X187470551Y-109300990D01*
X187470551Y-109300990D02*
X187470551Y-109681942D01*
X187470551Y-109681942D02*
X187518170Y-109777180D01*
X187518170Y-109777180D02*
X187565789Y-109824800D01*
X187565789Y-109824800D02*
X187661027Y-109872419D01*
X187661027Y-109872419D02*
X187851503Y-109872419D01*
X187851503Y-109872419D02*
X187946741Y-109824800D01*
X187946741Y-109824800D02*
X187994360Y-109777180D01*
X187994360Y-109777180D02*
X188041979Y-109681942D01*
X188041979Y-109681942D02*
X188041979Y-109443847D01*
X188041979Y-109443847D02*
X187994360Y-109348609D01*
X187994360Y-109348609D02*
X187946741Y-109300990D01*
X187946741Y-109300990D02*
X187851503Y-109253371D01*
X187851503Y-109253371D02*
X187661027Y-109253371D01*
X187661027Y-109253371D02*
X187565789Y-109300990D01*
X187565789Y-109300990D02*
X187518170Y-109348609D01*
X187518170Y-109348609D02*
X187470551Y-109443847D01*
X188661027Y-108872419D02*
X188756265Y-108872419D01*
X188756265Y-108872419D02*
X188851503Y-108920038D01*
X188851503Y-108920038D02*
X188899122Y-108967657D01*
X188899122Y-108967657D02*
X188946741Y-109062895D01*
X188946741Y-109062895D02*
X188994360Y-109253371D01*
X188994360Y-109253371D02*
X188994360Y-109491466D01*
X188994360Y-109491466D02*
X188946741Y-109681942D01*
X188946741Y-109681942D02*
X188899122Y-109777180D01*
X188899122Y-109777180D02*
X188851503Y-109824800D01*
X188851503Y-109824800D02*
X188756265Y-109872419D01*
X188756265Y-109872419D02*
X188661027Y-109872419D01*
X188661027Y-109872419D02*
X188565789Y-109824800D01*
X188565789Y-109824800D02*
X188518170Y-109777180D01*
X188518170Y-109777180D02*
X188470551Y-109681942D01*
X188470551Y-109681942D02*
X188422932Y-109491466D01*
X188422932Y-109491466D02*
X188422932Y-109253371D01*
X188422932Y-109253371D02*
X188470551Y-109062895D01*
X188470551Y-109062895D02*
X188518170Y-108967657D01*
X188518170Y-108967657D02*
X188565789Y-108920038D01*
X188565789Y-108920038D02*
X188661027Y-108872419D01*
X145827693Y-75420038D02*
X145732455Y-75372419D01*
X145732455Y-75372419D02*
X145589598Y-75372419D01*
X145589598Y-75372419D02*
X145446741Y-75420038D01*
X145446741Y-75420038D02*
X145351503Y-75515276D01*
X145351503Y-75515276D02*
X145303884Y-75610514D01*
X145303884Y-75610514D02*
X145256265Y-75800990D01*
X145256265Y-75800990D02*
X145256265Y-75943847D01*
X145256265Y-75943847D02*
X145303884Y-76134323D01*
X145303884Y-76134323D02*
X145351503Y-76229561D01*
X145351503Y-76229561D02*
X145446741Y-76324800D01*
X145446741Y-76324800D02*
X145589598Y-76372419D01*
X145589598Y-76372419D02*
X145684836Y-76372419D01*
X145684836Y-76372419D02*
X145827693Y-76324800D01*
X145827693Y-76324800D02*
X145875312Y-76277180D01*
X145875312Y-76277180D02*
X145875312Y-75943847D01*
X145875312Y-75943847D02*
X145684836Y-75943847D01*
X146303884Y-76372419D02*
X146303884Y-75372419D01*
X146303884Y-75372419D02*
X146684836Y-75372419D01*
X146684836Y-75372419D02*
X146780074Y-75420038D01*
X146780074Y-75420038D02*
X146827693Y-75467657D01*
X146827693Y-75467657D02*
X146875312Y-75562895D01*
X146875312Y-75562895D02*
X146875312Y-75705752D01*
X146875312Y-75705752D02*
X146827693Y-75800990D01*
X146827693Y-75800990D02*
X146780074Y-75848609D01*
X146780074Y-75848609D02*
X146684836Y-75896228D01*
X146684836Y-75896228D02*
X146303884Y-75896228D01*
X147256265Y-76324800D02*
X147399122Y-76372419D01*
X147399122Y-76372419D02*
X147637217Y-76372419D01*
X147637217Y-76372419D02*
X147732455Y-76324800D01*
X147732455Y-76324800D02*
X147780074Y-76277180D01*
X147780074Y-76277180D02*
X147827693Y-76181942D01*
X147827693Y-76181942D02*
X147827693Y-76086704D01*
X147827693Y-76086704D02*
X147780074Y-75991466D01*
X147780074Y-75991466D02*
X147732455Y-75943847D01*
X147732455Y-75943847D02*
X147637217Y-75896228D01*
X147637217Y-75896228D02*
X147446741Y-75848609D01*
X147446741Y-75848609D02*
X147351503Y-75800990D01*
X147351503Y-75800990D02*
X147303884Y-75753371D01*
X147303884Y-75753371D02*
X147256265Y-75658133D01*
X147256265Y-75658133D02*
X147256265Y-75562895D01*
X147256265Y-75562895D02*
X147303884Y-75467657D01*
X147303884Y-75467657D02*
X147351503Y-75420038D01*
X147351503Y-75420038D02*
X147446741Y-75372419D01*
X147446741Y-75372419D02*
X147684836Y-75372419D01*
X147684836Y-75372419D02*
X147827693Y-75420038D01*
X186637217Y-127848609D02*
X186303884Y-127848609D01*
X186303884Y-128372419D02*
X186303884Y-127372419D01*
X186303884Y-127372419D02*
X186780074Y-127372419D01*
X187541979Y-128324800D02*
X187446741Y-128372419D01*
X187446741Y-128372419D02*
X187256265Y-128372419D01*
X187256265Y-128372419D02*
X187161027Y-128324800D01*
X187161027Y-128324800D02*
X187113408Y-128229561D01*
X187113408Y-128229561D02*
X187113408Y-127848609D01*
X187113408Y-127848609D02*
X187161027Y-127753371D01*
X187161027Y-127753371D02*
X187256265Y-127705752D01*
X187256265Y-127705752D02*
X187446741Y-127705752D01*
X187446741Y-127705752D02*
X187541979Y-127753371D01*
X187541979Y-127753371D02*
X187589598Y-127848609D01*
X187589598Y-127848609D02*
X187589598Y-127943847D01*
X187589598Y-127943847D02*
X187113408Y-128039085D01*
X188018170Y-128372419D02*
X188018170Y-127372419D01*
X188018170Y-127753371D02*
X188113408Y-127705752D01*
X188113408Y-127705752D02*
X188303884Y-127705752D01*
X188303884Y-127705752D02*
X188399122Y-127753371D01*
X188399122Y-127753371D02*
X188446741Y-127800990D01*
X188446741Y-127800990D02*
X188494360Y-127896228D01*
X188494360Y-127896228D02*
X188494360Y-128181942D01*
X188494360Y-128181942D02*
X188446741Y-128277180D01*
X188446741Y-128277180D02*
X188399122Y-128324800D01*
X188399122Y-128324800D02*
X188303884Y-128372419D01*
X188303884Y-128372419D02*
X188113408Y-128372419D01*
X188113408Y-128372419D02*
X188018170Y-128324800D01*
X188922932Y-128277180D02*
X188970551Y-128324800D01*
X188970551Y-128324800D02*
X188922932Y-128372419D01*
X188922932Y-128372419D02*
X188875313Y-128324800D01*
X188875313Y-128324800D02*
X188922932Y-128277180D01*
X188922932Y-128277180D02*
X188922932Y-128372419D01*
X189351503Y-127467657D02*
X189399122Y-127420038D01*
X189399122Y-127420038D02*
X189494360Y-127372419D01*
X189494360Y-127372419D02*
X189732455Y-127372419D01*
X189732455Y-127372419D02*
X189827693Y-127420038D01*
X189827693Y-127420038D02*
X189875312Y-127467657D01*
X189875312Y-127467657D02*
X189922931Y-127562895D01*
X189922931Y-127562895D02*
X189922931Y-127658133D01*
X189922931Y-127658133D02*
X189875312Y-127800990D01*
X189875312Y-127800990D02*
X189303884Y-128372419D01*
X189303884Y-128372419D02*
X189922931Y-128372419D01*
X190541979Y-127372419D02*
X190637217Y-127372419D01*
X190637217Y-127372419D02*
X190732455Y-127420038D01*
X190732455Y-127420038D02*
X190780074Y-127467657D01*
X190780074Y-127467657D02*
X190827693Y-127562895D01*
X190827693Y-127562895D02*
X190875312Y-127753371D01*
X190875312Y-127753371D02*
X190875312Y-127991466D01*
X190875312Y-127991466D02*
X190827693Y-128181942D01*
X190827693Y-128181942D02*
X190780074Y-128277180D01*
X190780074Y-128277180D02*
X190732455Y-128324800D01*
X190732455Y-128324800D02*
X190637217Y-128372419D01*
X190637217Y-128372419D02*
X190541979Y-128372419D01*
X190541979Y-128372419D02*
X190446741Y-128324800D01*
X190446741Y-128324800D02*
X190399122Y-128277180D01*
X190399122Y-128277180D02*
X190351503Y-128181942D01*
X190351503Y-128181942D02*
X190303884Y-127991466D01*
X190303884Y-127991466D02*
X190303884Y-127753371D01*
X190303884Y-127753371D02*
X190351503Y-127562895D01*
X190351503Y-127562895D02*
X190399122Y-127467657D01*
X190399122Y-127467657D02*
X190446741Y-127420038D01*
X190446741Y-127420038D02*
X190541979Y-127372419D01*
X191256265Y-127467657D02*
X191303884Y-127420038D01*
X191303884Y-127420038D02*
X191399122Y-127372419D01*
X191399122Y-127372419D02*
X191637217Y-127372419D01*
X191637217Y-127372419D02*
X191732455Y-127420038D01*
X191732455Y-127420038D02*
X191780074Y-127467657D01*
X191780074Y-127467657D02*
X191827693Y-127562895D01*
X191827693Y-127562895D02*
X191827693Y-127658133D01*
X191827693Y-127658133D02*
X191780074Y-127800990D01*
X191780074Y-127800990D02*
X191208646Y-128372419D01*
X191208646Y-128372419D02*
X191827693Y-128372419D01*
X192684836Y-127372419D02*
X192494360Y-127372419D01*
X192494360Y-127372419D02*
X192399122Y-127420038D01*
X192399122Y-127420038D02*
X192351503Y-127467657D01*
X192351503Y-127467657D02*
X192256265Y-127610514D01*
X192256265Y-127610514D02*
X192208646Y-127800990D01*
X192208646Y-127800990D02*
X192208646Y-128181942D01*
X192208646Y-128181942D02*
X192256265Y-128277180D01*
X192256265Y-128277180D02*
X192303884Y-128324800D01*
X192303884Y-128324800D02*
X192399122Y-128372419D01*
X192399122Y-128372419D02*
X192589598Y-128372419D01*
X192589598Y-128372419D02*
X192684836Y-128324800D01*
X192684836Y-128324800D02*
X192732455Y-128277180D01*
X192732455Y-128277180D02*
X192780074Y-128181942D01*
X192780074Y-128181942D02*
X192780074Y-127943847D01*
X192780074Y-127943847D02*
X192732455Y-127848609D01*
X192732455Y-127848609D02*
X192684836Y-127800990D01*
X192684836Y-127800990D02*
X192589598Y-127753371D01*
X192589598Y-127753371D02*
X192399122Y-127753371D01*
X192399122Y-127753371D02*
X192303884Y-127800990D01*
X192303884Y-127800990D02*
X192256265Y-127848609D01*
X192256265Y-127848609D02*
X192208646Y-127943847D01*
X110803884Y-126762475D02*
X110803884Y-125762475D01*
X110803884Y-125762475D02*
X111041979Y-125762475D01*
X111041979Y-125762475D02*
X111184836Y-125810094D01*
X111184836Y-125810094D02*
X111280074Y-125905332D01*
X111280074Y-125905332D02*
X111327693Y-126000570D01*
X111327693Y-126000570D02*
X111375312Y-126191046D01*
X111375312Y-126191046D02*
X111375312Y-126333903D01*
X111375312Y-126333903D02*
X111327693Y-126524379D01*
X111327693Y-126524379D02*
X111280074Y-126619617D01*
X111280074Y-126619617D02*
X111184836Y-126714856D01*
X111184836Y-126714856D02*
X111041979Y-126762475D01*
X111041979Y-126762475D02*
X110803884Y-126762475D01*
X111803884Y-126762475D02*
X111803884Y-126095808D01*
X111803884Y-126286284D02*
X111851503Y-126191046D01*
X111851503Y-126191046D02*
X111899122Y-126143427D01*
X111899122Y-126143427D02*
X111994360Y-126095808D01*
X111994360Y-126095808D02*
X112089598Y-126095808D01*
X112422932Y-126762475D02*
X112422932Y-126095808D01*
X112422932Y-125762475D02*
X112375313Y-125810094D01*
X112375313Y-125810094D02*
X112422932Y-125857713D01*
X112422932Y-125857713D02*
X112470551Y-125810094D01*
X112470551Y-125810094D02*
X112422932Y-125762475D01*
X112422932Y-125762475D02*
X112422932Y-125857713D01*
X112803884Y-126095808D02*
X113041979Y-126762475D01*
X113041979Y-126762475D02*
X113280074Y-126095808D01*
X114041979Y-126714856D02*
X113946741Y-126762475D01*
X113946741Y-126762475D02*
X113756265Y-126762475D01*
X113756265Y-126762475D02*
X113661027Y-126714856D01*
X113661027Y-126714856D02*
X113613408Y-126619617D01*
X113613408Y-126619617D02*
X113613408Y-126238665D01*
X113613408Y-126238665D02*
X113661027Y-126143427D01*
X113661027Y-126143427D02*
X113756265Y-126095808D01*
X113756265Y-126095808D02*
X113946741Y-126095808D01*
X113946741Y-126095808D02*
X114041979Y-126143427D01*
X114041979Y-126143427D02*
X114089598Y-126238665D01*
X114089598Y-126238665D02*
X114089598Y-126333903D01*
X114089598Y-126333903D02*
X113613408Y-126429141D01*
X114518170Y-126762475D02*
X114518170Y-126095808D01*
X114518170Y-126286284D02*
X114565789Y-126191046D01*
X114565789Y-126191046D02*
X114613408Y-126143427D01*
X114613408Y-126143427D02*
X114708646Y-126095808D01*
X114708646Y-126095808D02*
X114803884Y-126095808D01*
X115851504Y-126476760D02*
X116327694Y-126476760D01*
X115756266Y-126762475D02*
X116089599Y-125762475D01*
X116089599Y-125762475D02*
X116422932Y-126762475D01*
X116708647Y-126714856D02*
X116803885Y-126762475D01*
X116803885Y-126762475D02*
X116994361Y-126762475D01*
X116994361Y-126762475D02*
X117089599Y-126714856D01*
X117089599Y-126714856D02*
X117137218Y-126619617D01*
X117137218Y-126619617D02*
X117137218Y-126571998D01*
X117137218Y-126571998D02*
X117089599Y-126476760D01*
X117089599Y-126476760D02*
X116994361Y-126429141D01*
X116994361Y-126429141D02*
X116851504Y-126429141D01*
X116851504Y-126429141D02*
X116756266Y-126381522D01*
X116756266Y-126381522D02*
X116708647Y-126286284D01*
X116708647Y-126286284D02*
X116708647Y-126238665D01*
X116708647Y-126238665D02*
X116756266Y-126143427D01*
X116756266Y-126143427D02*
X116851504Y-126095808D01*
X116851504Y-126095808D02*
X116994361Y-126095808D01*
X116994361Y-126095808D02*
X117089599Y-126143427D01*
X117518171Y-126714856D02*
X117613409Y-126762475D01*
X117613409Y-126762475D02*
X117803885Y-126762475D01*
X117803885Y-126762475D02*
X117899123Y-126714856D01*
X117899123Y-126714856D02*
X117946742Y-126619617D01*
X117946742Y-126619617D02*
X117946742Y-126571998D01*
X117946742Y-126571998D02*
X117899123Y-126476760D01*
X117899123Y-126476760D02*
X117803885Y-126429141D01*
X117803885Y-126429141D02*
X117661028Y-126429141D01*
X117661028Y-126429141D02*
X117565790Y-126381522D01*
X117565790Y-126381522D02*
X117518171Y-126286284D01*
X117518171Y-126286284D02*
X117518171Y-126238665D01*
X117518171Y-126238665D02*
X117565790Y-126143427D01*
X117565790Y-126143427D02*
X117661028Y-126095808D01*
X117661028Y-126095808D02*
X117803885Y-126095808D01*
X117803885Y-126095808D02*
X117899123Y-126143427D01*
X118375314Y-126762475D02*
X118375314Y-126095808D01*
X118375314Y-125762475D02*
X118327695Y-125810094D01*
X118327695Y-125810094D02*
X118375314Y-125857713D01*
X118375314Y-125857713D02*
X118422933Y-125810094D01*
X118422933Y-125810094D02*
X118375314Y-125762475D01*
X118375314Y-125762475D02*
X118375314Y-125857713D01*
X118803885Y-126714856D02*
X118899123Y-126762475D01*
X118899123Y-126762475D02*
X119089599Y-126762475D01*
X119089599Y-126762475D02*
X119184837Y-126714856D01*
X119184837Y-126714856D02*
X119232456Y-126619617D01*
X119232456Y-126619617D02*
X119232456Y-126571998D01*
X119232456Y-126571998D02*
X119184837Y-126476760D01*
X119184837Y-126476760D02*
X119089599Y-126429141D01*
X119089599Y-126429141D02*
X118946742Y-126429141D01*
X118946742Y-126429141D02*
X118851504Y-126381522D01*
X118851504Y-126381522D02*
X118803885Y-126286284D01*
X118803885Y-126286284D02*
X118803885Y-126238665D01*
X118803885Y-126238665D02*
X118851504Y-126143427D01*
X118851504Y-126143427D02*
X118946742Y-126095808D01*
X118946742Y-126095808D02*
X119089599Y-126095808D01*
X119089599Y-126095808D02*
X119184837Y-126143427D01*
X119518171Y-126095808D02*
X119899123Y-126095808D01*
X119661028Y-125762475D02*
X119661028Y-126619617D01*
X119661028Y-126619617D02*
X119708647Y-126714856D01*
X119708647Y-126714856D02*
X119803885Y-126762475D01*
X119803885Y-126762475D02*
X119899123Y-126762475D01*
X110661027Y-127372419D02*
X110994360Y-128372419D01*
X110994360Y-128372419D02*
X111327693Y-127372419D01*
X112041979Y-128324800D02*
X111946741Y-128372419D01*
X111946741Y-128372419D02*
X111756265Y-128372419D01*
X111756265Y-128372419D02*
X111661027Y-128324800D01*
X111661027Y-128324800D02*
X111613408Y-128229561D01*
X111613408Y-128229561D02*
X111613408Y-127848609D01*
X111613408Y-127848609D02*
X111661027Y-127753371D01*
X111661027Y-127753371D02*
X111756265Y-127705752D01*
X111756265Y-127705752D02*
X111946741Y-127705752D01*
X111946741Y-127705752D02*
X112041979Y-127753371D01*
X112041979Y-127753371D02*
X112089598Y-127848609D01*
X112089598Y-127848609D02*
X112089598Y-127943847D01*
X112089598Y-127943847D02*
X111613408Y-128039085D01*
X112518170Y-128372419D02*
X112518170Y-127705752D01*
X112518170Y-127896228D02*
X112565789Y-127800990D01*
X112565789Y-127800990D02*
X112613408Y-127753371D01*
X112613408Y-127753371D02*
X112708646Y-127705752D01*
X112708646Y-127705752D02*
X112803884Y-127705752D01*
X113089599Y-128324800D02*
X113184837Y-128372419D01*
X113184837Y-128372419D02*
X113375313Y-128372419D01*
X113375313Y-128372419D02*
X113470551Y-128324800D01*
X113470551Y-128324800D02*
X113518170Y-128229561D01*
X113518170Y-128229561D02*
X113518170Y-128181942D01*
X113518170Y-128181942D02*
X113470551Y-128086704D01*
X113470551Y-128086704D02*
X113375313Y-128039085D01*
X113375313Y-128039085D02*
X113232456Y-128039085D01*
X113232456Y-128039085D02*
X113137218Y-127991466D01*
X113137218Y-127991466D02*
X113089599Y-127896228D01*
X113089599Y-127896228D02*
X113089599Y-127848609D01*
X113089599Y-127848609D02*
X113137218Y-127753371D01*
X113137218Y-127753371D02*
X113232456Y-127705752D01*
X113232456Y-127705752D02*
X113375313Y-127705752D01*
X113375313Y-127705752D02*
X113470551Y-127753371D01*
X113946742Y-128372419D02*
X113946742Y-127705752D01*
X113946742Y-127372419D02*
X113899123Y-127420038D01*
X113899123Y-127420038D02*
X113946742Y-127467657D01*
X113946742Y-127467657D02*
X113994361Y-127420038D01*
X113994361Y-127420038D02*
X113946742Y-127372419D01*
X113946742Y-127372419D02*
X113946742Y-127467657D01*
X114565789Y-128372419D02*
X114470551Y-128324800D01*
X114470551Y-128324800D02*
X114422932Y-128277180D01*
X114422932Y-128277180D02*
X114375313Y-128181942D01*
X114375313Y-128181942D02*
X114375313Y-127896228D01*
X114375313Y-127896228D02*
X114422932Y-127800990D01*
X114422932Y-127800990D02*
X114470551Y-127753371D01*
X114470551Y-127753371D02*
X114565789Y-127705752D01*
X114565789Y-127705752D02*
X114708646Y-127705752D01*
X114708646Y-127705752D02*
X114803884Y-127753371D01*
X114803884Y-127753371D02*
X114851503Y-127800990D01*
X114851503Y-127800990D02*
X114899122Y-127896228D01*
X114899122Y-127896228D02*
X114899122Y-128181942D01*
X114899122Y-128181942D02*
X114851503Y-128277180D01*
X114851503Y-128277180D02*
X114803884Y-128324800D01*
X114803884Y-128324800D02*
X114708646Y-128372419D01*
X114708646Y-128372419D02*
X114565789Y-128372419D01*
X115327694Y-127705752D02*
X115327694Y-128372419D01*
X115327694Y-127800990D02*
X115375313Y-127753371D01*
X115375313Y-127753371D02*
X115470551Y-127705752D01*
X115470551Y-127705752D02*
X115613408Y-127705752D01*
X115613408Y-127705752D02*
X115708646Y-127753371D01*
X115708646Y-127753371D02*
X115756265Y-127848609D01*
X115756265Y-127848609D02*
X115756265Y-128372419D01*
X117518170Y-128372419D02*
X116946742Y-128372419D01*
X117232456Y-128372419D02*
X117232456Y-127372419D01*
X117232456Y-127372419D02*
X117137218Y-127515276D01*
X117137218Y-127515276D02*
X117041980Y-127610514D01*
X117041980Y-127610514D02*
X116946742Y-127658133D01*
X117946742Y-128277180D02*
X117994361Y-128324800D01*
X117994361Y-128324800D02*
X117946742Y-128372419D01*
X117946742Y-128372419D02*
X117899123Y-128324800D01*
X117899123Y-128324800D02*
X117946742Y-128277180D01*
X117946742Y-128277180D02*
X117946742Y-128372419D01*
X118613408Y-127372419D02*
X118708646Y-127372419D01*
X118708646Y-127372419D02*
X118803884Y-127420038D01*
X118803884Y-127420038D02*
X118851503Y-127467657D01*
X118851503Y-127467657D02*
X118899122Y-127562895D01*
X118899122Y-127562895D02*
X118946741Y-127753371D01*
X118946741Y-127753371D02*
X118946741Y-127991466D01*
X118946741Y-127991466D02*
X118899122Y-128181942D01*
X118899122Y-128181942D02*
X118851503Y-128277180D01*
X118851503Y-128277180D02*
X118803884Y-128324800D01*
X118803884Y-128324800D02*
X118708646Y-128372419D01*
X118708646Y-128372419D02*
X118613408Y-128372419D01*
X118613408Y-128372419D02*
X118518170Y-128324800D01*
X118518170Y-128324800D02*
X118470551Y-128277180D01*
X118470551Y-128277180D02*
X118422932Y-128181942D01*
X118422932Y-128181942D02*
X118375313Y-127991466D01*
X118375313Y-127991466D02*
X118375313Y-127753371D01*
X118375313Y-127753371D02*
X118422932Y-127562895D01*
X118422932Y-127562895D02*
X118470551Y-127467657D01*
X118470551Y-127467657D02*
X118518170Y-127420038D01*
X118518170Y-127420038D02*
X118613408Y-127372419D01*
D11*
X146666666Y-77604819D02*
X146666666Y-78319104D01*
X146666666Y-78319104D02*
X146619047Y-78461961D01*
X146619047Y-78461961D02*
X146523809Y-78557200D01*
X146523809Y-78557200D02*
X146380952Y-78604819D01*
X146380952Y-78604819D02*
X146285714Y-78604819D01*
X147095238Y-77700057D02*
X147142857Y-77652438D01*
X147142857Y-77652438D02*
X147238095Y-77604819D01*
X147238095Y-77604819D02*
X147476190Y-77604819D01*
X147476190Y-77604819D02*
X147571428Y-77652438D01*
X147571428Y-77652438D02*
X147619047Y-77700057D01*
X147619047Y-77700057D02*
X147666666Y-77795295D01*
X147666666Y-77795295D02*
X147666666Y-77890533D01*
X147666666Y-77890533D02*
X147619047Y-78033390D01*
X147619047Y-78033390D02*
X147047619Y-78604819D01*
X147047619Y-78604819D02*
X147666666Y-78604819D01*
X166305714Y-78859104D02*
X166781904Y-78859104D01*
X166210476Y-79144819D02*
X166543809Y-78144819D01*
X166543809Y-78144819D02*
X166877142Y-79144819D01*
X167734285Y-79144819D02*
X167162857Y-79144819D01*
X167448571Y-79144819D02*
X167448571Y-78144819D01*
X167448571Y-78144819D02*
X167353333Y-78287676D01*
X167353333Y-78287676D02*
X167258095Y-78382914D01*
X167258095Y-78382914D02*
X167162857Y-78430533D01*
X165758095Y-118784819D02*
X165758095Y-119594342D01*
X165758095Y-119594342D02*
X165805714Y-119689580D01*
X165805714Y-119689580D02*
X165853333Y-119737200D01*
X165853333Y-119737200D02*
X165948571Y-119784819D01*
X165948571Y-119784819D02*
X166139047Y-119784819D01*
X166139047Y-119784819D02*
X166234285Y-119737200D01*
X166234285Y-119737200D02*
X166281904Y-119689580D01*
X166281904Y-119689580D02*
X166329523Y-119594342D01*
X166329523Y-119594342D02*
X166329523Y-118784819D01*
X166758095Y-119737200D02*
X166900952Y-119784819D01*
X166900952Y-119784819D02*
X167139047Y-119784819D01*
X167139047Y-119784819D02*
X167234285Y-119737200D01*
X167234285Y-119737200D02*
X167281904Y-119689580D01*
X167281904Y-119689580D02*
X167329523Y-119594342D01*
X167329523Y-119594342D02*
X167329523Y-119499104D01*
X167329523Y-119499104D02*
X167281904Y-119403866D01*
X167281904Y-119403866D02*
X167234285Y-119356247D01*
X167234285Y-119356247D02*
X167139047Y-119308628D01*
X167139047Y-119308628D02*
X166948571Y-119261009D01*
X166948571Y-119261009D02*
X166853333Y-119213390D01*
X166853333Y-119213390D02*
X166805714Y-119165771D01*
X166805714Y-119165771D02*
X166758095Y-119070533D01*
X166758095Y-119070533D02*
X166758095Y-118975295D01*
X166758095Y-118975295D02*
X166805714Y-118880057D01*
X166805714Y-118880057D02*
X166853333Y-118832438D01*
X166853333Y-118832438D02*
X166948571Y-118784819D01*
X166948571Y-118784819D02*
X167186666Y-118784819D01*
X167186666Y-118784819D02*
X167329523Y-118832438D01*
X168091428Y-119261009D02*
X168234285Y-119308628D01*
X168234285Y-119308628D02*
X168281904Y-119356247D01*
X168281904Y-119356247D02*
X168329523Y-119451485D01*
X168329523Y-119451485D02*
X168329523Y-119594342D01*
X168329523Y-119594342D02*
X168281904Y-119689580D01*
X168281904Y-119689580D02*
X168234285Y-119737200D01*
X168234285Y-119737200D02*
X168139047Y-119784819D01*
X168139047Y-119784819D02*
X167758095Y-119784819D01*
X167758095Y-119784819D02*
X167758095Y-118784819D01*
X167758095Y-118784819D02*
X168091428Y-118784819D01*
X168091428Y-118784819D02*
X168186666Y-118832438D01*
X168186666Y-118832438D02*
X168234285Y-118880057D01*
X168234285Y-118880057D02*
X168281904Y-118975295D01*
X168281904Y-118975295D02*
X168281904Y-119070533D01*
X168281904Y-119070533D02*
X168234285Y-119165771D01*
X168234285Y-119165771D02*
X168186666Y-119213390D01*
X168186666Y-119213390D02*
X168091428Y-119261009D01*
X168091428Y-119261009D02*
X167758095Y-119261009D01*
X181166666Y-79954819D02*
X181166666Y-80669104D01*
X181166666Y-80669104D02*
X181119047Y-80811961D01*
X181119047Y-80811961D02*
X181023809Y-80907200D01*
X181023809Y-80907200D02*
X180880952Y-80954819D01*
X180880952Y-80954819D02*
X180785714Y-80954819D01*
X181690476Y-80954819D02*
X181880952Y-80954819D01*
X181880952Y-80954819D02*
X181976190Y-80907200D01*
X181976190Y-80907200D02*
X182023809Y-80859580D01*
X182023809Y-80859580D02*
X182119047Y-80716723D01*
X182119047Y-80716723D02*
X182166666Y-80526247D01*
X182166666Y-80526247D02*
X182166666Y-80145295D01*
X182166666Y-80145295D02*
X182119047Y-80050057D01*
X182119047Y-80050057D02*
X182071428Y-80002438D01*
X182071428Y-80002438D02*
X181976190Y-79954819D01*
X181976190Y-79954819D02*
X181785714Y-79954819D01*
X181785714Y-79954819D02*
X181690476Y-80002438D01*
X181690476Y-80002438D02*
X181642857Y-80050057D01*
X181642857Y-80050057D02*
X181595238Y-80145295D01*
X181595238Y-80145295D02*
X181595238Y-80383390D01*
X181595238Y-80383390D02*
X181642857Y-80478628D01*
X181642857Y-80478628D02*
X181690476Y-80526247D01*
X181690476Y-80526247D02*
X181785714Y-80573866D01*
X181785714Y-80573866D02*
X181976190Y-80573866D01*
X181976190Y-80573866D02*
X182071428Y-80526247D01*
X182071428Y-80526247D02*
X182119047Y-80478628D01*
X182119047Y-80478628D02*
X182166666Y-80383390D01*
X184666666Y-89144819D02*
X184666666Y-89859104D01*
X184666666Y-89859104D02*
X184619047Y-90001961D01*
X184619047Y-90001961D02*
X184523809Y-90097200D01*
X184523809Y-90097200D02*
X184380952Y-90144819D01*
X184380952Y-90144819D02*
X184285714Y-90144819D01*
X185666666Y-90144819D02*
X185095238Y-90144819D01*
X185380952Y-90144819D02*
X185380952Y-89144819D01*
X185380952Y-89144819D02*
X185285714Y-89287676D01*
X185285714Y-89287676D02*
X185190476Y-89382914D01*
X185190476Y-89382914D02*
X185095238Y-89430533D01*
X180666666Y-72454819D02*
X180666666Y-73169104D01*
X180666666Y-73169104D02*
X180619047Y-73311961D01*
X180619047Y-73311961D02*
X180523809Y-73407200D01*
X180523809Y-73407200D02*
X180380952Y-73454819D01*
X180380952Y-73454819D02*
X180285714Y-73454819D01*
X181285714Y-72883390D02*
X181190476Y-72835771D01*
X181190476Y-72835771D02*
X181142857Y-72788152D01*
X181142857Y-72788152D02*
X181095238Y-72692914D01*
X181095238Y-72692914D02*
X181095238Y-72645295D01*
X181095238Y-72645295D02*
X181142857Y-72550057D01*
X181142857Y-72550057D02*
X181190476Y-72502438D01*
X181190476Y-72502438D02*
X181285714Y-72454819D01*
X181285714Y-72454819D02*
X181476190Y-72454819D01*
X181476190Y-72454819D02*
X181571428Y-72502438D01*
X181571428Y-72502438D02*
X181619047Y-72550057D01*
X181619047Y-72550057D02*
X181666666Y-72645295D01*
X181666666Y-72645295D02*
X181666666Y-72692914D01*
X181666666Y-72692914D02*
X181619047Y-72788152D01*
X181619047Y-72788152D02*
X181571428Y-72835771D01*
X181571428Y-72835771D02*
X181476190Y-72883390D01*
X181476190Y-72883390D02*
X181285714Y-72883390D01*
X181285714Y-72883390D02*
X181190476Y-72931009D01*
X181190476Y-72931009D02*
X181142857Y-72978628D01*
X181142857Y-72978628D02*
X181095238Y-73073866D01*
X181095238Y-73073866D02*
X181095238Y-73264342D01*
X181095238Y-73264342D02*
X181142857Y-73359580D01*
X181142857Y-73359580D02*
X181190476Y-73407200D01*
X181190476Y-73407200D02*
X181285714Y-73454819D01*
X181285714Y-73454819D02*
X181476190Y-73454819D01*
X181476190Y-73454819D02*
X181571428Y-73407200D01*
X181571428Y-73407200D02*
X181619047Y-73359580D01*
X181619047Y-73359580D02*
X181666666Y-73264342D01*
X181666666Y-73264342D02*
X181666666Y-73073866D01*
X181666666Y-73073866D02*
X181619047Y-72978628D01*
X181619047Y-72978628D02*
X181571428Y-72931009D01*
X181571428Y-72931009D02*
X181476190Y-72883390D01*
X116284819Y-71508333D02*
X116999104Y-71508333D01*
X116999104Y-71508333D02*
X117141961Y-71555952D01*
X117141961Y-71555952D02*
X117237200Y-71651190D01*
X117237200Y-71651190D02*
X117284819Y-71794047D01*
X117284819Y-71794047D02*
X117284819Y-71889285D01*
X116284819Y-71127380D02*
X116284819Y-70508333D01*
X116284819Y-70508333D02*
X116665771Y-70841666D01*
X116665771Y-70841666D02*
X116665771Y-70698809D01*
X116665771Y-70698809D02*
X116713390Y-70603571D01*
X116713390Y-70603571D02*
X116761009Y-70555952D01*
X116761009Y-70555952D02*
X116856247Y-70508333D01*
X116856247Y-70508333D02*
X117094342Y-70508333D01*
X117094342Y-70508333D02*
X117189580Y-70555952D01*
X117189580Y-70555952D02*
X117237200Y-70603571D01*
X117237200Y-70603571D02*
X117284819Y-70698809D01*
X117284819Y-70698809D02*
X117284819Y-70984523D01*
X117284819Y-70984523D02*
X117237200Y-71079761D01*
X117237200Y-71079761D02*
X117189580Y-71127380D01*
X133847819Y-83056904D02*
X134657342Y-83056904D01*
X134657342Y-83056904D02*
X134752580Y-83009285D01*
X134752580Y-83009285D02*
X134800200Y-82961666D01*
X134800200Y-82961666D02*
X134847819Y-82866428D01*
X134847819Y-82866428D02*
X134847819Y-82675952D01*
X134847819Y-82675952D02*
X134800200Y-82580714D01*
X134800200Y-82580714D02*
X134752580Y-82533095D01*
X134752580Y-82533095D02*
X134657342Y-82485476D01*
X134657342Y-82485476D02*
X133847819Y-82485476D01*
X134847819Y-81485476D02*
X134847819Y-82056904D01*
X134847819Y-81771190D02*
X133847819Y-81771190D01*
X133847819Y-81771190D02*
X133990676Y-81866428D01*
X133990676Y-81866428D02*
X134085914Y-81961666D01*
X134085914Y-81961666D02*
X134133533Y-82056904D01*
X132833333Y-76824819D02*
X132500000Y-76348628D01*
X132261905Y-76824819D02*
X132261905Y-75824819D01*
X132261905Y-75824819D02*
X132642857Y-75824819D01*
X132642857Y-75824819D02*
X132738095Y-75872438D01*
X132738095Y-75872438D02*
X132785714Y-75920057D01*
X132785714Y-75920057D02*
X132833333Y-76015295D01*
X132833333Y-76015295D02*
X132833333Y-76158152D01*
X132833333Y-76158152D02*
X132785714Y-76253390D01*
X132785714Y-76253390D02*
X132738095Y-76301009D01*
X132738095Y-76301009D02*
X132642857Y-76348628D01*
X132642857Y-76348628D02*
X132261905Y-76348628D01*
X133785714Y-76824819D02*
X133214286Y-76824819D01*
X133500000Y-76824819D02*
X133500000Y-75824819D01*
X133500000Y-75824819D02*
X133404762Y-75967676D01*
X133404762Y-75967676D02*
X133309524Y-76062914D01*
X133309524Y-76062914D02*
X133214286Y-76110533D01*
X146666666Y-92644819D02*
X146666666Y-93359104D01*
X146666666Y-93359104D02*
X146619047Y-93501961D01*
X146619047Y-93501961D02*
X146523809Y-93597200D01*
X146523809Y-93597200D02*
X146380952Y-93644819D01*
X146380952Y-93644819D02*
X146285714Y-93644819D01*
X147571428Y-92644819D02*
X147380952Y-92644819D01*
X147380952Y-92644819D02*
X147285714Y-92692438D01*
X147285714Y-92692438D02*
X147238095Y-92740057D01*
X147238095Y-92740057D02*
X147142857Y-92882914D01*
X147142857Y-92882914D02*
X147095238Y-93073390D01*
X147095238Y-93073390D02*
X147095238Y-93454342D01*
X147095238Y-93454342D02*
X147142857Y-93549580D01*
X147142857Y-93549580D02*
X147190476Y-93597200D01*
X147190476Y-93597200D02*
X147285714Y-93644819D01*
X147285714Y-93644819D02*
X147476190Y-93644819D01*
X147476190Y-93644819D02*
X147571428Y-93597200D01*
X147571428Y-93597200D02*
X147619047Y-93549580D01*
X147619047Y-93549580D02*
X147666666Y-93454342D01*
X147666666Y-93454342D02*
X147666666Y-93216247D01*
X147666666Y-93216247D02*
X147619047Y-93121009D01*
X147619047Y-93121009D02*
X147571428Y-93073390D01*
X147571428Y-93073390D02*
X147476190Y-93025771D01*
X147476190Y-93025771D02*
X147285714Y-93025771D01*
X147285714Y-93025771D02*
X147190476Y-93073390D01*
X147190476Y-93073390D02*
X147142857Y-93121009D01*
X147142857Y-93121009D02*
X147095238Y-93216247D01*
D12*
%TO.C,J2*%
X145670000Y-82190000D02*
X145670000Y-89870000D01*
X145670000Y-82190000D02*
X148330000Y-82190000D01*
X145670000Y-89870000D02*
X148330000Y-89870000D01*
X147000000Y-79590000D02*
X148330000Y-79590000D01*
X148330000Y-79590000D02*
X148330000Y-80920000D01*
X148330000Y-82190000D02*
X148330000Y-89870000D01*
%TO.C,A1*%
X158000000Y-79830000D02*
X158000000Y-82500000D01*
X158000000Y-85040000D02*
X158000000Y-123270000D01*
X158000000Y-123270000D02*
X163080000Y-123270000D01*
X160670000Y-82500000D02*
X158000000Y-82500000D01*
X160670000Y-85040000D02*
X158000000Y-85040000D01*
X160670000Y-85040000D02*
X160670000Y-82500000D01*
X160670000Y-85040000D02*
X160670000Y-120600000D01*
X160670000Y-120600000D02*
X158000000Y-120600000D01*
X163080000Y-115390000D02*
X170960000Y-115390000D01*
X163080000Y-125810000D02*
X163080000Y-115390000D01*
X170960000Y-115390000D02*
X170960000Y-125810000D01*
X170960000Y-125810000D02*
X163080000Y-125810000D01*
X173370000Y-82500000D02*
X173370000Y-120600000D01*
X173370000Y-82500000D02*
X176040000Y-82500000D01*
X173370000Y-120600000D02*
X176040000Y-120600000D01*
X176040000Y-79830000D02*
X158000000Y-79830000D01*
X176040000Y-123270000D02*
X170960000Y-123270000D01*
X176040000Y-123270000D02*
X176040000Y-79830000D01*
%TO.C,J9*%
X183170000Y-81710000D02*
X183170000Y-81830000D01*
X183170000Y-81830000D02*
X185830000Y-81830000D01*
X184500000Y-79170000D02*
X185830000Y-79170000D01*
X185830000Y-79170000D02*
X185830000Y-80500000D01*
X185830000Y-81710000D02*
X185830000Y-81830000D01*
%TO.C,J1*%
X183670000Y-93730000D02*
X183670000Y-106490000D01*
X183670000Y-93730000D02*
X186330000Y-93730000D01*
X183670000Y-106490000D02*
X186330000Y-106490000D01*
X185000000Y-91130000D02*
X186330000Y-91130000D01*
X186330000Y-91130000D02*
X186330000Y-92460000D01*
X186330000Y-93730000D02*
X186330000Y-106490000D01*
%TO.C,J8*%
X183170000Y-74210000D02*
X183170000Y-74330000D01*
X183170000Y-74330000D02*
X185830000Y-74330000D01*
X184500000Y-71670000D02*
X185830000Y-71670000D01*
X185830000Y-71670000D02*
X185830000Y-73000000D01*
X185830000Y-74210000D02*
X185830000Y-74330000D01*
%TO.C,J3*%
X114130000Y-72670000D02*
X115460000Y-72670000D01*
X114130000Y-74000000D02*
X114130000Y-72670000D01*
X116730000Y-72670000D02*
X119330000Y-72670000D01*
X116730000Y-75330000D02*
X116730000Y-72670000D01*
X116730000Y-75330000D02*
X119330000Y-75330000D01*
X119330000Y-75330000D02*
X119330000Y-72670000D01*
D13*
%TO.C,U1*%
X112998000Y-79360000D02*
X133318000Y-79360000D01*
X112998000Y-99680000D02*
X112998000Y-79360000D01*
X133318000Y-79360000D02*
X133318000Y-99680000D01*
X133318000Y-99680000D02*
X112998000Y-99680000D01*
D14*
X132148000Y-78720000D02*
G75*
G02*
X131948000Y-78720000I-100000J0D01*
G01*
X131948000Y-78720000D02*
G75*
G02*
X132148000Y-78720000I100000J0D01*
G01*
D12*
%TO.C,R1*%
X129730000Y-72630000D02*
X129730000Y-72960000D01*
X129730000Y-75370000D02*
X129730000Y-75040000D01*
X136270000Y-72630000D02*
X129730000Y-72630000D01*
X136270000Y-72960000D02*
X136270000Y-72630000D01*
X136270000Y-75040000D02*
X136270000Y-75370000D01*
X136270000Y-75370000D02*
X129730000Y-75370000D01*
%TO.C,J6*%
X145670000Y-97230000D02*
X145670000Y-104910000D01*
X145670000Y-97230000D02*
X148330000Y-97230000D01*
X145670000Y-104910000D02*
X148330000Y-104910000D01*
X147000000Y-94630000D02*
X148330000Y-94630000D01*
X148330000Y-94630000D02*
X148330000Y-95960000D01*
X148330000Y-97230000D02*
X148330000Y-104910000D01*
%TD*%
M02*
