M48
; DRILL file {KiCad 9.0.5} date 2026-02-14T18:46:44+0100
; FORMAT={-:-/ absolute / metric / decimal}
; #@! TF.CreationDate,2026-02-14T18:46:44+01:00
; #@! TF.GenerationSoftware,Kicad,Pcbnew,9.0.5
; #@! TF.FileFunction,Plated,1,2,PTH
FMAT,2
METRIC
; #@! TA.AperFunction,Plated,PTH,ComponentDrill
T1C0.800
; #@! TA.AperFunction,Plated,PTH,ComponentDrill
T2C1.000
%
G90
G05
T1
X114.268Y-80.503
X114.268Y-98.537
X116.808Y-80.503
X116.808Y-98.537
X119.348Y-80.503
X119.348Y-98.537
X121.888Y-80.503
X121.888Y-98.537
X124.428Y-80.503
X124.428Y-98.537
X126.968Y-80.503
X126.968Y-98.537
X129.19Y-74.0
X129.508Y-80.503
X129.508Y-98.537
X132.048Y-80.503
X132.048Y-98.537
X136.81Y-74.0
T2
X115.46Y-74.0
X115.46Y-105.0
X118.0Y-74.0
X118.0Y-105.0
X127.0Y-105.0
X129.54Y-105.0
X147.0Y-80.92
X147.0Y-83.46
X147.0Y-86.0
X147.0Y-88.54
X147.0Y-95.96
X147.0Y-98.5
X147.0Y-101.04
X147.0Y-103.58
X147.0Y-121.46
X147.0Y-124.0
X159.4Y-83.77
X159.4Y-86.31
X159.4Y-88.85
X159.4Y-91.39
X159.4Y-93.93
X159.4Y-96.47
X159.4Y-99.01
X159.4Y-101.55
X159.4Y-104.09
X159.4Y-106.63
X159.4Y-109.17
X159.4Y-111.71
X159.4Y-114.25
X159.4Y-116.79
X159.4Y-119.33
X174.64Y-83.77
X174.64Y-86.31
X174.64Y-88.85
X174.64Y-91.39
X174.64Y-93.93
X174.64Y-96.47
X174.64Y-99.01
X174.64Y-101.55
X174.64Y-104.09
X174.64Y-106.63
X174.64Y-109.17
X174.64Y-111.71
X174.64Y-114.25
X174.64Y-116.79
X174.64Y-119.33
X184.5Y-73.0
X184.5Y-80.5
X185.0Y-92.46
X185.0Y-95.0
X185.0Y-97.54
X185.0Y-100.08
X185.0Y-102.62
X185.0Y-105.16
M30
